<svg width="24" height="25" viewBox="0 0 24 25" fill="none" xmlns="http://www.w3.org/2000/svg">
<mask id="path-2-inside-1_1184_24435" fill="white">
<path d="M15.5 15.9258H17V14.9258H15.5V15.9258Z"/>
</mask>
<path d="M15.5 15.9258H17V14.9258H15.5V15.9258Z" fill="#F0FAFF"/>
<path d="M15.5 15.9258H14V17.4258H15.5V15.9258ZM17 15.9258V17.4258H18.5V15.9258H17ZM17 14.9258H18.5V13.4258H17V14.9258ZM15.5 14.9258V13.4258H14V14.9258H15.5ZM15.5 17.4258H17V14.4258H15.5V17.4258ZM18.5 15.9258V14.9258H15.5V15.9258H18.5ZM17 13.4258H15.5V16.4258H17V13.4258ZM14 14.9258V15.9258H17V14.9258H14Z" fill="#F0FAFF" mask="url(#path-2-inside-1_1184_24435)"/>
<path d="M17 17.9258H15.5V16.9258H17V17.9258Z" fill="#F0FAFF"/>
<path d="M15.5 19.9258H17V18.9258H15.5V19.9258Z" fill="#F0FAFF"/>
<path fill-rule="evenodd" clip-rule="evenodd" d="M8.5 2.92578L16.5 3.92578V12.9258H18.5C18.7761 12.9258 19 13.1496 19 13.4258V21.9258H19.5C19.7761 21.9258 20 22.1496 20 22.4258C20 22.7019 19.7761 22.9258 19.5 22.9258H4.5C4.22386 22.9258 4 22.7019 4 22.4258C4 22.1496 4.22386 21.9258 4.5 21.9258H5V11.4258C5 11.1496 5.22385 10.9258 5.5 10.9258H6.5H7.5H8.5V2.92578ZM18 21.9258H17V20.9258H15.5V21.9258H14.5V13.9258H18V21.9258ZM8.5 11.9258H6V21.9258H8.5V11.9258ZM11 7.42578H10V8.42578H11V7.42578ZM12 7.42578H13V8.42578H12V7.42578ZM15 7.42578H14V8.42578H15V7.42578ZM10 9.42578H11V10.4258H10V9.42578ZM13 9.42578H12V10.4258H13V9.42578ZM14 9.42578H15V10.4258H14V9.42578ZM11 11.4258H10V12.4258H11V11.4258ZM12 11.4258H13V12.4258H12V11.4258ZM15 11.4258H14V12.4258H15V11.4258ZM10 13.4258H11V14.4258H10V13.4258ZM13 13.4258H12V14.4258H13V13.4258ZM11 15.4258H10V16.4258H11V15.4258ZM12 15.4258H13V16.4258H12V15.4258ZM10 17.4258H11V18.4258H10V17.4258ZM13 17.4258H12V18.4258H13V17.4258ZM11 19.4258H10V20.4258H11V19.4258ZM12 19.4258H13V20.4258H12V19.4258Z" fill="#F0FAFF"/>
</svg>
