<svg width="24" height="25" viewBox="0 0 24 25" fill="none" xmlns="http://www.w3.org/2000/svg">
<path d="M1.5 8.05078C1.5 6.60178 2.676 5.42578 4.125 5.42578H19.875C21.324 5.42578 22.5 6.60178 22.5 8.05078V17.8008C22.5 18.497 22.2234 19.1647 21.7312 19.6569C21.2389 20.1492 20.5712 20.4258 19.875 20.4258H4.125C3.42881 20.4258 2.76113 20.1492 2.26884 19.6569C1.77656 19.1647 1.5 18.497 1.5 17.8008V8.05078ZM4.125 6.92578C3.82663 6.92578 3.54048 7.04431 3.3295 7.25529C3.11853 7.46626 3 7.75241 3 8.05078V17.8008C3 18.4218 3.504 18.9258 4.125 18.9258H19.875C20.1734 18.9258 20.4595 18.8073 20.6705 18.5963C20.8815 18.3853 21 18.0991 21 17.8008V8.05078C21 7.75241 20.8815 7.46626 20.6705 7.25529C20.4595 7.04431 20.1734 6.92578 19.875 6.92578H4.125ZM14.25 9.92578C14.0511 9.92578 13.8603 10.0048 13.7197 10.1455C13.579 10.2861 13.5 10.4769 13.5 10.6758C13.5 10.8747 13.579 11.0655 13.7197 11.2061C13.8603 11.3468 14.0511 11.4258 14.25 11.4258H18.75C18.9489 11.4258 19.1397 11.3468 19.2803 11.2061C19.421 11.0655 19.5 10.8747 19.5 10.6758C19.5 10.4769 19.421 10.2861 19.2803 10.1455C19.1397 10.0048 18.9489 9.92578 18.75 9.92578H14.25ZM14.25 14.4258C14.0511 14.4258 13.8603 14.5048 13.7197 14.6455C13.579 14.7861 13.5 14.9769 13.5 15.1758C13.5 15.3747 13.579 15.5655 13.7197 15.7061C13.8603 15.8468 14.0511 15.9258 14.25 15.9258H18.75C18.9489 15.9258 19.1397 15.8468 19.2803 15.7061C19.421 15.5655 19.5 15.3747 19.5 15.1758C19.5 14.9769 19.421 14.7861 19.2803 14.6455C19.1397 14.5048 18.9489 14.4258 18.75 14.4258H14.25ZM7.8915 12.4968C8.15881 12.4968 8.42349 12.4441 8.67045 12.3418C8.91741 12.2395 9.1418 12.0896 9.33082 11.9006C9.51983 11.7116 9.66976 11.4872 9.77206 11.2402C9.87435 10.9933 9.927 10.7286 9.927 10.4613C9.927 10.194 9.87435 9.92929 9.77206 9.68233C9.66976 9.43537 9.51983 9.21098 9.33082 9.02197C9.1418 8.83295 8.91741 8.68302 8.67045 8.58072C8.42349 8.47843 8.15881 8.42578 7.8915 8.42578C7.35165 8.42578 6.83391 8.64024 6.45218 9.02197C6.07045 9.4037 5.856 9.92143 5.856 10.4613C5.856 11.0011 6.07045 11.5189 6.45218 11.9006C6.83391 12.2823 7.35165 12.4968 7.8915 12.4968ZM5.787 13.5138C5.44567 13.5138 5.11831 13.6494 4.87695 13.8907C4.63559 14.1321 4.5 14.4594 4.5 14.8008C4.50005 15.3594 4.68682 15.902 5.03063 16.3423C5.37444 16.7826 5.85555 17.0953 6.3975 17.2308L6.477 17.2518C7.407 17.4843 8.3775 17.4843 9.306 17.2518L9.387 17.2323C9.92895 17.0968 10.4101 16.7841 10.7539 16.3438C11.0977 15.9035 11.2845 15.3609 11.2845 14.8023C11.2847 14.6331 11.2516 14.4656 11.187 14.3093C11.1224 14.153 11.0276 14.0109 10.9081 13.8913C10.7885 13.7716 10.6466 13.6767 10.4904 13.6119C10.3341 13.5471 10.1666 13.5138 9.9975 13.5138H5.787Z" fill="white"/>
</svg>
