<svg width="226" height="67" viewBox="0 0 226 67" fill="none" xmlns="http://www.w3.org/2000/svg">
<path d="M32.9104 33.5225C27.973 29.6944 23.1278 25.939 18.281 22.1821C18.3005 22.1335 18.3199 22.0833 18.3393 22.0347C18.6535 22.0347 18.9693 22.0347 19.2834 22.0347C26.2354 22.0315 33.1873 22.0218 40.1393 22.0347C40.6785 22.0364 40.8761 21.7497 41.0251 21.3303C41.8186 19.0956 42.6137 16.8609 43.4072 14.6261C45.0735 9.92835 46.7382 5.23056 48.4078 0.534391C48.4547 0.401603 48.5373 0.280151 48.6847 0C48.9243 0.594308 49.1154 1.04449 49.2887 1.50115C51.5008 7.35517 53.7112 13.2092 55.9184 19.0648C56.3767 20.281 56.3686 20.2793 55.303 21.0777C50.147 24.9366 44.9925 28.7988 39.8381 32.6594C33.9792 37.0479 28.1219 41.4364 22.2615 45.8216C15.8374 50.6295 9.41177 55.4326 2.98935 60.2405C2.03069 60.9579 1.0785 61.685 0.124691 62.4088C0.0825878 62.357 0.0404842 62.3068 0 62.255C10.9404 52.7007 21.8825 43.1481 32.9104 33.5225Z" fill="white"/>
<path d="M80.3628 35.4945C80.3628 31.3619 80.3725 27.2277 80.3515 23.095C80.3482 22.525 80.5134 22.3226 81.0996 22.3242C86.6865 22.3388 92.2717 22.3178 97.8585 22.3372C100.31 22.3453 101.444 23.5242 101.442 25.9662C101.441 32.3643 101.444 38.7624 101.429 45.1589C101.426 46.5241 101.096 47.7888 99.6738 48.3426C99.0374 48.5904 98.3022 48.6778 97.6107 48.6811C92.113 48.7086 86.6136 48.6956 81.1158 48.7005C80.643 48.7005 80.3288 48.6438 80.3321 48.0268C80.3531 43.8505 80.3434 39.6725 80.3434 35.4962C80.3499 35.4945 80.3563 35.4945 80.3628 35.4945ZM96.129 35.5172C96.1306 35.5172 96.1322 35.5172 96.1355 35.5172C96.1355 33.1206 96.1241 30.7239 96.1452 28.3288C96.15 27.8382 95.993 27.6908 95.5007 27.6941C92.4223 27.7119 89.3422 27.7054 86.2638 27.6876C85.8347 27.6843 85.6857 27.8187 85.6873 28.2511C85.697 33.0882 85.6954 37.9252 85.6889 42.7607C85.6889 43.206 85.8476 43.3712 86.3156 43.3679C89.3066 43.3501 92.2976 43.3614 95.2885 43.3647C96.1144 43.3663 96.1274 43.3582 96.129 42.5097C96.1306 40.1778 96.129 37.8475 96.129 35.5172Z" fill="white"/>
<path d="M176.944 36.7181C176.944 40.5009 176.938 44.2838 176.954 48.0666C176.956 48.5168 176.841 48.7111 176.369 48.7047C175.027 48.6869 173.684 48.6869 172.344 48.7047C171.829 48.7111 171.646 48.4958 171.65 47.9905C171.672 46.0991 171.647 44.2077 171.683 42.3163C171.693 41.7932 171.539 41.6232 171.016 41.6264C167.979 41.6458 164.943 41.6507 161.907 41.6264C161.337 41.6215 161.188 41.8547 161.191 42.3632C161.207 44.232 161.189 46.1023 161.219 47.9711C161.227 48.465 161.113 48.7128 160.571 48.7047C159.228 48.6852 157.886 48.6933 156.545 48.6998C156.105 48.7014 155.863 48.5913 155.863 48.0634C155.883 40.7179 155.881 33.3709 155.894 26.0254C155.896 25.0279 155.991 24.0546 156.741 23.2644C157.475 22.492 158.425 22.3171 159.395 22.3122C164.059 22.2879 168.724 22.296 173.388 22.3122C174.643 22.3171 175.856 22.5762 176.479 23.8053C176.774 24.385 176.909 25.1056 176.915 25.7647C176.956 29.4148 176.934 33.0664 176.934 36.7181C176.938 36.7181 176.941 36.7181 176.944 36.7181ZM166.399 27.6367C166.399 27.6318 166.399 27.627 166.399 27.6237C164.883 27.6237 163.367 27.6286 161.85 27.6205C161.474 27.6189 161.21 27.6707 161.214 28.1452C161.227 30.6924 161.225 33.2413 161.222 35.7886C161.222 36.1691 161.361 36.344 161.764 36.344C164.885 36.3376 168.005 36.3392 171.124 36.3505C171.534 36.3521 171.649 36.187 171.647 35.7983C171.636 33.2948 171.633 30.7912 171.652 28.2877C171.655 27.8051 171.502 27.6237 171.012 27.6302C169.476 27.648 167.937 27.6367 166.399 27.6367Z" fill="white"/>
<path d="M196.187 38.5472C196.187 38.008 196.187 37.4687 196.187 36.9279C196.188 32.3094 196.198 27.691 196.183 23.0725C196.182 22.5365 196.334 22.3228 196.893 22.3325C198.212 22.3568 199.532 22.3406 200.852 22.3212C201.323 22.3147 201.503 22.4685 201.503 22.9738C201.487 31.3297 201.487 39.6873 201.497 48.0432C201.497 48.5258 201.339 48.7169 200.85 48.7104C199.443 48.6926 198.033 48.7314 196.627 48.678C196.319 48.6667 195.908 48.4319 195.741 48.1744C193.413 44.5518 191.118 40.9066 188.817 37.2679C187.947 35.8931 187.079 34.5182 186.216 33.1418C186.137 33.0138 186.083 32.8697 186.019 32.7321C185.93 32.7758 185.84 32.8211 185.751 32.8649C185.737 33.1288 185.709 33.3928 185.709 33.6567C185.709 38.3626 185.711 43.0685 185.719 47.776C185.721 48.6877 185.716 48.7039 184.815 48.7039C183.562 48.7039 182.307 48.6958 181.054 48.7055C180.597 48.7088 180.395 48.5776 180.395 48.0594C180.412 39.7472 180.416 31.4333 180.398 23.1211C180.396 22.5187 180.545 22.305 181.162 22.3212C182.48 22.3568 183.803 22.3017 185.121 22.3503C185.413 22.3616 185.81 22.5722 185.964 22.8151C189.17 27.8578 192.349 32.9183 195.536 37.9724C195.68 38.2007 195.855 38.4112 196.015 38.6298C196.07 38.6007 196.128 38.5748 196.187 38.5472Z" fill="white"/>
<path d="M125.991 34.262C125.991 37.7582 125.993 41.2544 125.989 44.7507C125.989 45.1247 125.993 45.5004 125.946 45.8696C125.735 47.5101 124.998 48.2955 123.374 48.5886C122.922 48.6695 122.456 48.6922 121.996 48.6938C117.554 48.7003 113.111 48.6971 108.669 48.689C108.274 48.689 107.877 48.6452 107.487 48.5902C106.136 48.3991 105.253 47.5603 105.004 46.2243C104.944 45.902 104.923 45.5684 104.923 45.2397C104.918 37.8084 104.923 30.3755 104.91 22.9442C104.909 22.4795 105.053 22.3143 105.506 22.3192C106.87 22.3321 108.233 22.3337 109.597 22.3127C110.112 22.3046 110.222 22.5507 110.218 23.0042C110.201 24.7628 110.205 26.5214 110.205 28.2817C110.204 33.0313 110.206 37.7809 110.204 42.5305C110.204 43.3791 110.21 43.3871 111.035 43.3871C114.026 43.3871 117.018 43.3742 120.009 43.3952C120.576 43.4001 120.718 43.1815 120.717 42.6568C120.707 36.1923 120.714 29.7278 120.714 23.2633C120.714 22.3451 120.709 22.3402 121.611 22.3337C122.864 22.3256 124.117 22.3321 125.373 22.3176C125.844 22.3127 126.02 22.4843 126.017 22.9815C125.998 26.7417 126.007 30.5018 126.007 34.2604C126.001 34.262 125.996 34.262 125.991 34.262Z" fill="white"/>
<path d="M204.971 35.4628C204.971 31.3302 204.981 27.196 204.96 23.0633C204.956 22.4706 205.169 22.3038 205.735 22.3184C207.01 22.3508 208.287 22.3492 209.563 22.3152C210.119 22.3006 210.281 22.4917 210.278 23.0407C210.255 26.0754 210.278 29.11 210.255 32.1447C210.25 32.6921 210.419 32.8686 210.967 32.8654C214.025 32.8459 217.084 32.8508 220.141 32.8702C220.651 32.8735 220.773 32.6694 220.77 32.2014C220.752 29.1667 220.774 26.132 220.739 23.0973C220.731 22.4625 220.946 22.3038 221.535 22.3184C222.789 22.3508 224.044 22.3508 225.297 22.3136C225.864 22.2957 225.998 22.5014 225.997 23.039C225.984 31.3529 225.989 39.6651 226.002 47.9789C226.003 48.5117 225.853 48.7255 225.289 48.7109C223.992 48.6769 222.693 48.6947 221.395 48.6995C220.957 48.7012 220.719 48.604 220.726 48.0648C220.763 44.9653 220.755 41.8642 220.776 38.7631C220.779 38.253 220.538 38.1396 220.081 38.1413C217.024 38.1542 213.965 38.1542 210.906 38.1396C210.419 38.138 210.253 38.3048 210.257 38.7955C210.274 41.8302 210.247 44.8649 210.284 47.8996C210.292 48.557 210.083 48.7319 209.458 48.7125C208.184 48.672 206.906 48.6931 205.63 48.7044C205.175 48.7093 204.952 48.5765 204.953 48.0631C204.969 43.8641 204.961 39.6651 204.961 35.4661C204.964 35.4628 204.968 35.4628 204.971 35.4628Z" fill="white"/>
<path d="M78.5593 22.3215C78.3683 22.383 78.1399 22.3976 77.9926 22.5158C72.579 26.7958 67.1768 31.0904 61.7632 35.3687C61.3438 35.7007 61.2159 36.01 61.3746 36.5476C63.1721 42.6769 64.9453 48.8127 66.7282 54.9469C66.8464 55.355 66.9922 55.755 67.1655 56.2813C66.9112 56.2035 66.8027 56.1938 66.7234 56.142C62.5907 53.47 58.4597 50.7932 54.3287 48.1164C52.5766 46.9812 50.8341 45.8331 49.0642 44.7287C48.8682 44.6072 48.4439 44.6153 48.2577 44.7481C44.164 47.6727 40.0896 50.6264 36.0088 53.5704C32.9612 55.7695 29.9103 57.9605 26.8626 60.158C25.7048 60.992 24.5534 61.8341 23.3988 62.6713C23.3583 62.6308 23.3178 62.5919 23.2773 62.5515C23.4118 62.4154 23.5364 62.2664 23.6822 62.1434C29.5103 57.2594 35.3465 52.3867 41.1697 47.4962C46.925 42.6608 52.664 37.8075 58.416 32.9672C62.6199 29.4289 66.8286 25.8954 71.0487 22.3765C71.2835 22.1806 71.6349 22.0332 71.9345 22.0268C74.0008 21.9847 76.0687 21.9847 78.1351 21.9766C78.1917 21.9766 78.2484 22.0219 78.3067 22.0462C78.3893 22.1369 78.4735 22.2292 78.5593 22.3215Z" fill="white"/>
<path d="M146.997 22.3899C146.524 23.8182 146.083 25.146 145.643 26.4739C145.581 26.6618 145.504 26.8464 145.466 27.0391C145.379 27.4893 145.109 27.6301 144.666 27.6285C141.653 27.614 138.641 27.622 135.627 27.6091C134.78 27.6059 134.759 27.5994 134.758 28.422C134.746 33.2137 134.741 38.0071 134.72 42.7988C134.717 43.3494 135.021 43.3817 135.441 43.3801C139.026 43.3736 142.61 43.3769 146.195 43.3785C147.036 43.3785 147.029 43.3801 147.023 44.2206C147.015 45.5177 147.003 46.8148 147.024 48.1103C147.031 48.5475 146.859 48.7046 146.446 48.7046C141.917 48.6981 137.386 48.7386 132.856 48.6738C130.49 48.6398 129.465 47.5257 129.457 45.1533C129.438 38.7342 129.446 32.3134 129.454 25.8942C129.456 24.5841 129.715 23.3502 131.065 22.7591C131.632 22.5097 132.29 22.3542 132.907 22.3494C137.392 22.3154 141.88 22.3316 146.367 22.3348C146.54 22.3332 146.71 22.3623 146.997 22.3899Z" fill="white"/>
<path d="M13.2422 61.1774C14.6462 59.9855 16.0469 58.7904 17.4542 57.6034C21.956 53.806 26.4611 50.0118 30.9646 46.216C35.2996 42.5611 39.6379 38.9094 43.9697 35.2513C47.3105 32.4287 50.6431 29.5965 53.979 26.769C55.7376 25.2776 57.4914 23.7764 59.2614 22.298C59.4492 22.1409 59.7359 22.0291 59.9772 22.0259C61.9997 21.9984 64.024 22.0016 66.0465 22C66.1048 22 66.1648 22.0437 66.4044 22.1376C48.6675 35.2432 31.0212 48.2823 13.375 61.3199C13.3329 61.2713 13.2875 61.2243 13.2422 61.1774Z" fill="#BE3136"/>
<path d="M80.6852 60.8014C80.6852 59.3294 80.7111 57.8558 80.6722 56.3838C80.656 55.7798 80.8828 55.6405 81.4431 55.6486C83.2017 55.6745 84.962 55.6777 86.7206 55.6373C87.3311 55.6227 87.3829 55.9028 87.4023 56.3951C87.4218 56.9198 87.2161 57.0251 86.7449 57.0137C85.4478 56.9846 84.149 57.0137 82.8535 56.983C82.3159 56.97 82.0876 57.1465 82.1216 57.7036C82.1572 58.2736 82.1491 58.8468 82.1248 59.4169C82.1054 59.9027 82.3046 60.0824 82.7871 60.0711C83.9741 60.0452 85.1627 60.0808 86.3481 60.0322C86.9457 60.0079 87.0347 60.28 87.0509 60.7788C87.0687 61.2937 86.8598 61.4119 86.3886 61.4022C85.1789 61.3747 83.9693 61.4071 82.7596 61.3812C82.2738 61.3714 82.0892 61.5334 82.1135 62.0289C82.1459 62.709 82.1297 63.3908 82.1086 64.0725C82.094 64.5308 82.2916 64.696 82.7386 64.6895C84.1458 64.6717 85.5546 64.6976 86.9602 64.662C87.5157 64.6474 87.6825 64.8498 87.6922 65.3859C87.7003 65.9607 87.4218 66.019 86.9522 66.0158C85.0834 65.998 83.213 66.0012 81.3443 66.019C80.9006 66.0223 80.6366 65.951 80.6447 65.4166C80.6674 63.8782 80.6528 62.3398 80.6528 60.8014C80.6674 60.8014 80.6755 60.8014 80.6852 60.8014Z" fill="white"/>
<path d="M102.187 59.8879C102.187 58.4451 102.187 57.0881 102.187 55.731C102.187 54.9748 102.281 54.9019 103.019 54.9424C103.398 54.9634 103.502 55.1351 103.502 55.4849C103.499 58.8062 103.505 62.1259 103.513 65.4472C103.513 65.7662 103.471 66.0108 103.07 66.0286C102.551 66.0513 102.061 66.0675 102.185 65.1315C101.011 66.15 99.7759 66.4869 98.4901 65.9509C97.8585 65.6869 97.227 65.1849 96.84 64.623C95.8359 63.1672 96.0627 61.1138 97.214 59.93C98.4739 58.6345 100.033 58.6038 102.187 59.8879ZM97.6302 62.4757C97.6237 63.9104 98.5662 64.9452 99.8827 64.9485C101.227 64.9517 102.207 63.9396 102.216 62.5356C102.224 61.1899 101.248 60.1697 99.9378 60.1584C98.5775 60.1487 97.6367 61.0927 97.6302 62.4757Z" fill="white"/>
<path d="M133.086 66.2572C130.819 66.1827 129.166 65.1026 128.294 63.0379C127.415 60.9538 127.682 58.902 129.174 57.1661C130.66 55.4366 132.634 55.0836 134.765 55.6665C135.378 55.8333 135.93 56.2495 136.48 56.5961C136.854 56.8309 136.788 57.0754 136.448 57.3685C135.964 57.7863 135.622 57.8624 135.063 57.3993C133.927 56.4552 132.382 56.4698 131.083 57.3798C129.734 58.3239 129.237 59.715 129.373 61.2955C129.519 62.9893 130.364 64.2557 132.058 64.7625C133.31 65.1366 134.493 64.9779 135.47 63.9917C135.862 63.595 136.803 63.8492 136.916 64.3998C136.948 64.5553 136.786 64.803 136.644 64.9342C135.643 65.8572 134.448 66.2767 133.086 66.2572Z" fill="white"/>
<path d="M196.187 63.0105C195.484 63.0105 194.781 63.0089 194.079 63.0105C193.402 63.0121 193.305 63.1805 193.62 63.7959C194.279 65.0833 196.002 65.4023 197.155 64.4501C197.413 64.2364 197.604 63.9157 198.038 64.2396C198.691 64.727 198.694 64.8776 198.033 65.3861C197.055 66.1407 195.947 66.2897 194.786 66.1035C192.728 65.7732 191.505 63.4931 192.207 61.362C192.986 58.9977 196.041 58.0698 197.816 59.6681C198.676 60.4422 198.951 61.4592 198.972 62.5749C198.98 62.97 198.762 63.0478 198.427 63.0429C197.68 63.0316 196.934 63.0397 196.187 63.0397C196.187 63.0332 196.187 63.0218 196.187 63.0105ZM195.504 61.9676C195.965 61.9676 196.425 61.9676 196.887 61.9676C197.539 61.9676 197.666 61.783 197.429 61.1806C197.091 60.3143 196.417 59.9175 195.385 59.9742C194.571 60.0195 193.664 60.7321 193.47 61.464C193.377 61.8154 193.518 61.9644 193.857 61.9676C194.406 61.9709 194.955 61.9676 195.504 61.9676Z" fill="white"/>
<path d="M149.01 66.1718C146.916 66.1508 145.326 64.546 145.36 62.4878C145.394 60.4652 147.036 58.8798 149.063 58.9106C151.152 58.9414 152.738 60.5494 152.715 62.6092C152.691 64.6253 151.062 66.1913 149.01 66.1718ZM149.023 60.164C147.692 60.164 146.749 61.1777 146.754 62.6028C146.761 63.9776 147.752 64.946 149.144 64.9363C150.367 64.9282 151.331 63.8561 151.318 62.5185C151.305 61.1583 150.336 60.164 149.023 60.164Z" fill="white"/>
<path d="M163.014 59.7219C163.602 59.4547 164.104 59.1243 164.654 58.9932C166.413 58.577 167.726 59.6263 167.752 61.4206C167.771 62.7598 167.747 64.1006 167.776 65.4399C167.788 65.9224 167.593 66.0504 167.151 66.0293C166.748 66.0099 166.411 66.0147 166.427 65.4496C166.458 64.3306 166.458 63.21 166.445 62.0894C166.431 60.8392 165.911 60.1964 164.933 60.1721C163.819 60.1445 163.054 60.849 163.001 62.0538C162.952 63.1501 162.957 64.2513 163.006 65.3476C163.032 65.9516 162.761 66.0326 162.259 66.0342C161.738 66.0342 161.585 65.8496 161.595 65.3281C161.628 63.5501 161.602 61.7704 161.616 59.9923C161.619 59.6409 161.399 59.1114 162.037 59.079C162.507 59.0563 163.169 58.8474 163.014 59.7219Z" fill="white"/>
<path d="M117.51 65.2089C116.736 65.97 115.933 66.2243 115.006 66.1628C113.878 66.0866 112.958 65.4033 112.869 64.2924C112.739 62.6973 112.772 61.0893 112.754 59.4861C112.749 58.9792 113.151 59.0683 113.475 59.057C113.866 59.0424 114.095 59.159 114.088 59.6124C114.072 60.8658 114.058 62.1192 114.096 63.371C114.121 64.1758 114.594 64.7409 115.238 64.8835C116.064 65.0664 116.917 64.728 117.246 63.9896C117.427 63.5815 117.512 63.1054 117.533 62.6552C117.575 61.7565 117.551 60.8528 117.538 59.9525C117.529 59.4715 117.463 59.044 118.2 59.0391C118.904 59.0327 118.904 59.3922 118.899 59.912C118.878 61.6706 118.895 63.4293 118.89 65.1879C118.888 65.5328 119.065 66.0105 118.453 66.0138C117.993 66.0138 117.358 66.2049 117.51 65.2089Z" fill="white"/>
<path d="M178.316 59.9641C178.631 59.7099 178.775 59.5933 178.921 59.4783C179.809 58.7787 180.8 58.7804 181.792 59.1431C182.673 59.4653 183.073 60.2297 183.117 61.1025C183.19 62.5924 183.167 64.0886 183.174 65.5817C183.175 66.0886 182.795 66.0157 182.464 66.0206C182.064 66.0254 181.789 65.9525 181.8 65.4441C181.826 64.215 181.834 62.9842 181.805 61.7535C181.788 60.939 181.334 60.3479 180.714 60.2005C179.88 60.003 179.119 60.2588 178.737 61.0054C178.507 61.4572 178.388 61.9997 178.358 62.5114C178.303 63.4296 178.335 64.3558 178.363 65.2773C178.375 65.7226 178.372 66.04 177.768 66.0319C177.218 66.0254 177.002 65.904 177.018 65.2886C177.064 63.5316 177.017 61.7746 177.031 60.0159C177.035 59.671 176.78 59.1399 177.422 59.0816C177.906 59.0378 178.536 58.9002 178.316 59.9641Z" fill="white"/>
<path d="M211.208 66.1671C209.399 66.1444 208.253 65.3784 207.684 63.9081C207.163 62.5624 207.584 60.7584 208.646 59.7722C209.802 58.7002 212.257 58.6403 213.418 59.6831C213.532 59.7852 213.572 60.1819 213.49 60.2483C213.195 60.4847 213.052 61.0709 212.432 60.6969C212.003 60.4378 211.485 60.2386 210.991 60.1965C210.079 60.1187 209.338 60.7535 209.019 61.7235C208.683 62.7454 208.991 63.8627 209.773 64.47C210.533 65.0578 211.512 65.0983 212.29 64.572C212.795 64.2303 213.354 64.3761 213.561 64.9526C213.608 65.0821 213.467 65.3558 213.333 65.4627C212.672 65.9857 211.906 66.2173 211.208 66.1671Z" fill="white"/>
<path d="M222.624 62.5327C222.624 62.0048 222.582 61.4736 222.636 60.9522C222.697 60.353 222.467 60.1733 221.894 60.1911C221.638 60.1992 221.246 60.0826 221.143 59.8963C220.9 59.4624 221.185 59.1012 221.7 59.0721C222.602 59.0203 222.602 59.0203 222.602 58.0535C222.602 57.1709 222.728 57.0236 223.512 57.1629C223.69 57.1952 223.942 57.4624 223.957 57.6406C224.075 58.9846 224.059 58.9992 225.324 59.0591C225.73 59.0786 225.857 59.2583 225.866 59.6292C225.876 59.9984 225.769 60.2316 225.355 60.2154C225.332 60.2137 225.311 60.2154 225.288 60.217C223.96 60.2818 223.959 60.2818 223.959 61.6129C223.959 62.3384 223.942 63.0638 223.967 63.7877C223.997 64.6702 224.409 64.986 225.288 64.9083C225.494 64.8905 225.881 64.999 225.897 65.0945C225.957 65.467 226.031 66.0159 225.51 66.0597C224.83 66.1163 224.103 66.0856 223.457 65.8896C223.138 65.7925 222.882 65.271 222.734 64.8872C222.598 64.5342 222.636 64.1099 222.619 63.7164C222.603 63.3213 222.616 62.9262 222.616 62.5311C222.619 62.5327 222.621 62.5327 222.624 62.5327Z" fill="white"/>
</svg>
