<svg width="20" height="21" viewBox="0 0 20 21" fill="none" xmlns="http://www.w3.org/2000/svg">
<path d="M20 10.9258C19.9995 8.27378 18.9457 5.73055 17.0705 3.8553C15.1952 1.98005 12.652 0.926311 10 0.925781V2.92578C11.5821 2.92614 13.1286 3.39542 14.4441 4.27432C15.7596 5.15322 16.7851 6.40231 17.391 7.86378C17.7931 8.83455 18.0001 9.87502 18 10.9258H20ZM0 8.92578V3.92578C0 3.66056 0.105357 3.40621 0.292893 3.21867C0.48043 3.03114 0.734784 2.92578 1 2.92578H6C6.26522 2.92578 6.51957 3.03114 6.70711 3.21867C6.89464 3.40621 7 3.66056 7 3.92578V7.92578C7 8.191 6.89464 8.44535 6.70711 8.63289C6.51957 8.82042 6.26522 8.92578 6 8.92578H4C4 11.0475 4.84285 13.0823 6.34315 14.5826C7.84344 16.0829 9.87827 16.9258 12 16.9258V14.9258C12 14.6606 12.1054 14.4062 12.2929 14.2187C12.4804 14.0311 12.7348 13.9258 13 13.9258H17C17.2652 13.9258 17.5196 14.0311 17.7071 14.2187C17.8946 14.4062 18 14.6606 18 14.9258V19.9258C18 20.191 17.8946 20.4454 17.7071 20.6329C17.5196 20.8204 17.2652 20.9258 17 20.9258H12C5.373 20.9258 0 15.5528 0 8.92578Z" fill="white"/>
<path d="M15.543 8.62978C15.8449 9.35761 16.0002 10.1378 16 10.9258H14.2C14.2001 10.3742 14.0916 9.82798 13.8806 9.31836C13.6695 8.80873 13.3602 8.34567 12.9701 7.95564C12.5801 7.56561 12.1171 7.25624 11.6074 7.04522C11.0978 6.8342 10.5516 6.72565 10 6.72578V4.92578C11.1867 4.92584 12.3466 5.27778 13.3333 5.93708C14.3199 6.59639 15.0889 7.53345 15.543 8.62978Z" fill="white"/>
</svg>
