<svg width="214" height="152" viewBox="0 0 214 152" fill="none" xmlns="http://www.w3.org/2000/svg">
<g filter="url(#filter0_dd_5292_36319)">
<path fill-rule="evenodd" clip-rule="evenodd" d="M36.0147 36.4405C32.5 39.9552 32.5 45.6121 32.5 56.9258V83.9258C32.5 95.2395 32.5 100.896 36.0147 104.411C39.5294 107.926 45.1863 107.926 56.5 107.926H151.737C155.066 107.926 156.731 107.926 158.01 108.372C159.29 108.818 162.054 111.014 167.583 115.405C171.163 118.248 175.577 119.926 180.352 119.926C192.308 119.926 202 109.404 202 96.4258C202 90.1511 199.735 84.4508 196.043 80.2361C190.257 73.6291 187.363 70.3256 186.852 68.9643C186.34 67.6031 186.34 65.7571 186.34 62.0653V56.9258C186.34 45.6121 186.34 39.9552 182.825 36.4405C179.31 32.9258 173.653 32.9258 162.34 32.9258H56.5C45.1863 32.9258 39.5294 32.9258 36.0147 36.4405Z" fill="url(#paint0_linear_5292_36319)"/>
</g>
<path opacity="0.2" d="M196.897 96.4258C196.897 106.406 189.453 114.426 180.355 114.426C171.257 114.426 163.812 106.406 163.812 96.4258C163.812 86.4452 171.257 78.4258 180.355 78.4258C189.453 78.4258 196.897 86.4452 196.897 96.4258Z" stroke="url(#paint1_linear_5292_36319)"/>
<path opacity="0.5" d="M191.366 96.4258C191.366 103.093 186.396 108.426 180.351 108.426C174.305 108.426 169.336 103.093 169.336 96.4258C169.336 89.7589 174.305 84.4258 180.351 84.4258C186.396 84.4258 191.366 89.7589 191.366 96.4258Z" stroke="url(#paint2_linear_5292_36319)"/>
<path opacity="0.7" d="M184.922 96.4258C184.922 99.2266 182.84 101.426 180.356 101.426C177.871 101.426 175.789 99.2266 175.789 96.4258C175.789 93.6249 177.871 91.4258 180.356 91.4258C182.84 91.4258 184.922 93.6249 184.922 96.4258Z" stroke="url(#paint3_linear_5292_36319)"/>
<path fill-rule="evenodd" clip-rule="evenodd" d="M179.327 96.951C179.406 97.9501 184.509 112.728 184.933 113.189C185.437 113.736 186.34 113.715 186.867 113.143C187.084 112.907 187.77 111.37 188.392 109.727C189.014 108.084 189.607 106.649 189.709 106.537C189.812 106.426 191.123 105.794 192.624 105.133C194.124 104.473 195.544 103.724 195.779 103.469C196.294 102.909 196.289 101.931 195.768 101.366C195.363 100.926 181.722 95.3928 180.838 95.3099C180.542 95.2823 180.092 95.5037 179.799 95.8225C179.505 96.1412 179.301 96.6291 179.327 96.951Z" fill="white"/>
<defs>
<filter id="filter0_dd_5292_36319" x="0.5" y="0.925781" width="233.5" height="151" filterUnits="userSpaceOnUse" color-interpolation-filters="sRGB">
<feFlood flood-opacity="0" result="BackgroundImageFix"/>
<feColorMatrix in="SourceAlpha" type="matrix" values="0 0 0 0 0 0 0 0 0 0 0 0 0 0 0 0 0 0 127 0" result="hardAlpha"/>
<feOffset/>
<feGaussianBlur stdDeviation="16"/>
<feColorMatrix type="matrix" values="0 0 0 0 0 0 0 0 0 0.465074 0 0 0 0 0.898438 0 0 0 0.04 0"/>
<feBlend mode="normal" in2="BackgroundImageFix" result="effect1_dropShadow_5292_36319"/>
<feColorMatrix in="SourceAlpha" type="matrix" values="0 0 0 0 0 0 0 0 0 0 0 0 0 0 0 0 0 0 127 0" result="hardAlpha"/>
<feOffset dy="3"/>
<feGaussianBlur stdDeviation="12"/>
<feColorMatrix type="matrix" values="0 0 0 0 0 0 0 0 0 0.517647 0 0 0 0 1 0 0 0 0.04 0"/>
<feBlend mode="normal" in2="effect1_dropShadow_5292_36319" result="effect2_dropShadow_5292_36319"/>
<feBlend mode="normal" in="SourceGraphic" in2="effect2_dropShadow_5292_36319" result="shape"/>
</filter>
<linearGradient id="paint0_linear_5292_36319" x1="244.375" y1="25.2493" x2="250.66" y2="96.5791" gradientUnits="userSpaceOnUse">
<stop stop-color="#2E6BC6"/>
<stop offset="1" stop-color="#29A4EA"/>
</linearGradient>
<linearGradient id="paint1_linear_5292_36319" x1="180.355" y1="77.9258" x2="180.355" y2="114.926" gradientUnits="userSpaceOnUse">
<stop stop-color="white"/>
<stop offset="1" stop-color="white" stop-opacity="0"/>
</linearGradient>
<linearGradient id="paint2_linear_5292_36319" x1="180.351" y1="83.9258" x2="180.351" y2="108.926" gradientUnits="userSpaceOnUse">
<stop stop-color="white"/>
<stop offset="1" stop-color="white" stop-opacity="0"/>
</linearGradient>
<linearGradient id="paint3_linear_5292_36319" x1="180.356" y1="90.9258" x2="180.356" y2="101.926" gradientUnits="userSpaceOnUse">
<stop stop-color="white"/>
<stop offset="1" stop-color="white" stop-opacity="0"/>
</linearGradient>
</defs>
</svg>
