<svg width="348" height="319" viewBox="0 0 348 319" fill="none" xmlns="http://www.w3.org/2000/svg">
<g filter="url(#filter0_dddd_608_28086)">
<path fill-rule="evenodd" clip-rule="evenodd" d="M27.5398 21.3121C23 26.8439 23 35.0626 23 51.5C23 67.9374 23 76.1561 27.5398 81.6879C28.3709 82.7005 29.2995 83.6291 30.3121 84.4602C35.8439 89 44.0626 89 60.5 89H154.5C156.326 89 157.239 89 157.811 89.06C160.587 89.3511 160.529 89.3297 162.839 90.8969C163.315 91.2197 164.997 92.6378 168.36 95.474C172.45 98.9221 177.732 101 183.5 101C196.479 101 207 90.4787 207 77.5C207 68.9704 202.456 61.5022 195.656 57.3843C193.552 56.1099 192 53.9603 192 51.5C192 35.0626 192 26.8439 187.46 21.3121C186.629 20.2995 185.701 19.3709 184.688 18.5398C179.156 14 170.937 14 154.5 14H60.5C44.0626 14 35.8439 14 30.3121 18.5398C29.2995 19.3709 28.3709 20.2995 27.5398 21.3121Z" fill="url(#paint0_linear_608_28086)"/>
</g>
<defs>
<filter id="filter0_dddd_608_28086" x="0" y="0" width="348" height="319" filterUnits="userSpaceOnUse" color-interpolation-filters="sRGB">
<feFlood flood-opacity="0" result="BackgroundImageFix"/>
<feColorMatrix in="SourceAlpha" type="matrix" values="0 0 0 0 0 0 0 0 0 0 0 0 0 0 0 0 0 0 127 0" result="hardAlpha"/>
<feOffset dx="5" dy="9"/>
<feGaussianBlur stdDeviation="11.5"/>
<feColorMatrix type="matrix" values="0 0 0 0 0.619608 0 0 0 0 0.619608 0 0 0 0 0.619608 0 0 0 0.1 0"/>
<feBlend mode="normal" in2="BackgroundImageFix" result="effect1_dropShadow_608_28086"/>
<feColorMatrix in="SourceAlpha" type="matrix" values="0 0 0 0 0 0 0 0 0 0 0 0 0 0 0 0 0 0 127 0" result="hardAlpha"/>
<feOffset dx="19" dy="38"/>
<feGaussianBlur stdDeviation="21"/>
<feColorMatrix type="matrix" values="0 0 0 0 0.619608 0 0 0 0 0.619608 0 0 0 0 0.619608 0 0 0 0.09 0"/>
<feBlend mode="normal" in2="effect1_dropShadow_608_28086" result="effect2_dropShadow_608_28086"/>
<feColorMatrix in="SourceAlpha" type="matrix" values="0 0 0 0 0 0 0 0 0 0 0 0 0 0 0 0 0 0 127 0" result="hardAlpha"/>
<feOffset dx="42" dy="85"/>
<feGaussianBlur stdDeviation="28.5"/>
<feColorMatrix type="matrix" values="0 0 0 0 0.619608 0 0 0 0 0.619608 0 0 0 0 0.619608 0 0 0 0.05 0"/>
<feBlend mode="normal" in2="effect2_dropShadow_608_28086" result="effect3_dropShadow_608_28086"/>
<feColorMatrix in="SourceAlpha" type="matrix" values="0 0 0 0 0 0 0 0 0 0 0 0 0 0 0 0 0 0 127 0" result="hardAlpha"/>
<feOffset dx="74" dy="151"/>
<feGaussianBlur stdDeviation="33.5"/>
<feColorMatrix type="matrix" values="0 0 0 0 0.619608 0 0 0 0 0.619608 0 0 0 0 0.619608 0 0 0 0.01 0"/>
<feBlend mode="normal" in2="effect3_dropShadow_608_28086" result="effect4_dropShadow_608_28086"/>
<feBlend mode="normal" in="SourceGraphic" in2="effect4_dropShadow_608_28086" result="shape"/>
</filter>
<linearGradient id="paint0_linear_608_28086" x1="115" y1="14" x2="115" y2="101" gradientUnits="userSpaceOnUse">
<stop stop-color="#082072"/>
<stop offset="1" stop-color="#2B46A8"/>
</linearGradient>
</defs>
</svg>
