<svg width="14" height="16" viewBox="0 0 14 16" fill="none" xmlns="http://www.w3.org/2000/svg">
<path d="M13.7729 13.5947L11.6785 9.9952C12.0409 9.88464 12.427 9.78701 12.5874 9.51002C12.8548 9.04849 12.3789 8.29138 12.5039 7.79669C12.6326 7.28756 13.3924 6.847 13.3924 6.32948C13.3924 5.82527 12.6068 5.23623 12.478 4.73008C12.3522 4.23548 12.8267 3.47755 12.5585 3.01658C12.2903 2.55557 11.3969 2.59345 11.0292 2.23958C10.6508 1.87543 10.6519 0.984456 10.1956 0.740417C9.73732 0.495471 8.99258 0.990509 8.48379 0.873246C7.98079 0.757323 7.53142 0 7.00602 0C6.47285 0 5.62481 0.859064 5.49181 0.889979C4.98328 1.00819 4.23759 0.514366 3.77982 0.76035C3.32387 1.00521 3.32668 1.89627 2.94899 2.26103C2.58185 2.61554 1.68846 2.57931 1.42107 3.04084C1.15373 3.50228 1.62961 4.25921 1.50469 4.75417C1.37943 5.25037 0.593095 5.75315 0.593095 6.32701C0.593095 6.84458 1.35487 7.28375 1.48437 7.79263C1.61024 8.28723 1.13578 9.04508 1.40399 9.50621C1.55001 9.75721 1.8813 9.86025 2.21216 9.95931C2.25078 9.97086 2.32381 10.0141 2.27434 10.0861L0.22613 13.6211C0.0811939 13.8712 0.198889 14.0856 0.487593 14.0977L1.90076 14.1567C2.18946 14.1688 2.55163 14.3786 2.70573 14.623L3.45981 15.8196C3.61391 16.064 3.85843 16.0595 4.00332 15.8094C4.00332 15.8094 6.11323 12.1667 6.1141 12.1657C6.15643 12.1162 6.19898 12.1264 6.21934 12.1437C6.45019 12.3402 6.77202 12.5363 7.04061 12.5363C7.30402 12.5363 7.54793 12.3517 7.7892 12.1459C7.80883 12.1292 7.85661 12.0949 7.89155 12.166C7.89211 12.1672 9.99969 15.7899 9.99969 15.7899C10.145 16.0396 10.3895 16.0439 10.5432 15.7992L11.2951 14.6011C11.4488 14.3565 11.8106 14.1459 12.0993 14.1333L13.5123 14.0718C13.8009 14.0591 13.9182 13.8444 13.7729 13.5947ZM9.34147 10.3181C7.779 11.2271 5.90353 11.1297 4.47103 10.2261C2.37202 8.88159 1.68137 6.10031 2.9432 3.92243C4.21943 1.71942 7.02488 0.942082 9.24773 2.15272C9.2594 2.15907 9.27095 2.16565 9.28253 2.17213C9.29901 2.18126 9.31544 2.19051 9.33183 2.19985C10.0176 2.59522 10.6123 3.16904 11.0381 3.90094C12.3395 6.13793 11.5784 9.01667 9.34147 10.3181Z" fill="white"/>
<path d="M8.9826 2.85785C8.97611 2.85409 8.96954 2.85059 8.96306 2.84687C7.77564 2.15964 6.2622 2.10939 4.9938 2.84735C3.11154 3.94241 2.47104 6.36459 3.5661 8.2468C3.90025 8.82119 4.35815 9.27969 4.88644 9.60873C4.93149 9.63741 4.9771 9.66519 5.02324 9.69205C6.90754 10.7837 9.32842 10.1388 10.42 8.25463C11.5116 6.37034 10.8669 3.9495 8.9826 2.85785ZM9.45399 5.93821L8.79421 6.5813C8.58986 6.78046 8.46214 7.17358 8.51044 7.45485L8.66618 8.3629C8.71443 8.64417 8.54727 8.76562 8.29467 8.63284L7.47915 8.20409C7.22655 8.0713 6.81323 8.0713 6.56063 8.20409L5.74516 8.63284C5.49256 8.76562 5.32535 8.64417 5.37361 8.3629L5.52935 7.45485C5.57761 7.17358 5.44988 6.78046 5.24553 6.5813L4.5858 5.93821C4.38141 5.73905 4.44532 5.54249 4.72771 5.50142L5.63944 5.36893C5.92183 5.3279 6.25624 5.08494 6.38254 4.82906L6.79028 4.0029C6.91657 3.74701 7.12326 3.74701 7.24951 4.0029L7.65729 4.82906C7.78359 5.08494 8.11796 5.3279 8.40039 5.36893L9.31212 5.50142C9.59447 5.54249 9.65833 5.73905 9.45399 5.93821Z" fill="white"/>
</svg>
