<svg width="16" height="16" viewBox="0 0 16 16" fill="none" xmlns="http://www.w3.org/2000/svg">
<path d="M1.15691 0C0.850549 0.00157868 0.557174 0.127702 0.340543 0.35096C0.123912 0.574217 0.00153182 0.876566 0 1.1923V14.6995C0 15.3542 0.523085 15.8918 1.15691 15.8918H10.351C9.84323 15.5162 9.42884 15.0222 9.14161 14.4502L9.14015 14.4472C8.80719 13.7941 8.64923 13.0614 8.68252 12.3244C8.71582 11.5875 8.93917 10.873 9.32957 10.2546C9.68879 9.68178 10.1788 9.2084 10.7567 8.87593C11.3346 8.54347 11.9827 8.36205 12.6444 8.34757H12.6473C12.8017 8.34456 12.9547 8.35057 13.1077 8.36559V4.76768H9.63992C9.33331 4.76649 9.03956 4.64055 8.82262 4.41725C8.60567 4.19395 8.48309 3.89137 8.48156 3.57538V0H1.15691ZM9.25235 0.232753V3.57538C9.25235 3.80063 9.42136 3.97332 9.63847 3.97332H12.8819L9.25235 0.232753ZM3.27839 3.97181H6.7462C6.8486 3.97181 6.94682 4.01374 7.01923 4.08837C7.09164 4.16299 7.13232 4.26421 7.13232 4.36975C7.13232 4.47502 7.09184 4.57601 7.01974 4.6506C6.94765 4.72518 6.84981 4.76728 6.74766 4.76768H3.27693C3.17478 4.76728 3.07694 4.72518 3.00485 4.6506C2.93275 4.57601 2.89227 4.47502 2.89227 4.36975C2.89265 4.26473 2.9333 4.16412 3.00536 4.08986C3.07741 4.0156 3.17503 3.97371 3.27693 3.97332L3.27839 3.97181ZM3.27839 6.3564H9.63847C9.74087 6.3564 9.83908 6.39833 9.9115 6.47296C9.98391 6.54758 10.0246 6.6488 10.0246 6.75434C10.0242 6.85961 9.98335 6.96044 9.91098 7.03475C9.83861 7.10905 9.74062 7.15077 9.63847 7.15077H3.27693C3.17503 7.15037 3.07741 7.10848 3.00536 7.03422C2.9333 6.95996 2.89265 6.85935 2.89227 6.75434C2.89227 6.64906 2.93275 6.54807 3.00485 6.47349C3.07694 6.3989 3.17624 6.3568 3.27839 6.3564ZM3.27839 8.74099H8.09544C8.19734 8.74139 8.29496 8.78328 8.36701 8.85754C8.43907 8.9318 8.47972 9.03241 8.4801 9.13742C8.4801 9.2427 8.43962 9.34369 8.36753 9.41828C8.29543 9.49286 8.19759 9.53496 8.09544 9.53536H3.27693C3.17478 9.53496 3.07694 9.49286 3.00485 9.41828C2.93275 9.34369 2.89227 9.2427 2.89227 9.13742C2.89265 9.03241 2.9333 8.9318 3.00536 8.85754C3.07741 8.78328 3.17649 8.74139 3.27839 8.74099ZM12.7231 9.13742C11.8539 9.13862 11.0207 9.49497 10.4062 10.1283C9.79161 10.7617 9.44583 11.6204 9.44468 12.5161C9.4466 13.4113 9.79272 14.2692 10.4072 14.9019C11.0217 15.5346 11.8544 15.8906 12.7231 15.8918C13.5917 15.8902 14.4243 15.5339 15.0385 14.9009C15.6527 14.2679 15.9985 13.4098 16 12.5146C15.9985 11.6191 15.6525 10.7608 15.038 10.1278C14.4235 9.49476 13.5905 9.13862 12.7216 9.13742H12.7231ZM12.7231 10.7772C12.825 10.7776 12.9226 10.8195 12.9946 10.8938C13.0667 10.968 13.1073 11.0686 13.1077 11.1736C13.1077 11.2789 13.0673 11.3799 12.9952 11.4545C12.9231 11.5291 12.8252 11.5712 12.7231 11.5716C12.6724 11.5716 12.6222 11.5613 12.5753 11.5413C12.5285 11.5213 12.4859 11.492 12.45 11.455C12.4142 11.4181 12.3857 11.3742 12.3663 11.3259C12.3469 11.2776 12.3369 11.2259 12.3369 11.1736C12.3373 11.0684 12.3782 10.9675 12.4506 10.8932C12.5229 10.8189 12.6209 10.7772 12.7231 10.7772ZM3.27693 11.1241H7.32611C7.42826 11.1245 7.5261 11.1666 7.5982 11.2412C7.67029 11.3157 7.71077 11.4167 7.71077 11.522C7.71039 11.627 7.66974 11.7276 7.59768 11.8019C7.52563 11.8762 7.42801 11.918 7.32611 11.9184H3.27693C3.17503 11.918 3.07741 11.8762 3.00536 11.8019C2.9333 11.7276 2.89265 11.627 2.89227 11.522C2.89227 11.4167 2.93275 11.3157 3.00485 11.2412C3.07694 11.1666 3.17478 11.1245 3.27693 11.1241ZM12.7231 11.8689C12.8252 11.8693 12.9231 11.9114 12.9952 11.986C13.0673 12.0606 13.1077 12.1615 13.1077 12.2668V13.8555C13.1077 13.9608 13.0673 14.0618 12.9952 14.1364C12.9231 14.211 12.8252 14.2531 12.7231 14.2535C12.6207 14.2535 12.5225 14.2116 12.45 14.1369C12.3776 14.0623 12.3369 13.9611 12.3369 13.8555V12.2668C12.3369 12.1613 12.3776 12.0601 12.45 11.9854C12.5225 11.9108 12.6207 11.8689 12.7231 11.8689Z" fill="#2B46A8"/>
</svg>
