<svg width="16" height="16" viewBox="0 0 16 16" fill="none" xmlns="http://www.w3.org/2000/svg">
<path d="M6.24038 9.02763H2.88793C2.56973 9.02763 2.31972 8.77762 2.31972 8.45942C2.31972 8.1469 2.56973 7.89121 2.88793 7.89121H5.56989C5.41079 7.55028 5.28578 7.19231 5.19487 6.81729H2.88793C2.56973 6.81729 2.31972 6.5616 2.31972 6.24908C2.31972 5.93656 2.56973 5.68087 2.88793 5.68087H5.03009C5.02441 5.58427 5.02441 5.49336 5.02441 5.39676C5.02441 4.72059 5.13805 4.07283 5.3426 3.46484H2.09244C0.961695 3.46484 0.046875 4.38535 0.046875 5.5104V11.4084C0.046999 11.913 0.234087 12.3995 0.572002 12.7742C0.909916 13.1488 1.37468 13.385 1.87652 13.437V14.6359C1.87606 14.7494 1.8981 14.8619 1.94134 14.9669C1.98459 15.0719 2.04819 15.1673 2.12848 15.2476C2.20877 15.3279 2.30416 15.3915 2.40915 15.4347C2.51414 15.478 2.62665 15.5 2.7402 15.4996C2.93339 15.4996 3.1209 15.4371 3.27432 15.3121L4.55279 14.3063C5.25311 13.7518 6.11989 13.4496 7.01315 13.4483H10.9452C12.0702 13.4483 12.9907 12.5335 12.9907 11.4084V11.113C11.7893 11.52 10.49 11.5375 9.27796 11.1631C8.06593 10.7887 7.00294 10.0414 6.24038 9.02763ZM6.5188 11.2437H2.88793C2.56973 11.2437 2.31972 10.988 2.31972 10.6754C2.31972 10.3629 2.56973 10.1072 2.88793 10.1072H6.5188C6.83132 10.1072 7.08701 10.3629 7.08701 10.6754C7.08701 10.988 6.83132 11.2437 6.5188 11.2437Z" fill="white"/>
<path d="M11.0542 0.5C8.34955 0.5 6.15625 2.69898 6.15625 5.39798C6.15625 6.69701 6.67229 7.94283 7.59084 8.86138C8.50939 9.77993 9.75521 10.296 11.0542 10.296C13.7532 10.296 15.9522 8.10267 15.9522 5.39798C15.9522 2.69898 13.7532 0.5 11.0542 0.5ZM11.0486 8.55155C10.736 8.55155 10.4803 8.29586 10.4803 7.98334C10.4803 7.67083 10.7304 7.41513 11.0429 7.41513H11.0486C11.3611 7.41513 11.6168 7.67083 11.6168 7.98334C11.6168 8.29586 11.3611 8.55155 11.0486 8.55155ZM11.6224 5.92642V6.27303C11.6224 6.58554 11.3667 6.84124 11.0542 6.84124C10.7417 6.84124 10.486 6.58554 10.486 6.27303V5.46617C10.486 5.15365 10.7417 4.89796 11.0542 4.89796C11.3213 4.89796 11.5429 4.68204 11.5429 4.40929C11.5429 4.14224 11.3213 3.92631 11.0542 3.92631C10.7872 3.92631 10.5656 4.14224 10.5656 4.40929C10.5656 4.72749 10.3099 4.97751 9.99736 4.97751C9.68484 4.97751 9.42915 4.72749 9.42915 4.40929C9.42915 3.5172 10.1565 2.78989 11.0542 2.78989C11.9463 2.78989 12.6793 3.5172 12.6793 4.40929C12.6793 5.10819 12.2361 5.69345 11.6224 5.92642Z" fill="white"/>
</svg>
