<svg width="391" height="103" viewBox="0 0 391 103" fill="none" xmlns="http://www.w3.org/2000/svg">
<path fill-rule="evenodd" clip-rule="evenodd" d="M399 100.424C399 97.8872 399.898 95.4479 401.354 93.3698C408.063 83.7942 412 72.1342 412 59.5547C412 26.9699 385.585 0.554688 353 0.554688C331.609 0.554688 312.876 11.9387 302.531 28.979C297.34 37.5287 288.949 44.5547 278.947 44.5547H12C5.37259 44.5547 0 49.9273 0 56.5547V89.5547C0 101.705 9.84976 111.555 22 111.555H319.562C323.198 111.555 326.746 112.531 330.096 113.944C337.138 116.913 344.877 118.555 353 118.555C361.796 118.555 370.142 116.63 377.641 113.178C379.812 112.179 382.15 111.555 384.54 111.555H387.87C394.017 111.555 399 106.572 399 100.424Z" fill="url(#paint0_linear_970_4115)"/>
<defs>
<linearGradient id="paint0_linear_970_4115" x1="206" y1="0.554687" x2="206" y2="118.555" gradientUnits="userSpaceOnUse">
<stop stop-color="#082072"/>
<stop offset="1" stop-color="#2B46A8"/>
</linearGradient>
</defs>
</svg>
