<svg xmlns="http://www.w3.org/2000/svg" width="276" height="73" fill="none" xmlns:v="https://vecta.io/nano"><path d="M.313 47.843c0-11.289 9.152-20.441 20.441-20.441h199.294c11.289 0 20.44 9.152 20.44 20.441s-9.151 20.441-20.44 20.441H20.753C9.464 68.284.313 59.132.313 47.843z" fill="url(#A)"/><path fill-rule="evenodd" d="M264.568 64.609c0-1.017.428-1.982 1.139-2.709C272.07 55.394 276 46.439 276 36.555c0-19.882-15.9-36-35.515-36-10.493 0-19.924 4.613-26.425 11.948-6.653 7.505-14.937 14.899-24.967 14.899h-152.7c-6.627 0-12 5.373-12 12v6.881c0 12.15 9.85 22 22 22h171.694c3.678 0 7.251 1.056 10.72 2.279 3.657 1.29 7.587 1.992 11.678 1.992 5.549 0 10.801-1.29 15.48-3.59.871-.428 1.823-.681 2.794-.681h2.133c2.03 0 3.676-1.645 3.676-3.675z" fill="url(#B)"/><path opacity=".8" d="M252.673 9l-.212-.117-.195-.115.117.061.02.011.005.004.298.165.038.02.103.063v.004L252.673 9zm-1.047-.554l-.281-.141.173.084.064.03.314.16-.272-.134m-.568-.277l-.201-.1-.134-.058-.422-.19-.106-.05.293.128-.055-.026.144.067.046.019.12.056-.012-.006.268.125.028.011.318.162-.289-.138m15.584 18.975l-.104-.437.12.411v.02a.06.06 0 0 1-.011.03l-.005-.024zm-.287-1.039l-.146-.53-.335-.958-.093-.29-.278-.716c.316.735.426 1.086.708 1.965l.21.721-.064-.192m-10.679-15.187l-1.095-.759-.036-.026 1.137.788zm-1.38-.948l-.036-.026c-.016-.012-.025-.019-.028-.019l-.005-.007.208.136.11.078-.251-.162m.143.086h-.005l.009.004zm-.084-.046l1.323.909-1.323-.909zm13.177 22.598v.017.006-.022zm-.004-.035l-.007-.099v-.017l.011.152-.004-.035m-.018-.251c0-.013 0-.026-.002-.039l-.007-.136.014.205-.005-.028m-.221-1.967l-.031-.288.058.405.031.253v.02l-.056-.39m-.644-3.191c.011-.017.013-.033.009-.05l.075.35-.084-.299zm-46.682-14.533l-.612.56.612-.56zm8.009-.694l.08-.115.121-.205-.178-.024-.281.121-.137.292.25-.007.143-.061m-.455-.372l.02-.015.064-.112c-.046.022-.092.056-.139.078-.017.009-.048.018-.092.028-.029.008-.073.021-.244.106l-.123.059c.013.028 0 .063.033.082.011.006.066 0 .093-.009.174-.048.309-.154.391-.216m4.953-4.059l.263-.058v-.132l-.261-.009-.196.006-.204.154-.132.123.294.009.234-.093m21.211 2.086l-.287-.169-.051-.017.176.108.371.232.027.007c-.038-.03-.082-.052-.12-.08h.005l-.121-.08m-1.306-.773l-.3-.16.159.086-.168-.089-.019-.011.112.061-.037-.019-.603-.314.011.007-.502-.245 1.242.625.114.061-.009-.006m.33.184l-.082-.045-.04-.022-.17-.093.3.165-.008-.006zm-8.571-3.051a2.65 2.65 0 0 0-.239-.046l.038.009h-.02l-.355-.073c.075.02.156.024.231.054l-.066-.013-.156-.033-.04-.009-.084-.017c.028.009.057.011.082.019h-.005l-.048-.009h-.029l.417.087c-.172-.03-.335-.104-.512-.091a4.34 4.34 0 0 0 .346.074h.016a.42.42 0 0 0 .084.017l-.029-.011c.04.002.146.026.215.043l-.084-.006.169.041.182.037h.061c.08.009.153.069.239.045-.047-.017-.099-.026-.146-.041.04.006.078.02.119.022-.108-.039-.223-.05-.329-.084h.003l-.056-.015m.018.071l-.037-.009.039.011m1.826.452l-.074-.026-.488-.132-.087-.009-.539-.147-.375-.084.055.02s-.035-.004-.135-.026l-.183-.048c-.198-.017-.384-.087-.576-.119h-.011l.199.05.072.019.34.091c-.018 0-.093-.017-.227-.052l-.071-.019-.075-.019a.66.66 0 0 0-.072-.019c-.08-.021-.136-.033-.168-.035l.181.056h-.038l-.119-.032-.164-.046a.73.73 0 0 0 .104.033c-.022 0-.05 0-.077-.004l.005.013.923.255c-.133-.032-.254-.095-.389-.1l.53.149c-.01-.007-.074-.03-.194-.069.119.002.22.08.338.084h.024l.017.004-.251-.095-.113-.035.013-.004.281.082.057.004-.079-.03.066.017.188.056.057.019c-.007 0-.021-.001-.04-.004l-.026-.004-.058-.009.025.017c-.007.002-.022.003-.044.002.005.012.03.026.075.041l.159.056.011-.009h.022c.075.017.079.017.095.015-.012-.015-.012-.015-.084-.048h.006c.078.011.08.011.235.091v.006c-.034-.006-.069-.011-.106-.013.021.037.282.113.333.117.062 0 .183.043.55.169v-.007l-.546-.236.014-.007-.351-.119.028.004c-.031-.02-.038-.026-.444-.145.033.004.067.004.098.006l.956.303h.033c-.04-.024-.088-.039-.13-.059.033.004.075.017.3.095l.04.004c-.009-.006-.061-.026-.155-.059a.57.57 0 0 1 .075.004l-.011-.009m21.242 23.497a28.9 28.9 0 0 0-.596-2.891c-.054-.069-.221-.14-.508-.214-.373-.095-.926-.184-1.643-.273 0 .004.057.435.028.536l-.008.045-.011.032h-.018c-.031 0-.067.013-.089.032h-.024l-.017.009-.014.02-.037.035-.036-.045-.031-.052c-.039-.037-.046-.037-.053-.037 0 0-.134-.032-.181-.076h-.024l-.022-.005.004.054a.62.62 0 0 0 .181.125c.047.048.053.08.06.111l.011.058.066.132.029.134.013.045.007.058c.042.234.172.435.252.656.104.243.11.253.177.342l.055.013.051-.009c.021-.073-.003-.145.015-.218l.042.074.556 1.51.009.073c.009.543.342.982.46 1.489.063.283-.043.58.084.853.117.253.198.476.236.658l.017.074.294 1.958-.044.892c.002.141.055.368.091.431.031.006.074.006.106.002.059-.126.059-.273.123-.398.073-.024.11-.015.144-.006h.009l.01.052.056-.158c.031-.171.077-.362.236-.454l.029-.175a10.05 10.05 0 0 1 .143-.589l.056.048.015-.55.026.024.003-.426-.162-2.67.003.054-.056-.43-.064-.509-.028-.152.084.831-.029-.041-.011-.007c-.007-.03-.022-.071-.029-.099l-.015-.017-.002.279a1.06 1.06 0 0 1-.091-.483v-.052l.02-.034a.31.31 0 0 0 .048.091c.012-.061.016-.078-.02-.212l-.008-.007-.027.007c-.037-.054-.042-.128-.112-.162-.018-.026-.023-.028-.029-.032l-.069-.48c-.147-.595-.433-1.151-.446-1.779.042.013.131.045.334.878.132.543.254.792.3.883l.016.019.008.006.007-.048c0-.028.004-.026.004-.024a1.71 1.71 0 0 1 .04.165l.003.021m-.603-2.886a29.07 29.07 0 0 0-5.121-10.474l.688.928c.578.818 1.346 2.098 2.302 3.84.451.905 1.019 2.304 1.704 4.197l.446 1.541-.019-.034m-10.658-13.359l.21.017-.053-.019h-.026l-.007-.002a.51.51 0 0 1-.078-.054l-.052-.063-.018-.005h-.027l-.028-.002-.014.019v.017l.042.059.016.011.033.022m-4.902-4.847l-.316-.197-.011-.006h-.002l-.003.007-.05-.006.037.022.265.169.08.007m5.114 4.868l2.944.374c.199.05.32.1.368.149l-.139-.145-3.33-2.943-1.592-1.121-.007-.004-.552-.351.261.169.108.08.016.017c.218.195.527.273.688.539l.011.015-.573-.377h.039l-.238-.16-.117-.067-.221-.138h-.022a1.86 1.86 0 0 0-.133-.073c-.024 0-.033-.004-.039-.004.035.033.09.069.145.106.029.011.066.028.091.041l.452.303.298.21.222.141.053.037c.112.099.236.179.355.266l-.095-.043-.108-.076-.086-.058-.04.022.287.301v.024l.568.418-.007-.006c-.06-.009-.08-.015-.144-.046l-.02-.004c-.088-.039-.24-.102-.479-.277.142.193.175.208.336.292a1.56 1.56 0 0 0 .115.091c.035.024.042.026.051.026.075.007.168.063.28.167-.007.026-.042.022-.077.017l.042.041c-.214-.037-.643-.394-.804-.528a.22.22 0 0 0-.099-.032l-.223-.178c-.371-.303-.813-.487-1.195-.772a14.94 14.94 0 0 1 .707.337c.081.02.127.026.172.032.092.039.176.095.271.124l.036.006.019.004c-.008-.028-.013-.069-.013-.099-.51-.506-1.375-.881-1.541-.952l-.177-.091c-.11-.059-.124-.061-.185-.071-.023.015-.027.015-.031.013l-.296-.152-.057-.007.17.115c-.023 0-.031-.002-.04-.002-.04-.02-.114-.068-.223-.143l-.051-.033c-.067-.03-.161-.082-.281-.156l-.059-.006.04.041c-.012-.001-.109-.033-.292-.097a1 1 0 0 1-.113-.061h.047l-.126-.087c-.323-.173-.521-.208-.523-.208l.212.13c-.087-.024-.137-.054-.186-.084a.74.74 0 0 1-.08-.059l-.09-.058-.15-.015.265.167s.066.043.09.056l.049.028-.018.004c-.183-.125-.196-.13-.316-.19l-.077-.015-.176-.108-.045-.011.011.007.033.033-.043.022c.053.046.117.086.172.132l-.005.022c-.033-.011-.09-.026-.188-.1-.055-.033-.083-.035-.11-.037l-.026.041c.066.087.194.152.375.195l.159.1-.053-.004c-.075-.037-.159-.043-.238-.067a.43.43 0 0 0-.062-.006l.3.219c-.212-.086-.409-.205-.616-.299-.002.033.038.063.082.089.031.02.313.188.371.286-.064.017-.065.017-.257-.126l.031.045-.035.032.093.078c.066.045.146.059.212.11l.079.059.034.035c-.127-.032-.466-.244-.48-.251.014.048.077.097.141.143h-.101c.005.016.054.058.148.126-.026.013-.062.024-.091.03l.044.082-.019.009a.6.6 0 0 0 .075.095h-.033l.024.041c.035.019.057.02.079.022-.006-.028 0-.067.011-.091h.051l-.008-.046a.23.23 0 0 0 .063-.071c.146.013.175.033.252.106-.029-.004-.066-.006-.093-.006l.034.032-.047.011c.04.097.272.314.298.338l-.053.007s.376.632.453.705l-.053-.046c-.015.073-.019.12-.013.139-.024.013-.053.041-.071.063l.077.089.047.015a.34.34 0 0 1 .11-.006 1.93 1.93 0 0 0 .104.117c-.011.028-.02.067-.024.097l-.047.009c.018.08.013.089-.028.132a1.79 1.79 0 0 0 .075.136l-.036.039-.121-.058a.79.79 0 0 0-.1-.007l.071.099.099.085-.013.052-.05.017h-.023-.015-.002c-.027.031-.046.075-.056.132h-.048l-.011.048c.057.063.168.195-.007.193-.017.024-.031.063-.033.091.08.081.125.134.133.16l-.031.037c.048.117.157.173.227.271 0 .037-.018.035-.033.035l.013.046a2.36 2.36 0 0 0 .091.138 2.89 2.89 0 0 0 .128.007c.135-.028.181.121.185.121l-.026.045.084.134-.04.028c.036.088.136.142.298.162l.089.151-.02.046.852.045-.031-.162.04-.022.046.017c.003-.069-.026-.112-.057-.154.188.026.384.327.388.331l1.363.1.007-.046.046-.009c-.013-.121-.121-.331-.121-.333l-.064-.076c-.084-.093-.102-.113-.272-.098-.126-.141-.318-.212-.426-.376l-.426-.493c0-.173-.177-.255-.208-.411l.051-.006c.009-.05.015-.08-.056-.186.025-.015.06-.024.087-.022-.033-.069-.069-.128-.108-.177l.004-.048.048-.006c-.031-.296-.342-.301-.481-.485l.015-.046c-.066-.089-.158-.175-.192-.21.025-.011.069-.017.096-.009l.028.004h.007.004a6.68 6.68 0 0 1 .256.167l-.017-.048c.066-.004.068-.004.298.158l.218.191-.092-.007c.311.279.344.307.355.413l-.099-.03-.036.034c.251.429.501.767.751 1.015l.084.091c.002.004.627.485.917.595h.02c.004-.032.008-.072.006-.106.069-.015.133.037.201.022l-.02-.089c.091-.021.179-.013.263-.004l-.009-.05.04-.006c.077.052.133.123.216.164l.151.017.073.065.026.043a1.29 1.29 0 0 1-.141.002c0 .051.043.163.128.337-.126-.013-.206-.123-.32-.164l-.032.041c-.036-.001-.084-.011-.145-.03l-.031.035.007.046a.38.38 0 0 1-.093-.037l-.04.028.104.184.011.026m-2.853-.18l-.851-.046.003.007c.005.03.01.048.015.056.018.028.047.041.066.067l.031.05.162.007.041.034c.008.009.052.043.131.102l.075-.03c.064.02.117.069.188.056 0 0 .077-.013.055-.074l.008-.032c.038.002.063-.001.074-.009l.019-.052c0-.028-.024-.048-.024-.076l.004-.058m1.749.11l-1.345-.089c.073.097.193.139.265.236l.023.034.006.072c.014.015.111.141.201.193.112.063.185.115.219.156l.046.067.045.067a.99.99 0 0 0 .324.283.24.24 0 0 1 .108.104c.035.054.035.117.066.171l.022.035c.032.048.076.093.109.139l.335.021c-.092-.161-.13-.262-.116-.303.008-.004.023-.004.046-.002l.05.006c.047.013.078.069.137.054.016-.033-.022-.067.003-.098.013-.013.026-.011.079-.007-.04-.069-.088-.136-.135-.205l.175.011a1.68 1.68 0 0 0-.119-.169c-.027 0-.055-.004-.084-.006-.082.026-.117-.056-.179-.076l-.036-.113c-.063-.178-.212-.305-.275-.483l.017-.019-.009-.061.027-.017m11.541 13.423a29.07 29.07 0 0 0-5.121-10.474l-2.017-2.348c-.048-.048-.168-.098-.368-.149-.524-.132-1.544-.258-2.944-.374l-.21-.017.051.019h.007.008l.066.048a.25.25 0 0 0-.143.071c.104.171.21.19.345.212.017-.045.017-.119-.003-.164.247.034.581.429.583.433-.031.066-.016.142.044.229.016.059-.008.058-.031.056-.026-.009-.131-.091-.317-.247l-.038-.004-.102-.136-.079-.006c.258.64.366.904.658 1.186l.027.069-.396-.086c.027.173.194.236.278.364l-.033.015-.461-.329c-.023.011-.088.123-.195.335l-.174-.004c-.19.221-.391-.128-.457-.244l-.099-.006-.014.08a1.65 1.65 0 0 0-.088-.009l-.135-.019-.084.009a3.99 3.99 0 0 0 .082.158c-.007.054-.04.052-.077.05-.137-.03-.144-.037-.257-.199l-.059-.007-.102-.008-.073-.124-.053-.072c.049-.065.117-.061.181-.058.111.032.208.102.316.138l.053-.065a9.47 9.47 0 0 0-.293-.552c-.069-.056-.098-.058-.129-.058-.048.015-.108.039-.156.058l.022.076c-.016.058-.025.056-.033.056-.045-.026-.144-.076-.144-.27l-.079-.125c-.363.048-.276-.472-.561-.55-.002.011.011.094.04.247a3.26 3.26 0 0 1-.138.076.52.52 0 0 0 .091.132.35.35 0 0 0 .031.048l-.007.08-.068.056c.018.062.183.275.495.64.015.024.026.046.039.071a3.58 3.58 0 0 0 .066.158c.071.098.162.178.237.271a2.75 2.75 0 0 1 .09.164l-.083-.006c-.051.011-.124.02-.179.024l-.067-.004c-.099-.022-.125-.03-.326-.03l-.007.084c-.044.022-.1.065-.132.104.016.099 0 .174-.047.223l-.071-.054a.62.62 0 0 0-.072-.006l-.053-.004c-.023.004-.053.006-.078.007-.009.039.011.087.033.136l.148.078.111.24c-.153-.011-.181.039-.338.327h-.066a1.53 1.53 0 0 1-.16-.008c.027.149.087.299.148.452-.156-.006-.183-.008-.324.041.022.078.051.154.082.232l-.232-.009c-.033-.017-.109-.034-.23-.05-.075-.045-.084-.071-.095-.095-.037-.037-.101-.069-.154-.074-.011.085.015.164.042.24l.077.034.066.182.06.078.035.099c-.43.03-.631-.169-.632-.169-.217.084-.334.14-.351.167l.022.082c.071.058.093.059.115.059.151.177.296.171.358.169l.093.004.479.374c.069.158.113.297.157.437.305.363.817.969.501 1.311 0 .024.004.058.005.082-.104.082-.184.127-.237.136-.022 0-.046-.002-.071-.004-.223-.102-.479-.125-.68-.284l-.691-.037c-.193-.028-.307-.054-.342-.076-.078-.041-.089-.041-.102-.043l-.064.048.018.084c-.137.067-.259.061-.38.058l-.018.082c.221.268.137.666.38.924l.102.515.002.08c-.252.258-.122.472.004.679l.053.067c.029.073.033.102.038.132s.011.059.016.089c-.062.112-.065.145.008.409.08.033.155.035.23.037.219-.048.417.111.636.071.026.026.132.087.318.184.088.108.135.247.25.331l.032-.099-.077-.026c.978-.606 1.769-.892 1.773-.894l-.064-.29a1.02 1.02 0 0 1-.159-.751l.027-.169.168-.004a.51.51 0 0 0 .073-.151c.042-.022.104-.041.154-.045l.02-.078.398-.037c.026-.091.002-.177-.023-.26l-.022-.086c-.134-.335-.132-.5-.132-.502.087-.054.221-.061.404-.02h.015.005.007.004l.333.16.155.009.08-.011c.005-.165.017-.276.035-.335a.55.55 0 0 1 .133-.007c.055.006.187.019.258-.249.448.128.545.64.903.866a.61.61 0 0 1 .201.218c.585.42 1.667 1.201 1.787 1.865-.162.031-.252.09-.27.178-.223.058-.437-.024-.654-.035l.042.106c.219.128.343.377.592.47l.342.021-.09-.335c.088-.061.128-.173.227-.221a9.86 9.86 0 0 0-.05-.349c.033-.035.088-.071.134-.084.014-.043.02-.108.007-.154l-.055-.151a1.34 1.34 0 0 1-.175-.004c-.068-.046-.081-.078-.088-.111l-.016-.078c.058-.047.129-.041.202-.037.172.082.209.132.269.208.013-.18-.106-.314-.159-.474-.391-.125-.68-.545-.683-.549-.227-.015-.351-.234-.556-.296-.082-.255-.327-.376-.462-.586-.028-.009-.048-.011-.064-.013-.109-.201-.226-.3-.353-.298-.044-.072-.071-.143-.099-.216l.024-.078c.027-.071.02-.084.018-.097l-.139-.29c.271-.045 1.318 1.047 1.329 1.058a.34.34 0 0 0 .294.164l.061.099c.184.234.504.292.681.541.269.392.342.879.585 1.285a.77.77 0 0 1 .159.028c.095.145.132.26.166.379l-.126-.009-.02-.084-.078-.026c-.009.143.117.288.314.491l.055-.1c.239.121.226.4.364.584.076.035.113.039.149.041h.081c.019-.138.025-.218.018-.24l-.029-.102c-.024-.043-.048-.11-.048-.16l.064-.046c.037.032.084.074.114.111l.091.006c.022-.076.006-.192-.048-.348.024 0 .057.007.081.009l.025-.076c-.127-.19-.137-.192-.235-.221a1.76 1.76 0 0 1 .082.264c-.06-.011-.197-.035-.68-.788l-.047-.141.007-.084.064.048c.081.083.148.131.201.143l.078.004.046.004c.005-.064-.026-.133-.093-.206.004-.028.004-.063.004-.089.21-.126.325.121.495.154.072.123.118.193.139.21a.47.47 0 0 1 .086.156l-.057.058c.069.245.313.39.36.649.022.046.042.115.053.165.009.037.016.061.026.087a2.4 2.4 0 0 0 .139.24l.031.048.029.024.029.046.044.048.029.034c.033.05.048.132.051.19v.045l.009.058a2.18 2.18 0 0 0 .092.26l.035.046.031.035a.42.42 0 0 0 .005-.141l-.014-.111a3.49 3.49 0 0 0-.059-.18l-.022-.082c0-.05.011-.05.024-.048l.024.011.034.037.026.045.033.037.108.141.036.058.029.046.03.026h.016c.04.009.092.028.117.058l.071.019.013-.02.013-.03-.018-.045-.008-.046c-.039-.099-.057-.177-.056-.234v-.045l.013-.041c.047 0 .109.026.142.058.024.041.06.091.09.128l.106.134.027.046.027.035.022.015.033.026.252.028a2.15 2.15 0 0 0-.049-.158l-.014-.056a1.24 1.24 0 0 1-.053-.177l.049.013.013-.008.027.004a.93.93 0 0 1 .15.158l.058.017.013-.02-.007-.041.007-.034.02.015c.019.035.041.085.066.115l.018.043c.033.108.058.206.073.294.035.279.105.437.13.496l.019.046c.039.078.063.166.073.262l-.01.032.004.047c.015.048.028.111.033.16v.045c-.007.177-.016.276-.027.297l-.01.032-.007.045.007.046 1.653.32c.287.073.453.143.508.214m.901 5.558l-.042-.563v-.006l-.006-.1v-.011l-.106-.948-.007-.011.033.311.162 2.624.01.015v-.191l-.011-.461a1.22 1.22 0 0 0 .005.121l-.038-.779m-.218-2.161l-.058-.407-.602-2.951-.018-.033c.247.946.444 1.911.596 2.891l.075.472.009.03M249.532 13.5l-.008-.017-.082.037c-.029.02-.027.061-.055.086l-.047.013-.006.006.006.059c-.009.037-.044.063-.044.106 0 .032.022.058.033.087l.075.035.043-.032s.004-.007.008-.043l.007-.037v-.037l.017-.011c.049.002.096.006.1-.013l-.011-.028-.018-.035.011-.063v-.017l-.029-.097zm3.657 3.034a1.5 1.5 0 0 0-.077-.152c-.137-.082-.22-.229-.351-.314l-.048.026c.019.025.019.081.002.169-.038.02-.142-.115-.312-.403l-.174-.009c-.062-.177-.111-.268-.111-.268-.075-.093-.2-.119-.28-.201l-.068-.021c-.051-.102-.184-.124-.223-.234-.027-.069-.23-.279-.345-.284-.197-.008-.373-.072-.272-.231-.013-.033-.018-.056-.017-.067a.64.64 0 0 0 .104-.009c-.011-.022-.02-.046-.042-.085-.044-.076.053-.138.02-.212l-.138-.27-.554-.037c-.003-.038.005-.065.024-.08.003-.063-.061-.101-.061-.162 0 0 .059-.112.062-.136-.06-.054-.065-.058-.109-.063l-.055.004h-.093c-.02.009-.053.026-.242-.006l-.014.013c.042.078.042.167.064.251.027.084.08.152.113.232-.11.009-.197-.063-.3-.076-.159-.019.02.219.026.232.057.074.166.035.227.106v.048a.96.96 0 0 1 .038.086c.007.069.095.108.068.19-.109.027-.134.092-.075.195h.133c.011-.013.026-.035.214.117a2.53 2.53 0 0 1 .121.004c-.022-.056-.033-.101-.032-.136 0 0 .264.247.24.355-.15.013-.073.091.013.182l.303.011v-.069c.201.106.249.372.459.468.02.097.041.157.06.18.086.098.097.134.059.18l-.185-.009c-.06-.015-.112-.061-.177-.061h-.041l-.049-.006c-.005.009-.011.033-.02.072l-.007.076c-.035-.006-.07-.006-.106-.009l.013.072c.12.071.36-.006.369.195-.02 0-.041 0-.07.004-.027.034-.038.071-.034.112-.021.019-.028.026-.083.021h-.007-.006-.01-.006-.015c.063.303.194.217.249.18.024-.015.501.067.503.069.025.009.091.106.034.152-.093.071-.208-.008-.299.058-.006.026 0 .05-.01.076-.032.001-.09.011-.173.028.039.099.061.174.066.225-.063.074-.081.08-.158.108.072.041.16.044.264.009l.056-.054-.007-.056c.06.004.108.043.161.059l.19.009c-.059-.164-.057-.171-.04-.201.488.087.482.017.473-.08l.015-.019c.117.013.19.123.303.143h.038c.079-.032.163.026.24-.013.036-.017.033-.059.027-.115.053-.024.119.015.168-.037-.022-.115-.129-.169-.184-.262l-.019-.05c-.01-.025-.013-.047-.007-.065.035-.011.07-.004.106-.009l-.036-.147.12.005m-2.642-1.082c-.024-.1-.123-.132-.174-.206-.028-.043-.035-.102-.075-.139-.009-.009-.029-.03-.082-.056-.024-.011-.05.005-.072-.008s-.045-.041-.074-.05h-.032c-.045 0-.122.041-.129.046v.069l-.053.032c-.073-.045-.13-.113-.21-.145-.043-.015-.101.007-.143.011.051.115.071.24.13.351h-.026-.014l-.044.032c-.026.007-.05-.008-.075 0l-.026.015c-.024.017-.057.043-.091.021-.047-.03-.089-.041-.126-.034l.181.508a1.25 1.25 0 0 0 .219.008 7.64 7.64 0 0 1 .078.227l-.157.011c-.062.106.05.195.03.299-.057.03-.081.045-.024.147.04.074.173.117.173.117.059.019.095-.045.152-.045 0 0 .077 0 .155.052.059-.004.112-.084.117-.095l-.014-.084c-.011-.035.033-.037.042-.061l.554.019c-.015-.033-.026-.071-.039-.104-.027-.059-.097-.091-.106-.164.044-.032.063-.065.057-.097-.013-.056-.051-.184-.168-.431l-.057-.143c.119.007.132-.058.121-.108m12.764 33.755l.047-.082c.585-1.039.576-1.091.556-1.231-.051.102-.279.457-.682 1.065-.206.015-.153.26-.283.34-.122-.032-.353.2-.693.695-.221.325-.29.749-.616 1.01l-.018-.02-.598.753-.055.076-.243.379-.111.149-.309.426.017.022c.029.004.062 0 .091.004-.045.073-.068.117-.068.13l.022.015v.03c.483-.123 2.489-3.059 2.509-3.088l.099-.16.09-.162.045-.082.198-.271m3.798-11.455c.012-.126.027-.255-.081-.344l-.064.166a2.69 2.69 0 0 0-.175.05c-.015-.004-.03-.007-.187.013a3.15 3.15 0 0 1-.1-.126l-.046-.708c0-1.242-.795-2.324-.704-3.585l-.009-.257c0-.034-.458-3.749-1.937-5.805-.015 0-.027-.002-.117.032l-.1.132-.042-.006c-.761-.337-1.388-.965-2.256-1.067l.218 1.125-.156.033c-.034 0-.069-.004-.193-.007-.157-.151-.251-.374-.474-.454l-.581-.063c-.051-.097-.066-.249-.137-.331-.342-.411-.899-.411-1.305-.707-.449-.329-.139-.978-.533-1.329l-.013-.177c.082-.043.177-.143.212-.23a2.43 2.43 0 0 0-.452-.257c-.242.063-.575.107-.998.13-.058.074-.162.158-.248.193-.246-.219-.599-.288-1.058-.206l-.082.156c-.231-.011-.465-.02-.73.099a.9.9 0 0 1-.076.316c-.205.048-.428-.013-.624.1-.025 0-.047 0-.16-.02l-.176-.037h-.121c-.387.006-.471-.067-.623-.206l-.166-.097c-.143.257-.026.55-.104.814a1.72 1.72 0 0 1-.503-.007l.099.753c-.196-.007-.393-.013-.589.076l-.022 1.246.028.329c-.163-.006-.325-.011-.488.071-.028.563-.428.71-.665.749-.156.024-.861 1.79-.865 1.807l-.155-.011-.156.032a2.92 2.92 0 0 1-.153.097c.062.971-.062 1.021-.435 1.166l-.057.16c.002.115.004.231.095.361.446.086.692.172.737.259-.12.245-.18.78-.181 1.605l-.004.199c.003.1-.113.27-.347.509.017.236.106.457.144.69l-.005.357c0 .008.678 1.197 1.332 1.549-.031.284-.113 1.045.912 1.117.689 1.374.733 1.456 1.367 1.368.059-.089.115-.221.145-.325.208-.087.431.015.641-.041l.099.004.493.009c.089.135.428.203 1.016.203.273-.558.501-.506 1.006-.392.022 0 .045.002.098-.009.006-.006.428-.45.788-.149.038.506.158.804.36.894l1.153.063-.098.608c-.099.258-.282.849-.551 1.774-.085.024-.19.106-.233.184.045.084.149.173.237.208.102.258 0 .58.241.796-.082.799.348 1.614-.065 2.406a5.5 5.5 0 0 0-.101.312c-.015.1.011.244.055.335l-1.192 2.004c-.745.521-.59 2.244-.583 2.257-.254.487-.272.712-.283.809l-.468.811c-.007.015-.868 2.267-.987 2.614l-.091.104c-.183.095-.297.213-.342.353.026 0 .053.004-.007.106l-.112.132.028.167c.12.009.239.019.464-.002.095-.039.227-.08.327-.106a1.29 1.29 0 0 0 .523-.041c1.328-1.277 2.999-2.114 4.318-3.403l3.027-3.775.195-.376c.042-.089.094-.212.125-.307l.479-1.047c.067-.617.431-1.138.55-1.739l.047-.125c.494-1.16 1.336-2.116 1.824-3.276.657-1.556 1.053-2.841 1.188-3.856m-26.003 6.822s-.037-.95-.495-1.155c-.146 0-.293-.004-.437-.006-.459-.141-.71-.35-.751-.627-.29-.188-.537-.252-.74-.191-.185 0-.37-.004-.607-.008-.395-.161-.649-.218-.762-.169l-.002.164c-.124.076-.194.117-.49-.039l-.011-.136.223-.147c-.183-.152-.566-.422-1.075-.515-.031 0-.062 0-.206-.054a.63.63 0 0 0-.534-.089l.015.441h-.386c0-.061-.003-.123.008-.255l.164-.208.113-.087-.075-.127-.519-.186h-.102c-.027 0-.057 0-.205.024.021.314.028.457-.36.398v-.234l-.007-.139c.161.006.207.008.393-.076.106-.535.015-.749-.022-.831-.08 0-.188 0-.27-.004-.01-.171-.015-.342-.063-.591-.043-.171-.146-.318-.204-.483-.481-.119-.525-.251-.567-.379l-.742-.307c-.236-.117-.462.039-.694.026h-.163c-1.12-.221-1.117-.681-1.117-.878l-.584-.329c-.002-.034-.002-.065-.127-.114-.219-.145-.219-.169-.212-.448-.029 0-.06 0-.159.017-.133.041-.259.102-.396.132-.073-.069-.118-.2-.134-.39l.138-.041a2.93 2.93 0 0 0 .021-.13c-.136-.074-.259-.123-.369-.147l-.195.173c-.017 0-.031 0-.114-.035-.073-.028-.175-.05-.254-.054-.12.139-.142.335-.254.48-.044 0-.102-.002-.148-.002-.201-.333-.206-.335-.515-.396-.148.002-.294.004-.49-.017-.077-.028-.181-.058-.263-.074-.002-.099-.006-.195-.121-.292-.208-.061-.373-.217-.585-.268l-.111.078c-.001.012-.168.198-.499.558l.113.706-.096.093c-.139-.236-.541-1.045.116-1.597l-.04-.1a1.61 1.61 0 0 0-.226.015c-.242.082-.242.108-.216.415l-.464.009c-.366.259-.647.389-.845.391a6.33 6.33 0 0 1 .011.591c-.068.074-.188.139-.36.195-.001.398-.55.621-.338 1.088l.126.021c.024.396.512.829.084 1.186-.032.482-.129.738-.29.768a8.04 8.04 0 0 0 .08.333 3.24 3.24 0 0 0-.195.167l-.009.197c-.267.099-.275.225-.225.565-.101.004-.203.006-.293.048.077.271.057.558.15.824.126.043.258-.006.384.013l.031.193-.06.121c-.075.02-.168.076-.221.134.042.279-.163.576.049.846a1.14 1.14 0 0 0 .026.119c.168.809 1.127.985 1.348 1.753l.059.212c.199.264.254.617.504.852.486.45.468 1.543 1.389 1.421.852-.115.905 1.082 1.698 1.067l.252.867a.95.95 0 0 0 .068.26l-.004.039c.009.026.017.052.059.153l.06.117c.004.015.009.028.009.141.007.084.037.193.07.268l-.006.024c.007.032.02.063.079.154a2.33 2.33 0 0 0 .051.13l.015.045c.009.024.018.05.016.197a1.13 1.13 0 0 0 .137.242l.027.076.028.085c.038.268-.024.545.08.805.056.161.118.521.187 1.08.007.015.016.03.065.113.541.905.724 1.21.6 1.646.02.043.044.085.11.188l.056.123c.049.063.068.26.057.589.322.316.367.807.696 1.117.23.203.167.601.483.746l.139-.004-.32-.502.175-.004.112.177-.019.134.207.301c.001.014.117.203.347.569l-.243-.154-.038-.05-.093-.106c.007.007.014.019-.041.028.041.052.081.104.161.164a1.78 1.78 0 0 1 .386.349c-.123-.043-.225-.13-.347-.173.042.052.085.102.089.16l.018.13c.26.165.576.23.783.48-.072.017-.163.071-.214.125.009.007.016.017.111.097a4.25 4.25 0 0 0 .214.153c.007.008.013.015.082.126.156.086.285.208.433.299l-.018.045.093.041c.02 0 .041 0 .126.03a.4.4 0 0 0 .207.145l.033.03.97.526c.015.013.028.024.077.058l.386.102c.009 0 .02 0 .135.035l.27-.013.063-.08c-.147-.076-.172-.089-.381-.11-.027-.028-.056-.056-.19-.089l-.418-.331c-.015-.013-.024-.026-.102-.091-.096-.097-.207-.175-.3-.27-.013-.015-.026-.03-.093-.086l-.125-.141a1.78 1.78 0 0 0-.08-.104c.062 0 .122 0 .163-.032-.053-.059-.117-.147-.158-.218.033-.022.075-.056.105-.08l-.105-.284c.024-.032.05-.078.07-.112-.022-.032-.046-.065-.161-.106l-.13-.026-.462-.348c-.009-.017-.02-.033-.04-.141l.082-.106.267-.004a1.26 1.26 0 0 1-.168-.378c-.015-.13-.072-.253-.057-.387l.139.013a3.48 3.48 0 0 1 .02-.132c-.011-.019-.02-.037-.11-.114h-.007-.006-.011l-.018.008-.117.067c-.056-.04-.14-.141-.254-.305l-.091-.177h.104c.082.032.186.084.261.128l.32-.004-.066-.115-.053-.139c.01-.1-.037-.22-.14-.359l-.059-.139c.084 0 .172 0 .311-.017.038 0 .077 0 .194-.011.034-.017.085-.035.124-.052l.312.004.126.022c.004-.234.18-.391.262-.591l.025-.123-.056-.195c-.02 0-.044 0-.128-.015l-.053-.184c-.143-.184-.395-.238-.521-.448h.269c.89.208 1.098.26 1.167-.069.229-1.119.437-1.24.516-1.283.029.071.038.178.025.255l.13.028c.124-.167.296-.61.296-.612.028-.242.348-.245.382-.48.05-.342-.32-.61-.168-.969.002-.004.503-.608.74-.777l.424-.007c.076-.059.173-.152.291-.277l.95-.026a.57.57 0 0 1 .09-.24c.144-.069.318-.366.352-.522a1.62 1.62 0 0 0 .229-.154c.027-.32.031-.337.152-.569.057-.036.129-.286.217-.751 0-.028 0-.056.051-.192.136-.27.143-.456.146-.534 0-.043 0-.084-.012-.206l-.024-.128a1.25 1.25 0 0 0-.015-.27c.004-.171.006-.344.11-.539.056-.017.257-.252.603-.703.19-.019.221-.05.349-.193l.622-.874c.109-.211.168-.374.175-.489m-13.572-11.93l.024-.013c-.047-.05-.139-.02-.174-.099-.043-.097.015-.193.006-.286-.333.086-.344.089-.526.095l-.174.002c-.091-.019-.163-.089-.256-.095h-.086c-.077.028-.1.125-.183.153l-.292.009c-.124 0-.161-.145-.269-.171-.133-.03-.204-.184-.351-.19l-.588-.024c-.063.003-.17.021-.32.056l-.013.601c.161.212.269.329.324.344l.177-.004c.099.005.189-.048.271-.16.056-.076.268-.104.268-.104.101 0 .188.054.283.052s.189-.054.287-.052c.304.006.616-.069.655-.087.073-.035.102-.035.173-.002s.375.069.433.071l.178-.002c.064-.009.104-.061.153-.091m-4.468.29l.016-.03c-.02-.063.026-.139-.033-.197-.04-.037-.093-.017-.137-.037-.053-.022-.086-.074-.137-.099l-.044-.009-.453.011c.029.058.048.123.079.18l.04.05c.031.03.04.028.124.008.075-.019.212.099.214.1.027.026.027.054.026.123-.002.043 0 .054.011.084.051-.013.104.028.155-.006.022-.014.068-.073.139-.178zm-.448-1.142l1.21-.028c-.071-.141-.362-.565-.611-.606l-.171.004c-.172 0-.34.084-.51 0-.119-.056-.145-.193-.234-.277-.128-.123-.294-.182-.435-.284-.11-.074-.173-.138-.188-.19-.017-.059-.031-.111-.132-.115l-.338.026c-.048.002-.099.029-.155.08-.068.065-.134-.009-.2-.015l-.318.009c-.181-.005-.285.006-.312.032-.325.333.137.885.521.625.097-.065.148-.184.259-.23.019-.008.181-.009.273.011.003 0 .307.121.332.32.008.045.011.084.05.104.259.149.297.139.382.123.107-.019.133.024.177.113.024.047.15.283.396.297m23.512-21.029l-.117-.216c-.038-.035-.062-.082-.111-.106-.065-.028-.141-.048-.23-.059-.059-.145-.113-.257-.163-.335a9.34 9.34 0 0 0-.238-.007c-.057.002-.149.067-.277.193-.112-.011-.22-.056-.333-.059-.196-.006-.249.045-.281.076-.042.037-.061.039-.105.041-.067 0-.137-.004-.204-.006a1.54 1.54 0 0 0-.044-.104l-.042-.1c-.031-.045-.084-.065-.121-.104l-.093.022.044.1c-.064-.021-.195-.033-.395-.035-.035 0-.296.058-.082.283.106-.002.197-.082.307-.041l.223.132c.036.037.029.089.049.132-.109-.022-.312-.065-.546-.013l.097.16c.041-.015.07-.022.087-.022l.22.005.038.028.075.216.095.113a2.3 2.3 0 0 1 .113.002l.326-.019h.12c.156-.009.238.136.369.177.004.002.424.097.415-.123-.003-.058.018-.111.064-.158.044-.041.112.033.143-.028.036-.073.073-.117.109-.132s.199-.021.487-.017m-12.293 7.175l.035-.041-.028-.154c-.118-.004-.196-.017-.235-.039 0 0-.216-.128-.267-.214-.028-.047-.042-.074-.084-.089-.101-.037-.21-.013-.313-.037-.055-.015-.095-.056-.146-.076.095-.186.198-.302.309-.348.027-.013.146-.158.082-.257-.014-.022-.026-.046-.035-.071-.036.008-.074-.007-.113-.009a.57.57 0 0 0-.208.084c-.061.061-.033.149-.062.219a.58.58 0 0 1-.148.231l-.843.787a.56.56 0 0 0-.1.221c-.015.061.011.123.003.184l1.164-.004c.101.009.143.022.238.151.17.223.256.266.367.32.03-.028.035-.033.101-.056.04-.015.131-.048.126-.4-.004-.141.048-.276.155-.404m-3.103-.472l.011-.011c-.04-.019-.071-.054-.115-.071-.024-.009-.068-.007-.081-.006-.082.008-.091.008-.124-.009-.117-.054-.142-.117-.151-.139-.028-.067-.053-.078-.094-.078s-.073.015-.109.006l-.168.076c.042.026.093.035.127.074s.033.095.061.136l.027.03.106.099c.029.03.05.071.081.1.027.024.038.035.075.046s.111.032.356-.253m10.086-11.881c-.084-.02-.171-.019-.255-.03-.024-.006-.055-.006-.083-.006h-.003l.005.011c.026.007.057.022.079.035-.051 0-.061 0-.126-.015l-.03.03h-.012s-.002 0-.024.033l.022.037-.095-.084c-.019-.007-.039-.015-.079-.045-.064-.02-.071-.02-.12-.03h-.033l-.041.009.041.03a.41.41 0 0 0-.084.006l-.033-.026h.014l.04-.006a.52.52 0 0 0-.144-.009c-.029 0-.055 0-.102-.004a.25.25 0 0 0-.081.015h-.007l-.02.004h-.006l-.007.004h-.042l.011-.037.186-.007c.052 0 .099.002.163-.009l.04-.006-.064-.011h-.031-.027l-.168-.017h.005c-.013.002-.025.002-.062 0l-.047-.004h-.086-.019-.069l-.011-.006.016-.006.192.004c-.023-.004-.058-.006-.084-.006h-.022l-.08-.004h-.018-.128-.02-.015s-.006 0-.046.013l-.04-.004c-.015 0-.027 0-.058-.006l-.083.002h-.036-.05-.005l-.04.009.013.004v.004l-.019.015h-.002l.002-.004v-.004h-.016-.002-.005l-.004-.002h-.002l-.027-.002-.008.004h-.011l-.012.009.014.011h.006l.001.004h.037v.006l.009.006.004.013v.007l-.007.006-.013.013-.02-.004h-.006l-.024-.007h-.005l-.004-.002-.013-.006-.036-.011h-.004l-.002-.006v-.004l-.005-.004v-.007h-.006-.001l-.002-.004h-.002-.026c-.027-.004-.064-.006-.091 0l-.013.015h.009l-.007.009-.004.007-.009.011-.005.004-.017.013-.009.007h-.016-.008-.005v-.006l-.004-.004.004-.006-.004-.004v-.019-.013h-.014l.001-.004.01-.006.003-.004-.003-.004h-.015-.02c-.006 0-.013.004-.046.017l-.036.017-.015.006-.011.004-.011.004-.066.022-.016.006-.031-.007s.007-.002.038-.013l.05-.013.016-.006.015-.004h.009l.003-.006.011-.007.004-.004h.011l.029-.013.004-.004h.002l-.009-.006-.028.004-.04.004-.018.004h-.013l-.013.004h-.018l-.013.004h-.033-.002-.044l-.012.002-.031.004h-.055l-.009.002-.022.006h-.015l-.011.006.009.002h.008l-.002.006-.008.004-.012.004-.008.004-.014.006.003.006h.013.007v.004l-.007.007-.005.011-.019.004h-.029v-.002h-.002l-.009-.007.006-.004v-.004l.005-.002-.013-.006h-.005-.006v-.007l.004-.007.007-.004.009-.004.013-.006h.006s-.006-.002-.042 0l-.015.004h-.013l-.02.006h-.011l-.049.007-.077.019-.009.004-.015.006-.014.006-.134.041-.049-.004.004-.004.009-.006h-.073l-.066.011-.157.028c-.026.007-.059.013-.081.019l-.022.004h-.042l-.014.002h-.008l-.023.006-.024.006-.024.004h-.011l-.029.009-.024.004h-.018l-.092.026-.021.007-.081.022.035.006-.007.006-.011.007h.014c.022 0 .055-.004.079-.007h.014l.035-.004-.082.032-.013.007-.016.007-.015.007-.113.048-.086.028-.028.007-.058.007h-.009c-.028-.006-.05 0-.093.011l-.048.009c-.013 0-.029 0-.08-.006-.03-.006-.059 0-.105.009l-.032.013c-.01.004-.021.007-.044.019l-.044.013-.02.004-.068.002-.04.011c-.053.011-.106.006-.157.013l-.024.004h-.022l-.022.007-.027.009-.022.009-.024.009-.027.011-.022.006h-.059c-.146.046-.153.059-.177.108l.036.017-.032.024h.113l.004.02h.011l-.006.026h.04s.013.002.04 0l.066-.015.026-.006c.022 0 .046 0 .1-.007l.041-.006s.009 0 .032.002h.011c-.027.013-.053.03-.091.052l-.04.017-.024.007c-.031.007-.073.02-.104.032h-.026l-.005-.006h-.017v-.007l-.007-.002h-.036l-.037.004-.077.017h-.018l-.059-.015h-.02l-.073.033h-.073c-.039.01-.071.029-.097.058l-.005.011c.033.009.044.013.089.063l.004.007h-.042l-.031.013-.024.013-.009.013.018.013-.009.013-.007.011-.015.013v.006l.011.007.006.006.018.019.007.007v.013l.044.013h.026l.027-.011.015-.015.055-.054h.032c.024 0 .057.006.081.013l.005.006.009.004.006.007.018-.004.037-.028h.06v.011c.022.006.057.011.082.007l.028-.013.024-.006.023-.007.02-.004h.015l.02-.004.028-.013.058-.019.031.028.007.006h.086l.017.002.029.026v.013l.011.007.013.004h.1l.013.004.033.026.005.011h.042.015.017v.041l.034.015s.011 0 .039.006l.007.035c-.027.033-.059.065-.093.13v.015l.005.015.011.004h.026l.011.011.018.007.011.011-.009.046-.009.015.011.045.009.015-.004.022v.017l-.002.076-.005.071.009.011.02.048-.018.022c-.04.035-.044.039-.037.115l-.056.091a.24.24 0 0 0-.09.089h.097c-.011.026-.029.05-.068.074-.025.004-.06.013-.08.024-.031.045-.04.104-.081.145h-.078l-.044.078v.045c.027.009.057.019.084.02a.4.4 0 0 1 .08.009l.041.011c.075 0 .146 0 .226-.015.015-.029.091-.052.229-.071-.019.087-.046.199.119.203h.027c.049.028.082.074.124.11v.041l-.031.041h-.106l-.042-.007h-.104c-.091.006-.146.007-.186-.071-.324-.033-.359-.011-.36.091l.062.065c-.081.091-.242.059-.298.192l.024.037c.126.014.213.057.259.13l.048.009c.106-.074.218-.11.336-.108l.047-.151c-.058.002-.12-.007-.179-.013l-.009-.039a.44.44 0 0 1-.084-.009l.042-.043.123.004c.041.032.106.055.193.069h.134c.023.002.056.015.076.028l.006.046-.013.028c-.055.024-.086.08-.133.113-.002.007-.006.013-.002.046.038.045.059.081.064.11l-.04.134c-.046 0-.092 0-.174-.013-.066.02-.113.086-.19.08h-.006c-.018 0-.038 0-.074-.011-.028-.007-.063-.004-.086.004-.028.074-.053.151-.117.221-.026-.006-.057-.019-.083-.03-.182.094-.276.151-.281.169-.002.009-.006.02-.009.067.003.026.014.061.027.086.178.041.188.091.187.106-.002.132-.203.089-.201.225l.022.045s.025.084.047.182c.106.037.188-.056.287-.052.018 0 .037 0 .082.009l.02.037-.04.082c-.02 0-.036 0-.077.007l-.04.015c-.092.239-.127.377-.104.415.163 0 .267-.178.439-.149-.017.071-.035.143-.075.236-.062.059-.159.058-.223.112-.048.037.292.842.296.85.254.387.469.575.634.562.022 0 .046 0 .093-.007.038-.02.085-.032.143-.037h.042l.13.028c.005.253.279.217.392.355.063.071.54.074.53-.149 0-.022.002-.041.006-.097.024-.281.482-.554.19-.811-.004 0-.185-.177.106-.197.022 0 .042 0 .093-.006.036-.006.081-.009.135-.007.069-.118.156-.214.262-.29 0-.093.002-.184.035-.299l.029-.03c-.008-.149-.053-.188-.11-.238l.009-.043c.09-.056.207-.013.293-.082.058-.048.012-.117.029-.173h.345c-.014-.113-.014-.124-.005-.19.062 0 .126 0 .192.022-.006.139-.004.145.027.191.177-.019.304-.151.463-.218h.064c.051.002.119-.011.204-.041l-.007-.045c.053-.102.159-.154.221-.244.043-.017.083-.069.121-.156.027-.007.067-.02.093-.035-.002-.015-.007-.032.007-.071.073-.064.099-.138.079-.219v-.007h.018l.046.007.013.006.014.007h.011l.031.022.015.004.031.028c.06.02.067.024.135.019.126-.009.23.082.355.08.16 0 .17-.232.334-.227.113.006.21-.091.325-.071.169.026.103-.232.236-.273l.249.004c.031-.017.07-.061.115-.132l-.02-.037-.053-.022-.057.063-.015.054h-.043c-.011 0-.02 0-.044-.004-.092-.019-.141-.123-.241-.121h-.072c-.289-.013-.342-.106-.367-.151l-.035-.084c.219-.036.349-.073.388-.11.142.056.164.26.338.279l.031-.03.011-.074c.078-.037.17.013.25-.033-.108-.151-.281-.208-.415-.325-.113-.102-.29-.128-.358-.294l.04-.017a1.57 1.57 0 0 0 .194.106c.015 0 .027 0 .075-.007l.044.007-.081-.145c-.007-.011-.018-.024-.036-.073a.18.18 0 0 0-.283-.059c-.044 0-.085 0-.13-.032l.064-.058c-.011-.01-.062-.033-.154-.071l.009-.024.156.004.062.095c.049 0 .095.004.177-.007l.024-.037h.042c.015 0 .027 0 .073.007.056.024.101.029.133.015.037-.227-.296-.13-.424-.225l.008-.041c.173.039.226.015.248.006l.024-.046.04.015h.055c.024.004.057-.004.079-.013-.126-.121-.324-.138-.43-.288.009-.009.043-.014.104-.015-.027-.028-.054-.058-.113-.108a.79.79 0 0 1-.126-.074s0-.002-.031-.026c-.115-.059-.263-.035-.366-.132l-.014-.017c.017-.02.053-.034.109-.043h.063c.04 0 .069 0 .157.054.005.004.009.007.029.037.027.05.033.056.168.141l.022-.013-.241-.219-.011-.039-.022-.017c-.046-.025-.115-.038-.205-.041-.013 0-.027 0-.055-.004h-.042c-.027-.028-.056-.052-.069-.082l.038.013h.031l.041-.015c-.057-.035-.254-.095-.32-.059l.016.041c-.035-.011-.073-.026-.135-.104l-.006-.033-.133-.104h.064l-.038-.024V5.93s.012 0-.006-.022c-.104-.052-.108-.063-.122-.113l.042-.009-.039-.02-.005-.041-.048-.015-.142-.006-.037-.033.082.015.035-.011-.071-.043.027-.02-.086-.024m-2.735-.1l.082-.017-.073.006h-.019l.079-.013.055-.011-.07.004h-.038l-.11.009.095-.011h-.058l.067-.004h-.005-.051l-.123.007.073-.006-.063.004-.114.006.04-.004-.151.007c-.022 0-.053.004-.075.006h-.017l.05-.004-.313.017-.164.015h.045c-.095.011-.184.039-.279.037l.098-.017-.031-.004.181-.02-.062.004.053-.004-.084.004-.276.03h-.027l.049-.007h-.018l-.24.024h-.02-.022l-.146.019h-.024l-.16.02-.008.004-.018.006-.208.032c-.057.032-.119.026-.178.039h.028l-.022.019.221-.037.13-.02.084-.007-.177.026-.22.037-.184.039c.075 0 .206-.017.393-.05l.029.006.078-.004.192-.032.157-.024.289-.039.022.004-.047.004-.359.054.083-.004.003.004h.015l-.126.028h-.071l-.074.004-.093.015-.21.026h-.042l-.068.009-.149.033.014.007-.056.02-.128.039.047.013-.073.007h-.046l.198-.095h-.028l-.053-.007-.182.039-.105.033-.133.046-.148.065-.033.028.066.011-.214.048-.174.059.141-.08-.026-.011-.116.013-.108.017-.174.035-.174.056-.12.041.018.013.101-.004.115-.013-.218.05-.142.059c.042.009.192-.021.447-.089l-.215.073-.24.065-.106.009.004-.05.037-.05-.103.009c-.248.099-.426.158-.533.177l-.214.069-.168.095-.013.043.223-.056.3-.011.009.026c.051.006.1-.017.151-.024.03 0 .059 0 .07.011a.56.56 0 0 0-.134.073c.037 0 .053.004.123-.015l.073-.002.504-.149.121-.067-.185.045.17-.089.132-.02.214-.082.137-.071h.064c.164.006.296-.099.449-.138h.099c.007 0 .086 0 .163-.074l-.008-.026h-.027l-.15.032-.126.03.117-.045.351-.076h.064l-.071.032c.041.009.153-.007.336-.046l.08-.05.095-.006-.075.033.081-.006.152-.024.126-.052.007-.019h.091.057l.13-.032.12-.017.518-.093.069-.004.091-.015.055-.02c-.029.005-.118.011-.267.017l.108-.02.097-.009h.064l.079-.004.204-.02a1.92 1.92 0 0 0 .201-.026m-3.229.444l.234-.063a.1.1 0 0 1 .042-.037l.143-.037.127-.03.07-.022-.139.024c.002 0 .234-.071.437-.108l.298-.056-.205.026h.027l-.191.028h-.046l-.347.065-.028-.004-.062.009-.23.045-.139.024-.223.046h.02l-.234.056-.095.032.082-.011.119-.019.08-.007c-.114.033-.21.056-.288.067h-.059l-.148.033-.098.039-.207.067.011.026.141-.019v.022l.161-.043h.036c.018-.004.031-.006.168-.05l.188-.054-.036.026.203-.046v.011c.02-.004.036-.004.192-.043m-1.748.456c.103 0 .309-.099.377-.13l-.168.028-.276.086.067.019m-.042.515h.006l.19-.117-.069-.045-.088-.037-.229.054-.288.056-.15.019-.086-.032-.148.013.135-.102.23-.102.19-.091-.12.006c-.088.013-.212.03-.687.288l-.313.121-.13.089-.084.089.194-.022.201-.063a4.49 4.49 0 0 0-.086.097v.009c.017.004.042.009.168-.007l.216-.007.157-.035.144-.058-.042.061c.251-.022.413-.055.485-.099.047-.03.08-.054.203-.082m-2.486.275l.077-.004.124-.071-.201.074zm.656-.113l.269-.117.056-.056.147-.08-.101.019-.239.063-.192.076-.15.099.082-.004-.024.043.152-.043zm.923-.416l.236-.076.15-.059.122-.067c-.027.004-.056.004-.086.006l.039-.028-.13.022-.24.084-.093.061-.076.058h.076m.993-.35l.17-.058-.09.004s-.055.004-.08.004l-.203.054a3.16 3.16 0 0 0-.143.048l.117-.011.108-.02.122-.02m.229-.112l.157-.043.148-.058-.049-.006.155-.056-.161.035-.175.054-.307.095.013.013.1-.015.117-.02h.002zm.945-.307l.128-.022.25-.054.048-.013h-.033l-.232.048h.04l-.199.043m-1.525.4l.185-.052.214-.065.111-.039.21-.059.068-.026.095-.032-.075.011.125-.035.115-.033-.072.011-.199.035-.183.045.053-.007-.069.022-.23.061-.052.004-.197.058.055-.009-.112.037.134-.03.013.004.038.006-.219.08-.008.019m-.299.043l.12-.026.125-.048-.084.011-.2.061h.039v.002zm-.731.363c.034-.013.223-.089.235-.123-.014 0-.042.007-.175.05l.139-.074-.066.004-.471.205-.006-.006v-.006l.269-.126-.062.004-.218.082-.223.091.126-.074.34-.134.077-.052-.329.113-.408.19-.032.046.127-.033.079-.017-.126.063-.291.136.139-.043.099-.009.093-.02.199-.082.287-.117.199-.067m-1.149.271c.086-.033.084-.05.084-.05h-.002c-.049.006-.091.037-.142.043l-.189.082a1.17 1.17 0 0 0 .249-.076m1.268-.491l.136-.033.288-.1.125-.048a4.83 4.83 0 0 0-.549.182zm-1.338 3.114l.245-.171.073-.175-.341.028s-.121.059-.331.197l-.048.152.165.019.239-.052m.154-2.123c.217-.094.325-.155.325-.182h-.009l-.11.002-.009-.045c-.12.012-.194.024-.221.035l-.407.178a10.46 10.46 0 0 0-.415.223l-.386.242.172-.035.228-.087.236-.13.068.032.219-.086.311-.145m-1.687.606l.32-.158.164-.119.124-.106.053-.069c.22-.071.397-.158.532-.262l.101-.065-.103.013-.204.095h-.037l.017-.037-.15.039-.178.095-.142.102-.4.169c.012-.011.027-.028.118-.095l-.078.011-.208.102-.079.08-.059.061.021.039c-.186.13-.273.213-.262.249.024-.007.05-.015.287-.125l.165-.019m.012-.422l.298-.136.088-.058-.049-.033c-.062.022-.148.048-.203.08l-.128.093a3.56 3.56 0 0 1-.203.13l.197-.076zm-.014-.106l.21-.089-.073.013-.165.063.026.013h.002zm3.66-1.359a4.07 4.07 0 0 0 .286-.082l-.066.009-.123.024-.285.067.042-.004.061-.006.076-.007h.009m-.478.123l.206-.052h-.033l-.069.009-.121.026-.201.05-.351.106-.013.009.114-.028.084-.011.177-.05.157-.05.048-.009m-.311.045h.017l.268-.073.093-.03-.045.007-.203.056-.13.039zm-1.442.619l.43-.158.12-.056-.042.004-.184.065.045-.033.198-.087.199-.069.217-.078-.049.006-.163.048-.095.024-.159.054-.429.162.009.013c-.152.061-.163.061-.217.067-.024.004-.05.006-.072.007l.117-.056.28-.112.073-.039-.044.006.102-.045.013-.011-.175.046-.322.104-.234.076-.261.087-.247.093h.048l-.024.024.093-.022.148-.043.011.022.059-.006-.191.054-.065.006-.163.054-.174.073-.062.037.09-.009.27-.082.296-.102.108-.02.093-.007s.066-.006.099-.007l.245-.087m.618-.37l.02.007.205-.067-.088.017.025-.009-.162.052zm-1.243.381l.444-.152-.155.043-.276.093-.015.017h.002zm1.484-.47l.292-.084.053-.026-.239.067-.053.007c-.027-.006-.841.244-.85.247l-.038.006-.185.054-.245.086-.106.045.236-.076-.143.054.152-.046.174-.059.053-.011.263-.086.197-.058-.252.086.11-.03.168-.046.415-.128m-3.959 2.294l.176-.1.067-.1-.012-.104.201-.169.318-.175.115-.104.402-.219.217-.136.061-.073c-.03 0-.059.004-.086.006l-.318.156-.207.112-.252.151-.159.071-.02-.007.089-.067.214-.113.165-.093.235-.143-.043-.004-.194.1-.145.082-.074.007-.158.076-.1.026.186-.089.229-.106-.031-.006.034-.041-.078.015-.221.104-.009-.015.151-.067.262-.126.032-.024-.065.007-.24.095-.142.052-.134.043-.228.093-.265.134-.256.106-.159.08.04-.006-.128.076.152-.058.11-.028-.128.086-.17.061-.143.05-.186.087-.09.084.088-.009.141-.03c.029-.004.058-.007.084 0-.048.051-.128.106-.242.165l-.14.006-.139.013-.282.121-.321.219h.089l.095-.011-.294.214-.079.087a3.06 3.06 0 0 1 .139-.013l.152-.024.252-.113.19-.065.28-.125.163-.071-.075.074.1-.026-.069.149.104.004.144-.03.263-.151.096-.117.085-.015.161-.041m-1.274.508l.231-.151-.282.093-.376.165.045.039.236-.102.148-.043-.002-.002zm2.119-1.636l.217-.073.25-.113.236-.128-.007-.011-.223.076.084-.052.108-.059-.02-.007-.143.041-.208.084-.373.156-.574.249-.786.355-.122.084-.472.26.327-.154.064-.009.238-.108 1.002-.446.4-.143m4.85 8.613l.185-.147-.145-.143.147-.145.082-.303-.38-.052-.033-.177-.422.002-.377.18-.254.143-.166-.071.131-.214.413-.126.481-.106.245-.175-.289-.017-.248-.138-.346-.099-.168-.205-.194-.203-.043-.182.164-.034.095-.134-.133-.311-.154-.336-.153-.58-.013-.26-.422.342-.126.297-.346.115-.276.21-.274-.011.026-.191-.117-.141-.302.069.236-.333.219-.429.104-.225-.303-.009-.146-.16-.079-.231-.217-.24-.207.117-.303-.008-.07-.084-.34.007-.25.162-.033.232-.261.314-.095.212-.062.288-.189.006-.16.283-.216.16.091.125.13.203-.133.376-.227.435-.347.31-.386.245-.393.061.015.377-.24.498-.027.286-.166.236-.298.301-.393.063-.018-.416-.075-.355.151-.305.15-.422.232-.349-.391-.054-.3-.008-.089-.115-.305-.106-.015-.197-.166-.206-.156-.219-.491.149.062-.212.203-.484-.084-.121.033-.184.517-.58.537-.431.503-.376.338-.139.345-.193.114-.195-.191-.073-.155-.124.271.054.193.085.172-.046.227-.206.14.099.183-.048.163-.162.157-.072.256-.216-.146-.021-.19-.019.042-.115-.101-.123.148.006.165.082.098.072.256-.085.315-.197.027-.147.177-.006-.033.136-.239.156-.362.29-.334.364-.265.089-.097.164.192.008c-.044.052-.088.102.012.167l.158-.05.243-.197.257.004.123.024.082.078.223-.007.188-.208-.175-.048.117-.255-.23-.021-.013-.191-.132-.048.139-.143.126.033.172-.106.09-.115.195-.008.232-.165.34-.165.192-.136.044-.141.157-.234.201-.039.232-.173.064-.165-.067-.084-.05-.125.232-.007.126-.086.147.017.027.093.208-.017.225-.048.033-.154.135-.033-.044.177.159.017-.102.173.104.03-.047.132.087.065-.071.169.123.065.003.175-.142.216-.415.238-.386.244-.071.23-.398.059-.145-.048-.197.006-.402.205-.172.214.256.048.254-.021.152-.121.157-.071.128.037.228.087.09.296-.042.165.053.21.268-.006.126.283.428.008.221.126.113-.175-.27-.351-.104-.151.005-.165.207.149.367.26.194.152.126-.255.265-.225-.177-.134.129-.338-.261-.115-.121-.409.2-.115.19-.102.268.374.048.247.203.037.223-.288.332-.106.101-.113h.184l.143-.126.082-.184-.356.004.057-.099-.117-.154-.132-.022-.157-.091-.166.002.04-.128.023-.113-.274.006-.1-.009.148-.193h.188l.168-.089-.201-.061.093-.076.137-.024-.034-.126-.143-.05.174-.117-.119-.076-.219.013.058-.091-.157-.007-.046-.019.227-.091-.119-.054-.287.061.029-.151.083-.086-.119-.007.113-.1-.109-.069a5.79 5.79 0 0 0-.256.007l-.143.084-.155.022-.086-.024-.179.102-.137.013.172-.13.241-.121.117-.154.166-.136-.203.006-.256.104-.151.013-.205.073-.249.143-.151.156-.212.104-.165.201-.133.022.109-.171.298-.225.216-.147.338-.151.331-.125-.177.006-.234.032-.466.178-.528.26-.53.337.113.035.108.006-.134.128-.098-.026-.22.056-.106.162.179-.006.145-.046-.015.102.121.087-.216.059-.197.154-.026.108-.53.314-.336.229-.329.186-.04-.071.219-.27.281-.165.094-.244-.412.201.223-.338-.02-.041.258-.171.241-.19-.064-.017.223-.152.123-.162h-.152l-.186.097-.092.013-.334.165-.168.134-.183.106-.123.177-.033.115-.277.169-.095-.037-.22.193.158-.019.338-.145a7.59 7.59 0 0 0-.271.208l-.552.225-.365.314.033-.164.323-.218c-.036 0-.071.004-.108.006l.254-.197.101-.006.362-.283.011-.154-.337.201-.25.097-.097.208-.278.134-.261.171-.422.046-.008-.121-.084-.028.086-.164-.296.138-.38.158-.248.203-.463.329.422-.379.05-.132-.267.087-.232-.039.159-.11.256-.108.16-.184-.113.022.09-.167.197-.139-.031-.02-.071.02-.236.128-.104.043.449-.275-.457.253.01-.024.537-.316.06-.045-.395.212-.268.143-.095.045-.223.117-.296.169.427-.247.156-.082.15-.078.21-.115.024-.017-.225.115-.305.165-.041.022-.012.006-2.574 1.67c-.804.585-1.931 1.546-3.383 2.882l-.372.378.065-.065-.128.139-.21.227-.06.082-.21.223-.099.136-.194.21-.045.076v.024l-.207.245-.194.257-.239.301-.214.286.024.021-.25.344-.185.316-.155.24-.063.173-.01.117.003.082-.115.19-.071.231-.062.201-.249.463-.227.374.085-.229.126-.301.109-.195.046-.177v-.069l.196-.307-.057.013.058-.145.017-.069v-.047l-.068.048-.135.242-.053.141-.088.201-.108.325-.186.366-.236.47-.221.383-.3.53a28.6 28.6 0 0 0-.31.599l-.117.152-.198.402-.142.413-.201.409-.125.322-.073.272-.175.416-.075.34-.018.27-.159.595v.234l-.086.311-.033.351.122-.017.019.238.087.188.02.311-.071.387-.038.387-.079.647.044.271.062.316-.009.234-.143.225.024.257.092.247.129.271.063.305-.057.266.011.216.13.132.107.279.077.236-.02.292.093-.102.053-.322-.023-.361-.116-.136.019-.314-.114-.251v-.402l.004-.379-.077-.277.031-.376-.095-.108.024-.463-.044-.385.104-.513.108-.032.113.145.026.271-.088.444.053.573.101.457.117.32.071.327-.022.381.161.225.097.355.069.379.19.521.057.463.115.21-.141.184-.054.299.254.431.221.359.287.156.305.335.371.279.428.351.356.158.232-.037.071-.206.267-.061.304.236.345.411.196.344.285-.011.111-.004.165.093.19.366.369.16.007-.249.209.143c.438.786.645 1.258.619 1.417l.135.193.15-.102.22.138c.303.351.523.517.659.498l.574.349.311.164-.053-.389.128-.249.53.035.075.242.171-.026.074-.322-.212-.29-.549.013-.354-.015-.517-.033-.249-.214-.349-.457-.004-.374-.02-.497.088-.628-.007-.424-.165-.322-.32-.218-.469.067-.328-.089-.354.214-.232-.216.215-.26v-.205l.004-.249.088-.281.13-.454.021-.5.211-.205.053-.374-.145-.141-.504.067-.313.084-.15.353-.149.526-.159.482-.256.061-.358.165-.366.093-.157-.344-.285-.234-.086-.394-.172-.511-.047-.88.014-.632.194-.495.139-.558-.059-.567.335-.56.219-.034.263-.292.278-.34.3.056.206.108.205-.125.108.297.281-.011.225-.033-.011-.232.143-.379.356-.035.256-.056.455.05.132.324.155-.006.131-.192.145-.052.183.275.162.344-.053.405.093.232.024.26.139.188.059.285.186.138-.013.312.179.069.132-.219.122-.342-.065-.402-.039-.615-.166-.537a11.28 11.28 0 0 1 .141-.818l.164-.374.285-.515.335-.166.435-.398.402-.301.365-.165.112-.292.296-.186-.13-.483-.117-.218.13-.264-.095-.238.292-.158.143.346.208-.353.214-.305.21-.199.32-.645.501-.009.369-.216.389-.048-.036-.251.106-.521.358-.394.3-.006.151-.227.393.015.415-.227.302-.307c.453-.016.754.02.902.11l-.137.104c-.17 0-.34.004-.546.032-.232.156-.352.332-.36.526l.195.1.282-.208.199-.124.356-.106.399-.184.374-.085.351-.344.326-.24.093-.275-.397.098-.343.418-.439.024-.314-.175-.294-.294-.064-.508.383-.255.086-.402-.451-.034-.539.158-.64.336-.683.556-.505.323.249-.299.34-.32.21-.156-.373-.11.515-.009.207-.273.362-.253.347-.022.234-.307.322-.115.455-.006.838-.028.413.072.346-.022.398-.245.382-.333.569-.058.309-.112" fill="url(#C)"/><path d="M20.798 52v-7.32H18.53v-1.62h6.36v1.62h-2.232V52h-1.86zm4.893 0v-8.94h1.86V52h-1.86zm.06-10.068l-1.248-2.16h2.316l.696 2.16h-1.764zM29.017 52v-8.94h1.8l3.348 4.44h-.84l3.252-4.44h1.8V52h-1.86v-6.888l.744.168-3.444 4.44h-.24l-3.324-4.44.624-.168V52h-1.86zm14.47 0v-7.32h-2.268v-1.62h6.36v1.62h-2.232V52h-1.86zm4.893 0v-8.94h3.42c.616 0 1.16.108 1.632.324.48.216.856.536 1.128.96s.408.948.408 1.572c0 .608-.14 1.128-.42 1.56a2.64 2.64 0 0 1-1.128.96L55.459 52h-2.088l-2.208-3.948 1.2.708h-2.124V52h-1.86zm1.86-4.86h1.572c.264 0 .492-.052.684-.156a1.1 1.1 0 0 0 .444-.432c.112-.184.168-.396.168-.636 0-.248-.056-.464-.168-.648a1.1 1.1 0 0 0-.444-.432c-.192-.104-.42-.156-.684-.156h-1.572v2.46zm9.576 5.004c-.704 0-1.332-.148-1.884-.444a3.41 3.41 0 0 1-1.308-1.212c-.312-.52-.468-1.108-.468-1.764V43.06h1.86v5.544c0 .352.076.672.228.96a1.77 1.77 0 0 0 .648.66c.272.16.58.24.924.24.352 0 .66-.08.924-.24a1.68 1.68 0 0 0 .636-.66c.16-.288.24-.608.24-.96V43.06h1.632a.62.62 0 0 0 .3-.096c.12-.064.18-.228.18-.492a1.52 1.52 0 0 0-.072-.432 4.23 4.23 0 0 0-.168-.48h1.512c.08.168.144.336.192.504.056.16.084.348.084.564 0 .576-.152 1-.456 1.272-.296.264-.716.396-1.26.396h-.084v4.428c0 .656-.16 1.244-.48 1.764-.312.512-.744.916-1.296 1.212s-1.18.444-1.884.444zm9.488 0c-.672 0-1.296-.116-1.872-.348s-1.08-.556-1.512-.972c-.424-.424-.756-.916-.996-1.476s-.36-1.168-.36-1.824.116-1.264.348-1.824c.24-.56.572-1.048.996-1.464.432-.416.936-.74 1.512-.972s1.204-.348 1.884-.348h2.4c.048 0 .116-.004.204-.012.088-.016.168-.064.24-.144.08-.08.12-.224.12-.432a1.52 1.52 0 0 0-.072-.432 4.23 4.23 0 0 0-.168-.48h1.512c.08.168.144.336.192.504.056.16.084.348.084.564 0 .576-.092 1-.276 1.272-.184.264-.424.396-.72.396h-1.056l.42-.348c.384.272.716.6.996.984a4.31 4.31 0 0 1 .636 1.272 4.6 4.6 0 0 1 .228 1.464c0 .656-.12 1.264-.36 1.824a4.57 4.57 0 0 1-1.008 1.476c-.424.416-.924.74-1.5.972s-1.2.348-1.872.348zm0-1.68c.408 0 .784-.072 1.128-.216a2.88 2.88 0 0 0 .924-.6c.264-.264.468-.576.612-.936a3.17 3.17 0 0 0 .216-1.188 3.08 3.08 0 0 0-.216-1.176c-.144-.36-.348-.672-.612-.936s-.572-.464-.924-.6c-.344-.144-.72-.216-1.128-.216a2.98 2.98 0 0 0-1.14.216 2.66 2.66 0 0 0-.912.6c-.264.264-.468.576-.612.936a3.08 3.08 0 0 0-.216 1.176 3.17 3.17 0 0 0 .216 1.188c.144.36.348.672.612.936.264.256.568.456.912.6a2.98 2.98 0 0 0 1.14.216zm-.876-8.532l-1.248-2.16h2.316l.696 2.16h-1.764zM75.242 52v-8.94h1.428l4.8 6.324-.768.18V43.06h1.86V52h-1.44l-4.716-6.372.696-.18V52h-1.86zm13.082.144c-.64 0-1.236-.116-1.788-.348s-1.036-.556-1.452-.972-.74-.904-.972-1.464a4.75 4.75 0 0 1-.348-1.836 4.9 4.9 0 0 1 .336-1.836c.224-.568.54-1.056.948-1.464a4.24 4.24 0 0 1 1.428-.96c.552-.232 1.152-.348 1.8-.348s1.228.108 1.74.324c.52.216.96.504 1.32.864s.616.76.768 1.2l-1.644.792c-.152-.432-.42-.788-.804-1.068-.376-.288-.836-.432-1.38-.432-.528 0-.992.124-1.392.372s-.712.592-.936 1.032c-.216.432-.324.94-.324 1.524s.116 1.096.348 1.536.548.784.948 1.032c.408.248.876.372 1.404.372.408 0 .788-.076 1.14-.228a2.1 2.1 0 0 0 .864-.684c.224-.296.336-.652.336-1.068v-.744l.852.72h-3.24V46.9h4.248v.948c0 .728-.12 1.364-.36 1.908-.24.536-.564.984-.972 1.344a4.06 4.06 0 0 1-1.356.792c-.496.168-1 .252-1.512.252zm11.513 0c-.64 0-1.236-.116-1.788-.348-.544-.232-1.02-.556-1.428-.972a4.56 4.56 0 0 1-.96-1.464 4.9 4.9 0 0 1-.336-1.836 4.9 4.9 0 0 1 .336-1.836c.224-.568.54-1.056.948-1.464a4.24 4.24 0 0 1 1.428-.96c.552-.232 1.152-.348 1.8-.348s1.228.108 1.74.324c.52.216.96.504 1.32.864s.616.76.768 1.2l-1.644.792c-.152-.432-.42-.788-.804-1.068-.376-.288-.836-.432-1.38-.432-.528 0-.992.124-1.392.372s-.712.592-.936 1.032c-.216.432-.324.94-.324 1.524s.108 1.096.324 1.536c.224.44.536.784.936 1.032s.864.372 1.392.372c.544 0 1.004-.14 1.38-.42a2.27 2.27 0 0 0 .804-1.08l1.644.792c-.152.44-.408.84-.768 1.2s-.8.648-1.32.864c-.512.216-1.092.324-1.74.324zm8.453 0c-.704 0-1.332-.148-1.884-.444a3.41 3.41 0 0 1-1.308-1.212c-.312-.52-.468-1.108-.468-1.764V43.06h1.86v5.544c0 .352.076.672.228.96a1.77 1.77 0 0 0 .648.66c.272.16.58.24.924.24.352 0 .66-.08.924-.24a1.68 1.68 0 0 0 .636-.66c.16-.288.24-.608.24-.96V43.06h1.86v5.664c0 .656-.16 1.244-.48 1.764-.312.512-.744.916-1.296 1.212s-1.18.444-1.884.444zm-.876-10.212l-1.248-2.16h2.316l.696 2.16h-1.764zM113.302 52v-8.94h1.428l4.8 6.324-.768.18V43.06h1.86V52h-1.44l-4.716-6.372.696-.18V52h-1.86zm13.082.144c-.64 0-1.236-.116-1.788-.348s-1.036-.556-1.452-.972-.74-.904-.972-1.464a4.75 4.75 0 0 1-.348-1.836 4.9 4.9 0 0 1 .336-1.836c.224-.568.54-1.056.948-1.464a4.24 4.24 0 0 1 1.428-.96c.552-.232 1.152-.348 1.8-.348s1.228.108 1.74.324c.52.216.96.504 1.32.864s.616.76.768 1.2l-1.644.792c-.152-.432-.42-.788-.804-1.068-.376-.288-.836-.432-1.38-.432-.528 0-.992.124-1.392.372s-.712.592-.936 1.032c-.216.432-.324.94-.324 1.524s.116 1.096.348 1.536.548.784.948 1.032c.408.248.876.372 1.404.372.408 0 .788-.076 1.14-.228a2.1 2.1 0 0 0 .864-.684c.224-.296.336-.652.336-1.068v-.744l.852.72h-3.24V46.9h4.248v.948c0 .728-.12 1.364-.36 1.908-.24.536-.564.984-.972 1.344a4.06 4.06 0 0 1-1.356.792c-.496.168-1 .252-1.512.252zm6.617-3.84v-1.56h4.38v1.56h-4.38zm.648 3.696v-8.94h2.916c.968 0 1.808.192 2.52.576s1.264.912 1.656 1.584.588 1.44.588 2.304-.196 1.636-.588 2.316c-.392.672-.944 1.2-1.656 1.584s-1.552.576-2.52.576h-2.916zm1.86-1.62h1.104c.584 0 1.088-.116 1.512-.348.424-.24.752-.572.984-.996.24-.432.36-.936.36-1.512 0-.584-.12-1.088-.36-1.512a2.43 2.43 0 0 0-.984-.984c-.424-.232-.928-.348-1.512-.348h-1.104v5.7zm10.443 1.764c-.704 0-1.332-.148-1.884-.444a3.41 3.41 0 0 1-1.308-1.212c-.312-.52-.468-1.108-.468-1.764V43.06h1.86v5.544c0 .352.076.672.228.96a1.77 1.77 0 0 0 .648.66c.272.16.58.24.924.24.352 0 .66-.08.924-.24a1.68 1.68 0 0 0 .636-.66c.16-.288.24-.608.24-.96V43.06h1.632a.62.62 0 0 0 .3-.096c.12-.064.18-.228.18-.492a1.52 1.52 0 0 0-.072-.432 4.23 4.23 0 0 0-.168-.48h1.512c.08.168.144.336.192.504.056.16.084.348.084.564 0 .576-.152 1-.456 1.272-.296.264-.716.396-1.26.396h-.084v4.428c0 .656-.16 1.244-.48 1.764-.312.512-.744.916-1.296 1.212s-1.18.444-1.884.444zm-.888-10.212l.696-2.16h2.316l-1.248 2.16h-1.764zm10.148 10.212c-.64 0-1.236-.116-1.788-.348-.544-.232-1.02-.556-1.428-.972a4.56 4.56 0 0 1-.96-1.464 4.9 4.9 0 0 1-.336-1.836 4.9 4.9 0 0 1 .336-1.836c.224-.568.54-1.056.948-1.464a4.24 4.24 0 0 1 1.428-.96c.552-.232 1.152-.348 1.8-.348s1.228.108 1.74.324c.52.216.96.504 1.32.864s.616.76.768 1.2l-1.644.792c-.152-.432-.42-.788-.804-1.068-.376-.288-.836-.432-1.38-.432-.528 0-.992.124-1.392.372s-.712.592-.936 1.032c-.216.432-.324.94-.324 1.524s.108 1.096.324 1.536c.224.44.536.784.936 1.032s.864.372 1.392.372c.544 0 1.004-.14 1.38-.42a2.27 2.27 0 0 0 .804-1.08l1.644.792c-.152.44-.408.84-.768 1.2s-.8.648-1.32.864c-.512.216-1.092.324-1.74.324zM161.49 52l3.024-8.94h2.472L170.01 52h-2.028l-.6-1.824h-3.276l-.6 1.824h-2.016zm3.132-3.444h2.244l-1.368-4.224h.504l-1.38 4.224zM170.819 52v-8.94h1.428l4.8 6.324-.768.18V43.06h1.86V52h-1.44l-4.716-6.372.696-.18V52h-1.86zm8.786 0v-8.94h1.86v3.864h3.48V43.06h1.86V52h-1.86v-3.456h-3.48V52h-1.86z" fill="#fff"/><defs><linearGradient id="A" x1="41.245" y1="27.402" x2="41.245" y2="67.368" gradientUnits="userSpaceOnUse"><stop stop-color="#173189"/><stop offset="1" stop-color="#2742a2"/></linearGradient><linearGradient id="B" x1="150.196" y1=".555" x2="150.196" y2="72.555" gradientUnits="userSpaceOnUse"><stop stop-color="#082072"/><stop offset="1" stop-color="#2b46a8"/></linearGradient><linearGradient id="C" x1="281.268" y1=".484" x2="289.182" y2="45.474" gradientUnits="userSpaceOnUse"><stop stop-color="#2e6bc6"/><stop offset="1" stop-color="#29a4ea" stop-opacity=".14"/></linearGradient></defs></svg>