<svg width="16" height="14" viewBox="0 0 16 14" fill="none" xmlns="http://www.w3.org/2000/svg">
<path d="M15.6871 3.01206L8.15589 0.354844C8.05498 0.319219 7.9449 0.319219 7.84399 0.354844L0.312737 3.01206C0.221378 3.04431 0.142255 3.10408 0.086252 3.18314C0.0302489 3.26219 0.000116824 3.35666 3.39005e-07 3.45355C-0.000116146 3.55043 0.0297887 3.64497 0.0856016 3.72416C0.141414 3.80336 0.220393 3.86331 0.311675 3.89578L7.84292 6.57319C7.94447 6.60931 8.05537 6.60931 8.15692 6.57319L15.6882 3.89578C15.7795 3.86333 15.8585 3.80338 15.9143 3.72419C15.9701 3.645 16 3.55045 15.9999 3.45356C15.9998 3.35666 15.9697 3.26219 15.9137 3.18313C15.8577 3.10406 15.7785 3.0443 15.6871 3.01206ZM14.8741 9.26894V5.18019L13.9366 5.51347V9.26894C13.6542 9.43147 13.4639 9.736 13.4639 10.0852C13.4639 10.4344 13.6542 10.739 13.9366 10.9015V13.2051C13.9366 13.464 14.1465 13.6739 14.4053 13.6739C14.6642 13.6739 14.8741 13.464 14.8741 13.2051V10.9015C15.1565 10.739 15.3467 10.4344 15.3467 10.0852C15.3467 9.73603 15.1565 9.43147 14.8741 9.26894Z" fill="white"/>
<path d="M8.00175 7.53953C7.84084 7.53953 7.68237 7.51219 7.53072 7.45828L3.29688 5.95312V8.01588C3.29688 8.52053 3.82334 8.94731 4.86166 9.28431C5.76669 9.57806 6.88188 9.73984 8.00175 9.73984C9.12162 9.73984 10.2368 9.57806 11.1418 9.28431C12.1802 8.94731 12.7066 8.52053 12.7066 8.01588V5.95312L8.47281 7.45828C8.3216 7.51211 8.16226 7.53959 8.00175 7.53953Z" fill="white"/>
</svg>
