<svg width="16" height="16" viewBox="0 0 16 16" fill="none" xmlns="http://www.w3.org/2000/svg">
<path d="M0.446856 9.17623L1.49096 9.3503C1.65592 10.1636 1.97161 10.9374 2.42115 11.6306L1.80284 12.5084C1.74038 12.5949 1.70716 12.6996 1.70814 12.8069C1.70911 12.9143 1.74425 13.0184 1.80828 13.1037C1.96419 13.2975 2.12984 13.4831 2.30457 13.6595C2.48084 13.8391 2.66254 14.0046 2.84968 14.1646C2.93359 14.2299 3.03604 14.2657 3.14167 14.2667C3.24729 14.2677 3.35038 14.2338 3.43547 14.1701L4.29787 13.5409C4.97861 13.9985 5.73887 14.3198 6.53794 14.4877L6.7088 15.5506C6.72463 15.6564 6.77399 15.754 6.84936 15.8287C6.92474 15.9034 7.02202 15.951 7.12643 15.9643C7.27504 15.9815 7.42474 15.9919 7.57771 15.9997C7.61447 16.0015 7.65121 15.9957 7.68573 15.9828C7.72025 15.9698 7.75184 15.9498 7.77858 15.9241C7.80533 15.8984 7.8267 15.8674 7.84139 15.8331C7.85608 15.7988 7.8638 15.7618 7.86408 15.7244V13.5136C7.8637 13.4419 7.83604 13.3731 7.7869 13.3217C7.73776 13.2703 7.67095 13.2402 7.60049 13.2377C4.85993 13.0932 2.7107 10.7908 2.7107 7.9993C2.7107 5.20785 4.85993 2.90538 7.60049 2.76086C7.67095 2.75843 7.73776 2.72835 7.7869 2.67692C7.83604 2.62549 7.8637 2.55671 7.86408 2.48499V0.27617C7.86389 0.238749 7.85627 0.201752 7.84167 0.167404C7.82707 0.133057 7.80579 0.102067 7.77911 0.0762976C7.75243 0.0505285 7.72091 0.0305124 7.68644 0.0174525C7.65196 0.00439261 7.61524 -0.00144143 7.57849 0.00030111C7.42752 0.00664152 7.27675 0.0174945 7.1264 0.0328458C7.02191 0.0473294 6.92481 0.0957544 6.84955 0.170911C6.7743 0.246068 6.72492 0.343937 6.70877 0.449947L6.53791 1.51284C5.73887 1.68095 4.97863 2.00236 4.29784 2.45987L3.43544 1.83036C3.35036 1.76669 3.24727 1.7328 3.14164 1.7338C3.03602 1.7348 2.93356 1.77062 2.84965 1.83589C2.6596 1.99469 2.47766 2.16328 2.30454 2.34098C2.12851 2.51618 1.96279 2.70178 1.80825 2.89683C1.74396 2.98223 1.70867 3.08656 1.70769 3.19411C1.70671 3.30167 1.74009 3.40664 1.80282 3.49324L2.42113 4.37104C1.97168 5.06393 1.656 5.83751 1.49093 6.65048L0.44683 6.82428C0.342778 6.84044 0.246753 6.8907 0.173334 6.96743C0.0999165 7.04415 0.0531159 7.14315 0.0400387 7.24939C-0.0133462 7.74445 -0.0133462 8.24396 0.0400387 8.73902C0.0517774 8.84702 0.0978662 8.94817 0.171298 9.02709C0.244729 9.10601 0.341486 9.15837 0.446856 9.17623Z" fill="white"/>
<path d="M7.60762 3.86889C5.46511 4.00695 3.79688 5.81479 3.79688 7.99852C3.79688 10.1822 5.46514 11.9901 7.60762 12.1281C7.64136 12.1296 7.67503 12.124 7.70659 12.1118C7.73814 12.0996 7.76692 12.0809 7.79118 12.0571C7.81543 12.0332 7.83465 12.0045 7.84767 11.9728C7.86068 11.9411 7.86722 11.907 7.86689 11.8727V4.12434C7.86722 4.08999 7.86068 4.05594 7.84767 4.02424C7.83465 3.99255 7.81543 3.96388 7.79118 3.93999C7.76692 3.91609 7.73814 3.89746 7.70659 3.88524C7.67503 3.87302 7.64136 3.86746 7.60762 3.86889ZM9.76525 4.13648H8.40929V4.6882H9.76525C10.214 4.68683 10.5775 4.31712 10.5788 3.86062V2.1547C10.9524 2.02036 11.1765 1.63177 11.1095 1.23451C11.0425 0.837241 10.7039 0.546875 10.3076 0.546875C9.91139 0.546875 9.57276 0.837241 9.50576 1.23451C9.43875 1.63177 9.66284 2.02036 10.0364 2.1547V3.86062C10.0364 4.01298 9.91501 4.13648 9.76525 4.13648ZM8.40926 5.79165H11.1212C11.271 5.79165 11.3924 5.66814 11.3924 5.51578C11.3924 5.36341 11.271 5.23991 11.1212 5.23991H8.40926V5.79165ZM8.40926 11.8606H9.76523C9.91501 11.8606 10.0364 11.9841 10.0364 12.1364V13.8423C9.66284 13.9767 9.43875 14.3653 9.50576 14.7625C9.57276 15.1598 9.91137 15.4502 10.3076 15.4502C10.7039 15.4502 11.0425 15.1598 11.1095 14.7625C11.1765 14.3653 10.9524 13.9767 10.5788 13.8423V12.1364C10.5775 11.6799 10.214 11.3102 9.76525 11.3088H8.40929V11.8606H8.40926ZM12.4772 9.10197H8.40926V9.65368H12.4772C12.627 9.65368 12.7484 9.77718 12.7484 9.92955V11.3596C12.3748 11.494 12.1507 11.8826 12.2177 12.2798C12.2847 12.6771 12.6233 12.9674 13.0196 12.9674C13.4158 12.9674 13.7544 12.6771 13.8215 12.2798C13.8885 11.8826 13.6644 11.494 13.2908 11.3596V9.92955C13.2894 9.47304 12.926 9.10333 12.4772 9.10197ZM15.1891 7.17094C15.0215 7.17164 14.8581 7.22503 14.7214 7.32378C14.5847 7.42254 14.4813 7.56185 14.4254 7.72265H8.40926V8.27436H14.4254C14.564 8.6701 14.9725 8.89706 15.3747 8.8018C15.777 8.70655 16.0449 8.31943 15.9974 7.90211C15.9499 7.48482 15.6021 7.17019 15.1891 7.17094Z" fill="white"/>
<path d="M11.3894 10.4829C11.3894 10.3305 11.268 10.207 11.1182 10.207H8.40628V10.7587H11.1182C11.268 10.7588 11.3894 10.6353 11.3894 10.4829ZM13.2878 6.06915V4.63908C13.6614 4.50473 13.8854 4.11614 13.8184 3.71888C13.7514 3.32162 13.4128 3.03125 13.0166 3.03125C12.6203 3.03125 12.2817 3.32162 12.2147 3.71888C12.1477 4.11614 12.3718 4.50473 12.7454 4.63908V6.06915C12.7454 6.22151 12.6239 6.34502 12.4742 6.34502H8.40625V6.89673H12.4742C12.923 6.89534 13.2864 6.52563 13.2878 6.06915Z" fill="white"/>
</svg>
