<svg width="16" height="14" viewBox="0 0 16 14" fill="none" xmlns="http://www.w3.org/2000/svg">
<path d="M10 3.33203C9.82319 3.33203 9.65362 3.26179 9.5286 3.13677C9.40357 3.01174 9.33333 2.84218 9.33333 2.66536V1.66536H6.66667V2.66536C6.66667 2.84218 6.59643 3.01174 6.4714 3.13677C6.34638 3.26179 6.17681 3.33203 6 3.33203C5.82319 3.33203 5.65362 3.26179 5.5286 3.13677C5.40357 3.01174 5.33333 2.84218 5.33333 2.66536V1.66536C5.33333 0.930031 5.93133 0.332031 6.66667 0.332031H9.33333C10.0687 0.332031 10.6667 0.930031 10.6667 1.66536V2.66536C10.6667 2.84218 10.5964 3.01174 10.4714 3.13677C10.3464 3.26179 10.1768 3.33203 10 3.33203ZM8.47333 9.25203C8.15286 9.36218 7.80405 9.35746 7.48667 9.2387L0 6.74536V11.832C0 12.8454 0.82 13.6654 1.83333 13.6654H14.1667C15.18 13.6654 16 12.8454 16 11.832V6.74536L8.47333 9.25203Z" fill="white"/>
<path d="M16 4.16536V5.69203L8.16 8.30536C8.10667 8.32536 8.05333 8.33203 8 8.33203C7.94667 8.33203 7.89333 8.32536 7.84 8.30536L0 5.69203V4.16536C0 3.15203 0.82 2.33203 1.83333 2.33203H14.1667C15.18 2.33203 16 3.15203 16 4.16536Z" fill="white"/>
</svg>
