<svg width="16" height="16" viewBox="0 0 16 16" fill="none" xmlns="http://www.w3.org/2000/svg">
<path d="M12.1732 2.73194C12.1732 2.35656 12.0267 2.00319 11.7612 1.73769L10.4355 0.412C10.1737 0.150156 9.802 0 9.43212 0H9.35156V2.8125H12.1732L12.1732 2.73194Z" fill="white"/>
<path d="M8.56052 9.67303C8.65024 9.40066 8.8068 9.14706 9.01095 8.94153L12.1848 5.7805V3.75H8.89102C8.63192 3.75 8.43749 3.54034 8.43749 3.28125V0H1.40625C0.630811 0 0 0.630813 0 1.40625V14.5938C0 15.3692 0.630811 16 1.40625 16H10.766C11.5414 16 12.1848 15.3692 12.1848 14.5938V11.0953L11.6696 11.5979C11.4609 11.8048 11.2165 11.9554 10.9409 12.0474L9.45042 12.545L9.22336 12.5574C8.84799 12.5574 8.49277 12.3748 8.27214 12.069C8.05333 11.7646 7.99383 11.37 8.11283 11.0134L8.56052 9.67303ZM2.34375 8.4375H7.01602C7.27511 8.4375 7.48477 8.64716 7.48477 8.90625C7.48477 9.16534 7.27511 9.375 7.01602 9.375H2.34375C2.08465 9.375 1.875 9.16534 1.875 8.90625C1.875 8.64716 2.08465 8.4375 2.34375 8.4375ZM1.875 7.03125C1.875 6.77216 2.08465 6.5625 2.34375 6.5625H7.01602C7.27511 6.5625 7.48477 6.77216 7.48477 7.03125C7.48477 7.29034 7.27511 7.5 7.01602 7.5H2.34375C2.08465 7.5 1.875 7.29034 1.875 7.03125ZM1.875 10.7812C1.875 10.5222 2.08465 10.3125 2.34375 10.3125H7.01602C7.27511 10.3125 7.48477 10.5222 7.48477 10.7812C7.48477 11.0403 7.27511 11.25 7.01602 11.25H2.34375C2.08465 11.25 1.875 11.0403 1.875 10.7812ZM8.89102 13.125C9.15011 13.125 9.35977 13.3347 9.35977 13.5938C9.35977 13.8528 9.15014 14.0625 8.89102 14.0625H6.07852C5.81943 14.0625 5.60977 13.8528 5.60977 13.5938C5.60977 13.3347 5.81943 13.125 6.07852 13.125H8.89102ZM2.34375 5.625C2.08465 5.625 1.875 5.41534 1.875 5.15625C1.875 4.89716 2.08465 4.6875 2.34375 4.6875H8.89102C9.15011 4.6875 9.35977 4.89716 9.35977 5.15625C9.35977 5.41534 9.15011 5.625 8.89102 5.625H2.34375Z" fill="white"/>
<path d="M9.41244 10.0893L9.00463 11.3128C8.94351 11.4961 9.11791 11.6704 9.30119 11.6092L10.5239 11.2008L9.41244 10.0893ZM13.053 6.22994L9.96585 9.31709L11.2973 10.6485C11.995 9.95062 13.3527 8.59278 14.3843 7.56119L13.053 6.22994ZM15.7272 4.88547C15.5625 4.71975 15.3198 4.625 15.0626 4.625C14.8053 4.625 14.5627 4.71975 14.397 4.88594L13.7158 5.56709L15.047 6.89828L15.7282 6.21706C16.0944 5.85034 16.0943 5.25303 15.7272 4.88547Z" fill="white"/>
<path d="M15.7266 6.21623L15.7266 6.21617L15.7293 6.21348C15.7284 6.21442 15.7275 6.21533 15.7266 6.21623ZM15.7335 6.20933C15.7365 6.2063 15.7366 6.20623 15.7335 6.20933V6.20933Z" fill="white"/>
</svg>
