<svg width="16" height="16" viewBox="0 0 16 16" fill="none" xmlns="http://www.w3.org/2000/svg">
<path d="M10.655 1.71921L10.1862 1.10378L10.655 0.488424C10.6894 0.44332 10.7105 0.389484 10.7159 0.333006C10.7213 0.276528 10.7108 0.219662 10.6856 0.168842C10.6604 0.118021 10.6214 0.0752745 10.5732 0.045437C10.5249 0.0155994 10.4693 -0.000138005 10.4125 5.01141e-06H8.01252C7.93121 -0.00045791 7.85298 0.031167 7.79484 0.0880165C7.73669 0.144866 7.70331 0.222353 7.70193 0.303662V3.00953H8.31146V2.20953H10.4125C10.4694 2.2094 10.525 2.19341 10.5733 2.16337C10.6215 2.13332 10.6604 2.09041 10.6856 2.03946C10.7108 1.98852 10.7213 1.93155 10.7159 1.87497C10.7105 1.81839 10.6894 1.76445 10.655 1.71921ZM1.03001 9.60001C0.781744 9.59871 0.57942 9.7989 0.578125 10.0471V16H4.42574V9.60001H1.03001ZM2.02574 14.3238C2.02574 14.4046 1.99364 14.4822 1.93648 14.5393C1.87933 14.5965 1.80181 14.6286 1.72098 14.6286C1.64015 14.6286 1.56264 14.5965 1.50548 14.5393C1.44833 14.4822 1.41622 14.4046 1.41622 14.3238V13.6689C1.41622 13.5881 1.44833 13.5106 1.50548 13.4534C1.56264 13.3963 1.64015 13.3642 1.72098 13.3642C1.80181 13.3642 1.87933 13.3963 1.93648 13.4534C1.99364 13.5106 2.02574 13.5881 2.02574 13.6689V14.3238ZM2.02574 11.773C2.02574 11.8539 1.99364 11.9314 1.93648 11.9885C1.87933 12.0457 1.80181 12.0778 1.72098 12.0778C1.64015 12.0778 1.56264 12.0457 1.50548 11.9885C1.44833 11.9314 1.41622 11.8539 1.41622 11.773V11.1181C1.41622 11.0373 1.44833 10.9598 1.50548 10.9026C1.56264 10.8454 1.64015 10.8133 1.72098 10.8133C1.80181 10.8133 1.87933 10.8454 1.93648 10.9026C1.99364 10.9598 2.02574 11.0373 2.02574 11.1181V11.773ZM3.58765 14.3238C3.58765 14.4046 3.55554 14.4822 3.49839 14.5393C3.44123 14.5965 3.36371 14.6286 3.28289 14.6286C3.20206 14.6286 3.12454 14.5965 3.06739 14.5393C3.01023 14.4822 2.97812 14.4046 2.97812 14.3238V13.6689C2.97812 13.5881 3.01023 13.5106 3.06739 13.4534C3.12454 13.3963 3.20206 13.3642 3.28289 13.3642C3.36371 13.3642 3.44123 13.3963 3.49839 13.4534C3.55554 13.5106 3.58765 13.5881 3.58765 13.6689V14.3238ZM3.58765 11.773C3.58765 11.8539 3.55554 11.9314 3.49839 11.9885C3.44123 12.0457 3.36371 12.0778 3.28289 12.0778C3.20206 12.0778 3.12454 12.0457 3.06739 11.9885C3.01023 11.9314 2.97812 11.8539 2.97812 11.773V11.1181C2.97812 11.0373 3.01023 10.9598 3.06739 10.9026C3.12454 10.8454 3.20206 10.8133 3.28289 10.8133C3.36371 10.8133 3.44123 10.8454 3.49839 10.9026C3.55554 10.9598 3.58765 11.0373 3.58765 11.1181V11.773ZM7.95771 5.35239L5.03527 7.83825V16H6.3686V12.8263C6.36761 12.7874 6.37454 12.7488 6.38896 12.7128C6.40339 12.6768 6.425 12.644 6.45249 12.6166C6.47998 12.5892 6.51277 12.5677 6.54885 12.5534C6.58493 12.5391 6.62355 12.5322 6.66235 12.5333H9.28209C9.32052 12.5324 9.35875 12.5393 9.39437 12.5538C9.43 12.5683 9.46226 12.5899 9.48914 12.6174C9.51603 12.6449 9.53696 12.6776 9.55063 12.7135C9.5643 12.7495 9.57042 12.7878 9.5686 12.8263V16H10.8638V7.83543L7.95771 5.35239ZM9.28209 10.8191H6.64513C6.56431 10.8191 6.48679 10.7869 6.42964 10.7298C6.37248 10.6726 6.34037 10.5951 6.34037 10.5143C6.34037 10.4335 6.37248 10.3559 6.42964 10.2988C6.48679 10.2416 6.56431 10.2095 6.64513 10.2095H9.28209C9.36291 10.2095 9.44043 10.2416 9.49759 10.2988C9.55474 10.3559 9.58685 10.4335 9.58685 10.5143C9.58685 10.5951 9.55474 10.6726 9.49759 10.7298C9.44043 10.7869 9.36291 10.8191 9.28209 10.8191ZM14.9893 9.60001H11.4734V16H15.4353V10.0531C15.4372 9.8048 15.2376 9.60199 14.9893 9.60001ZM13.0353 14.3238C13.0353 14.4046 13.0032 14.4822 12.946 14.5393C12.8889 14.5965 12.8113 14.6286 12.7305 14.6286C12.6497 14.6286 12.5722 14.5965 12.515 14.5393C12.4579 14.4822 12.4257 14.4046 12.4257 14.3238V13.6689C12.4257 13.5881 12.4579 13.5106 12.515 13.4534C12.5722 13.3963 12.6497 13.3642 12.7305 13.3642C12.8113 13.3642 12.8889 13.3963 12.946 13.4534C13.0032 13.5106 13.0353 13.5881 13.0353 13.6689V14.3238ZM13.0353 11.773C13.0353 11.8539 13.0032 11.9314 12.946 11.9885C12.8889 12.0457 12.8113 12.0778 12.7305 12.0778C12.6497 12.0778 12.5722 12.0457 12.515 11.9885C12.4579 11.9314 12.4257 11.8539 12.4257 11.773V11.1181C12.4257 11.0373 12.4579 10.9598 12.515 10.9026C12.5722 10.8454 12.6497 10.8133 12.7305 10.8133C12.8113 10.8133 12.8889 10.8454 12.946 10.9026C13.0032 10.9598 13.0353 11.0373 13.0353 11.1181V11.773ZM14.5591 14.3238C14.5591 14.4046 14.527 14.4822 14.4698 14.5393C14.4127 14.5965 14.3351 14.6286 14.2543 14.6286C14.1735 14.6286 14.096 14.5965 14.0388 14.5393C13.9817 14.4822 13.9496 14.4046 13.9496 14.3238V13.6689C13.9496 13.5881 13.9817 13.5106 14.0388 13.4534C14.096 13.3963 14.1735 13.3642 14.2543 13.3642C14.3351 13.3642 14.4127 13.3963 14.4698 13.4534C14.527 13.5106 14.5591 13.5881 14.5591 13.6689V14.3238ZM14.5591 11.773C14.5591 11.8539 14.527 11.9314 14.4698 11.9885C14.4127 12.0457 14.3351 12.0778 14.2543 12.0778C14.1735 12.0778 14.096 12.0457 14.0388 11.9885C13.9817 11.9314 13.9496 11.8539 13.9496 11.773V11.1181C13.9496 11.0373 13.9817 10.9598 14.0388 10.9026C14.096 10.8454 14.1735 10.8133 14.2543 10.8133C14.3351 10.8133 14.4127 10.8454 14.4698 10.9026C14.527 10.9598 14.5591 11.0373 14.5591 11.1181V11.773Z" fill="white"/>
<path d="M7.97063 3.42188L3.60938 7.15559L4.16054 7.79692L7.77277 4.71902C7.82799 4.67195 7.8982 4.64613 7.97077 4.64621C8.04333 4.64629 8.11348 4.67225 8.16861 4.71944L11.7658 7.79818L12.3296 7.15384L7.97063 3.42188ZM6.97635 13.1424H8.9573V15.9996H6.97635V13.1424Z" fill="white"/>
</svg>
