<svg width="16" height="16" viewBox="0 0 16 16" fill="none" xmlns="http://www.w3.org/2000/svg">
<path d="M6.00568 5.80997H10.0288L7.99975 3.92969L6.00568 5.80997ZM11.516 13.8896H12.0677V14.805H11.516V13.8896ZM1.69531 13.8896H2.24704V14.805H1.69531V13.8896ZM6.66083 10.6657H7.21255V11.5811H6.66083V10.6657ZM8.94129 10.6657H9.49301V11.5811H8.94129V10.6657ZM8.02175 12.9564C7.84192 12.957 7.66396 12.9959 7.4981 13.0711C7.33223 13.1463 7.18173 13.2562 7.05524 13.3945C6.9288 13.5329 6.82887 13.6969 6.76119 13.8772C6.6935 14.0574 6.6594 14.2504 6.66083 14.445V15.999H9.38267V14.4449C9.38409 14.2504 9.34998 14.0574 9.2823 13.8772C9.21461 13.6969 9.11469 13.5329 8.98826 13.3946C8.86177 13.2562 8.71127 13.1463 8.54541 13.0711C8.37954 12.996 8.20158 12.957 8.02175 12.9564ZM3.97577 10.6657H4.5275V11.5811H3.97577V10.6657ZM1.69531 10.6657H2.24704V11.5811H1.69531V10.6657Z" fill="white"/>
<path d="M10.446 9.05594V6.36719H5.55402V9.05594C5.55402 9.20985 5.45718 9.35226 5.31494 9.35226H0V15.999H6.14253V14.4449C6.14253 13.324 6.98233 12.4151 8.01839 12.4151C9.05445 12.4151 9.89425 13.324 9.89425 14.4449V15.999H16V9.35226H10.7218C10.65 9.34903 10.5818 9.31683 10.5308 9.26201C10.4797 9.20718 10.4495 9.13368 10.446 9.05594ZM2.75862 15.0836C2.75862 15.2375 2.64338 15.3622 2.50115 15.3622H1.43448C1.29225 15.3622 1.17701 15.2375 1.17701 15.0836V13.611C1.17701 13.4571 1.29225 13.3324 1.43448 13.3324H2.50115C2.64338 13.3324 2.75862 13.4571 2.75862 13.611V15.0836ZM2.75862 11.8597C2.75862 12.0136 2.64338 12.1383 2.50115 12.1383H1.43448C1.29225 12.1383 1.17701 12.0136 1.17701 11.8597V10.3871C1.17701 10.2332 1.29225 10.1085 1.43448 10.1085H2.50115C2.64338 10.1085 2.75862 10.2332 2.75862 10.3871V11.8597ZM5.03908 15.0836C5.03908 15.2375 4.92384 15.3622 4.78161 15.3622H3.71494C3.57271 15.3622 3.45747 15.2375 3.45747 15.0836V13.611C3.45747 13.4571 3.57271 13.3324 3.71494 13.3324H4.78161C4.92384 13.3324 5.03908 13.4571 5.03908 13.611V15.0836ZM5.03908 11.8597C5.03908 12.0136 4.92384 12.1383 4.78161 12.1383H3.71494C3.57271 12.1383 3.45747 12.0136 3.45747 11.8597V10.3871C3.45747 10.2332 3.57271 10.1085 3.71494 10.1085H4.78161C4.92384 10.1085 5.03908 10.2332 5.03908 10.3871V11.8597ZM7.72414 11.8597C7.72414 12.0136 7.6089 12.1383 7.46667 12.1383H6.4C6.25777 12.1383 6.14253 12.0136 6.14253 11.8597V10.3871C6.14253 10.2332 6.25777 10.1085 6.4 10.1085H7.46667C7.6089 10.1085 7.72414 10.2332 7.72414 10.3871V11.8597ZM10.0046 11.8597C10.0046 12.0136 9.88936 12.1383 9.74713 12.1383H8.68046C8.53823 12.1383 8.42299 12.0136 8.42299 11.8597V10.3871C8.42299 10.2332 8.53823 10.1085 8.68046 10.1085H9.74713C9.88936 10.1085 10.0046 10.2332 10.0046 10.3871V11.8597ZM13.2782 10.3871C13.2782 10.2332 13.3934 10.1085 13.5356 10.1085H14.6023C14.7445 10.1085 14.8598 10.2332 14.8598 10.3871V11.8597C14.8598 12.0136 14.7445 12.1383 14.6023 12.1383H13.5356C13.3934 12.1383 13.2782 12.0136 13.2782 11.8597V10.3871ZM13.2782 13.611C13.2782 13.4571 13.3934 13.3324 13.5356 13.3324H14.6023C14.7445 13.3324 14.8598 13.4571 14.8598 13.611V15.0836C14.8598 15.2375 14.7445 15.3622 14.6023 15.3622H13.5356C13.3934 15.3622 13.2782 15.2375 13.2782 15.0836V13.611ZM10.9977 10.3871C10.9977 10.2332 11.1129 10.1085 11.2552 10.1085H12.3218C12.4641 10.1085 12.5793 10.2332 12.5793 10.3871V11.8597C12.5793 12.0136 12.4641 12.1383 12.3218 12.1383H11.2552C11.1129 12.1383 10.9977 12.0136 10.9977 11.8597V10.3871ZM10.9977 13.611C10.9977 13.4571 11.1129 13.3324 11.2552 13.3324H12.3218C12.4641 13.3324 12.5793 13.4571 12.5793 13.611V15.0836C12.5793 15.2375 12.4641 15.3622 12.3218 15.3622H11.2552C11.1129 15.3622 10.9977 15.2375 10.9977 15.0836V13.611Z" fill="white"/>
<path d="M11.509 10.6667H12.0607V11.5821H11.509V10.6667ZM13.7894 10.6667H14.3412V11.5821H13.7894V10.6667ZM3.96875 13.8905H4.52047V14.806H3.96875V13.8905ZM13.7894 13.8905H14.3412V14.806H13.7894V13.8905ZM10.5377 0.163264C10.5168 0.11575 10.4842 0.0753821 10.4435 0.0465839C10.4028 0.0177857 10.3556 0.00166896 10.307 0H7.98972C7.91857 0.00351402 7.85127 0.0360086 7.80134 0.0909658C7.7514 0.145923 7.72252 0.219279 7.72047 0.296318V3.62189H8.23542V2.22886H10.307C10.3543 2.23089 10.4012 2.21821 10.4421 2.19232C10.483 2.16642 10.5162 2.1284 10.5377 2.08274C10.5593 2.03708 10.5683 1.98569 10.5637 1.93467C10.5591 1.88364 10.5411 1.8351 10.5118 1.79479L10.0422 1.13011L10.5119 0.464239C10.541 0.42133 10.5588 0.370651 10.5634 0.317631C10.5679 0.264611 10.5591 0.211249 10.5377 0.163264Z" fill="white"/>
</svg>
