<svg width="12" height="16" viewBox="0 0 12 16" fill="none" xmlns="http://www.w3.org/2000/svg">
<path d="M4.36435 5.63743C4.36435 5.39743 4.37526 5.16107 4.39707 4.9247C3.69162 5.11743 3.27344 5.41197 3.27344 5.63743C3.27344 5.86288 3.69162 6.15743 4.39707 6.35016C4.37526 6.11379 4.36435 5.87743 4.36435 5.63743ZM3.54616 6.81925C3.81461 7.37497 4.26317 7.82353 4.81889 8.09197C4.68046 7.78228 4.57797 7.45774 4.51344 7.1247C4.1804 7.06017 3.85586 6.95768 3.54616 6.81925ZM3.54616 4.45561C3.85586 4.31718 4.1804 4.21469 4.51344 4.15016C4.57797 3.81712 4.68046 3.49258 4.81889 3.18288C4.26317 3.45133 3.81461 3.89989 3.54616 4.45561ZM5.28798 7.24107C5.48071 7.94652 5.77526 8.3647 6.00071 8.3647C6.22616 8.3647 6.52071 7.94652 6.71344 7.24107C6.2393 7.28497 5.76212 7.28497 5.28798 7.24107ZM6.71344 4.03379C6.52071 3.32834 6.22616 2.91016 6.00071 2.91016C5.77526 2.91016 5.48071 3.32834 5.28798 4.03379C5.76212 3.98989 6.2393 3.98989 6.71344 4.03379ZM6.00071 4.72834C5.71388 4.72778 5.42728 4.74479 5.14253 4.77925C5.07465 5.34936 5.07465 5.9255 5.14253 6.49561C5.71264 6.56349 6.28878 6.56349 6.85889 6.49561C6.92677 5.9255 6.92677 5.34936 6.85889 4.77925C6.57414 4.74479 6.28754 4.72778 6.00071 4.72834ZM7.18253 8.09197C7.73825 7.82353 8.18681 7.37497 8.45526 6.81925C8.14556 6.95768 7.82102 7.06017 7.48798 7.1247C7.42345 7.45774 7.32096 7.78228 7.18253 8.09197ZM7.18253 3.18288C7.32096 3.49258 7.42345 3.81712 7.48798 4.15016C7.82102 4.21469 8.14556 4.31718 8.45526 4.45561C8.18681 3.89989 7.73825 3.45133 7.18253 3.18288ZM7.63707 5.63743C7.63707 5.87743 7.62616 6.11379 7.60435 6.35016C8.3098 6.15743 8.72798 5.86288 8.72798 5.63743C8.72798 5.41197 8.3098 5.11743 7.60435 4.9247C7.62616 5.16107 7.63707 5.39743 7.63707 5.63743Z" fill="white"/>
<path d="M10.1818 0H1.09091C0.801848 0.000863306 0.524872 0.116075 0.320474 0.320474C0.116075 0.524872 0.000863306 0.801848 0 1.09091V14.9091C0.000863306 15.1982 0.116075 15.4751 0.320474 15.6795C0.524872 15.8839 0.801848 15.9991 1.09091 16H10.1818C10.664 16 11.1265 15.8084 11.4675 15.4675C11.8084 15.1265 12 14.664 12 14.1818V1.81818C12 1.33597 11.8084 0.873508 11.4675 0.532533C11.1265 0.191558 10.664 0 10.1818 0ZM7.63636 14.1818H4.36364C4.26719 14.1818 4.1747 14.1435 4.10651 14.0753C4.03831 14.0071 4 13.9146 4 13.8182C4 13.7217 4.03831 13.6292 4.10651 13.5611C4.1747 13.4929 4.26719 13.4545 4.36364 13.4545H7.63636C7.73281 13.4545 7.8253 13.4929 7.89349 13.5611C7.96169 13.6292 8 13.7217 8 13.8182C8 13.9146 7.96169 14.0071 7.89349 14.0753C7.8253 14.1435 7.73281 14.1818 7.63636 14.1818ZM8.72727 12.7273H3.27273C3.17629 12.7273 3.08379 12.689 3.0156 12.6208C2.9474 12.5526 2.90909 12.4601 2.90909 12.3636C2.90909 12.2672 2.9474 12.1747 3.0156 12.1065C3.08379 12.0383 3.17629 12 3.27273 12H8.72727C8.82372 12 8.91621 12.0383 8.9844 12.1065C9.0526 12.1747 9.09091 12.2672 9.09091 12.3636C9.09091 12.4601 9.0526 12.5526 8.9844 12.6208C8.91621 12.689 8.82372 12.7273 8.72727 12.7273ZM6 9.09091C5.31676 9.09091 4.64885 8.8883 4.08076 8.50871C3.51266 8.12912 3.06988 7.5896 2.80842 6.95836C2.54695 6.32713 2.47854 5.63253 2.61183 4.96242C2.74513 4.2923 3.07414 3.67676 3.55727 3.19363C4.04039 2.7105 4.65594 2.38149 5.32605 2.2482C5.99617 2.1149 6.69076 2.18331 7.322 2.44478C7.95323 2.70625 8.49276 3.14902 8.87235 3.71712C9.25194 4.28522 9.45455 4.95312 9.45455 5.63636C9.45368 6.5523 9.08944 7.43047 8.44178 8.07814C7.79411 8.7258 6.91594 9.09004 6 9.09091Z" fill="white"/>
</svg>
