<svg xmlns="http://www.w3.org/2000/svg" width="91" height="92" fill="none" xmlns:v="https://vecta.io/nano"><path opacity=".8" d="M66.246 5.839l-.352-.192-.325-.189.194.101.033.018.009.006.495.271.064.034.17.104v.006l-.288-.158zm-1.74-.908l-.468-.232.288.137.106.049.522.262-.452-.219m-.944-.454l-.334-.165-.222-.094-.701-.311-.176-.082.486.21-.091-.043.24.11.076.03.2.091-.021-.009.446.204.045.018.528.265-.48-.225m25.889 31.097l-.173-.716.2.674v.033c0 .015-.009.034-.018.049l-.009-.04zm-.477-1.703l-.243-.868-.556-1.569-.155-.475-.462-1.173c.525 1.204.707 1.78 1.175 3.221l.349 1.182-.106-.314M71.232 8.98l-1.819-1.243-.061-.043 1.889 1.292zm-2.292-1.554l-.061-.043c-.026-.02-.041-.03-.046-.03l-.009-.012.346.222.182.128-.416-.265m.237.14h-.009l.015.006zm-.14-.076l2.198 1.49-2.198-1.49zm21.891 37.036v.027.009-.037zm-.006-.058l-.012-.161v-.027l.018.25-.006-.058m-.03-.411c0-.021 0-.043-.003-.064l-.012-.222.024.335-.009-.046m-.367-3.224l-.052-.472.097.664.052.415v.033l-.094-.64m-1.069-5.229c.018-.027.021-.055.015-.082l.124.573-.14-.491zM11.902 11.793l-1.017.917 1.017-.917zm13.305-1.137l.134-.189.2-.335-.294-.04-.468.198-.228.478.416-.012.237-.101m-.756-.61l.033-.024.106-.183c-.076.037-.152.091-.231.128-.028.014-.079.029-.152.046-.049.012-.121.034-.407.174l-.203.098c.021.046 0 .104.055.134.018.009.109 0 .155-.015.288-.079.513-.253.65-.354m8.228-6.652l.437-.094v-.216l-.434-.015-.325.009-.34.253-.219.201.489.015.389-.152m35.238 3.419l-.477-.277-.085-.027.291.177.616.381.046.012c-.064-.049-.137-.085-.2-.131h.009l-.2-.131m-2.171-1.268l-.498-.262.264.14-.279-.146-.03-.018.185.101-.061-.03-1.002-.515.018.012-.835-.402 2.065 1.024.188.101-.015-.009m.55.302l-.137-.073-.067-.037-.282-.152.498.271-.012-.009zM52.055.847l-.398-.076.064.015h-.033l-.589-.119c.124.034.258.04.383.088l-.109-.021-.258-.055-.067-.015-.14-.027c.046.015.094.018.137.03h-.009l-.079-.015h-.049l.692.143c-.285-.049-.556-.171-.85-.149.021.009.325.079.574.122h.027a.71.71 0 0 0 .14.027l-.049-.018c.067.003.243.043.358.07l-.14-.009.279.067.304.061h.1c.134.015.255.113.398.073-.079-.027-.164-.043-.243-.067.067.009.131.034.197.037-.179-.064-.37-.082-.547-.137h.006l-.094-.024m.03.116l-.061-.015.064.018m3.033.74l-.121-.043-.811-.216-.146-.015-.896-.241-.622-.137.091.034s-.058-.006-.225-.043l-.304-.079c-.328-.027-.638-.143-.956-.195h-.018l.331.082.118.03.565.149c-.028 0-.154-.028-.377-.085l-.118-.03-.124-.03c-.036-.012-.076-.021-.118-.03l-.279-.058.301.091h-.064l-.197-.052-.273-.076c.04.018.115.04.173.055-.036 0-.082 0-.127-.006l.009.021 1.533.417c-.222-.052-.422-.155-.647-.165l.88.244c-.016-.012-.123-.05-.322-.113.197.003.364.131.562.137h.04l.027.006-.416-.155-.188-.058.021-.006.468.134.094.006-.131-.049.109.027.313.091.094.03c-.012 0-.034-.002-.067-.006l-.042-.006-.097-.015.042.027c-.012.004-.036.005-.073.003.008.02.05.043.124.067l.264.091.018-.015h.036c.125.027.131.027.158.024-.021-.024-.021-.024-.14-.079h.009c.131.018.134.018.392.149v.009c-.057-.01-.115-.017-.176-.021.033.061.468.186.553.192.103 0 .304.07.914.277v-.012l-.908-.387.024-.012-.583-.195.045.006c-.052-.034-.064-.043-.738-.238.055.006.112.006.164.009l1.588.497h.055c-.067-.04-.146-.064-.215-.098.055.006.124.027.498.155l.067.006c-.016-.01-.102-.043-.258-.098l.124.006-.018-.015m35.289 38.508c-.252-1.609-.58-3.19-.99-4.739-.091-.113-.367-.228-.844-.35-.619-.155-1.539-.302-2.73-.448 0 .006.094.713.046.878l-.012.073-.018.052h-.03c-.052 0-.112.021-.149.052h-.039l-.027.015-.024.034-.061.058-.061-.073-.052-.085c-.064-.061-.076-.061-.088-.061 0 0-.222-.052-.3-.125h-.039l-.036-.009.006.088c.125.11.226.178.301.204.079.079.088.131.1.183l.018.094.109.216.049.219.021.073.012.094c.07.384.285.713.419 1.076.173.399.182.414.294.561l.091.021.085-.015c.033-.119-.006-.238.024-.357l.07.122.923 2.474.015.119c.015.89.568 1.609.765 2.441.103.463-.073.951.14 1.399.194.414.328.78.392 1.079l.027.122.489 3.209-.073 1.463c.003.232.091.603.152.707.052.009.121.009.176.003.097-.207.097-.448.204-.652a.36.36 0 0 1 .24-.009h.015l.015.085.094-.259c.052-.28.127-.594.392-.743l.049-.287c.033-.207.234-.963.237-.966l.094.079.024-.902.043.04.006-.698-.27-4.376.006.088-.094-.704-.106-.835-.046-.25.14 1.362-.049-.067-.018-.012-.049-.161-.024-.027-.003.457c-.118-.189-.179-.683-.152-.792v-.085l.033-.055a.5.5 0 0 0 .079.149c.021-.1.027-.128-.033-.347l-.012-.012-.046.012c-.061-.088-.07-.21-.185-.265-.03-.043-.04-.046-.049-.052l-.115-.786c-.243-.975-.72-1.886-.741-2.916.07.021.219.073.556 1.438.219.89.422 1.298.498 1.447l.027.03.012.009.012-.079c0-.046.006-.043.006-.04a2.49 2.49 0 0 1 .067.271l.006.033m-1.002-4.729a47.41 47.41 0 0 0-8.507-17.165l1.142 1.521c.962 1.341 2.237 3.438 3.826 6.293.749 1.483 1.692 3.775 2.83 6.878l.741 2.526-.03-.055M71.73 13.576l.349.027-.088-.03h-.043l-.012-.003c-.03-.015-.049-.027-.13-.088l-.085-.104-.03-.009h-.046l-.046-.003-.024.03v.027l.07.098.027.018.055.037m-8.143-7.944l-.525-.323-.018-.009h-.003l-.006.012-.082-.009.061.037.44.277c.042.006.091.009.134.012m8.495 7.978l4.891.613c.331.082.531.165.61.244l-.231-.238-5.532-4.824-2.644-1.837-.012-.006-.917-.576.434.277.179.131.027.027c.361.32.874.448 1.142.884l.018.024-.95-.619h.064l-.395-.262-.194-.11-.367-.225h-.036l-.222-.119c-.039 0-.055-.006-.064-.006.058.055.149.113.24.174.049.018.109.046.152.067l.75.497.495.344.37.232.088.061c.185.161.392.293.589.436l-.158-.07-.179-.125-.143-.094-.067.037.477.494v.04l.944.686-.012-.009c-.1-.015-.134-.024-.24-.076l-.033-.006c-.146-.064-.398-.168-.796-.454.237.317.291.341.559.478l.191.149c.058.04.07.043.085.043.125.012.279.104.465.274-.012.043-.07.037-.127.027l.07.067c-.355-.061-1.069-.646-1.336-.865-.088-.043-.128-.052-.164-.052l-.37-.293c-.616-.497-1.351-.798-1.986-1.265.264.101 1.169.549 1.175.552a2 2 0 0 0 .285.052c.152.064.291.155.449.204l.061.009.03.006c-.012-.046-.021-.113-.021-.162-.847-.829-2.283-1.444-2.559-1.56a3.65 3.65 0 0 0-.295-.149c-.182-.098-.206-.101-.307-.116-.039.024-.046.024-.052.021l-.492-.25-.094-.012.282.189c-.04 0-.052-.003-.067-.003-.067-.032-.19-.111-.37-.235l-.085-.055c-.111-.049-.267-.134-.468-.256l-.097-.009.067.067c-.02-.002-.182-.055-.486-.158l-.188-.101h.079l-.209-.143c-.537-.283-.865-.341-.868-.341l.352.213c-.146-.04-.228-.088-.31-.137a1.51 1.51 0 0 1-.134-.098l-.149-.094-.249-.024.44.274s.109.07.149.091l.082.046-.03.006c-.304-.204-.325-.213-.525-.311a.88.88 0 0 0-.127-.024l-.291-.177-.076-.018.018.012.055.055-.07.037c.088.076.194.14.285.216l-.009.037c-.055-.018-.149-.043-.313-.165-.091-.055-.137-.058-.182-.061l-.042.067c.109.143.322.25.622.32l.264.165-.088-.006c-.124-.061-.264-.07-.395-.11a.75.75 0 0 0-.103-.009l.498.36c-.352-.14-.68-.335-1.023-.491-.003.055.064.104.137.146.052.034.519.308.616.469-.106.027-.109.027-.428-.207l.052.073-.058.052.155.128c.109.073.243.098.352.18l.131.098.058.058c-.213-.052-.774-.399-.798-.411.024.079.127.158.234.235h-.167c.008.026.09.095.246.207a.63.63 0 0 1-.152.049l.073.134-.03.015a.87.87 0 0 0 .125.155h-.055l.04.067c.058.03.094.034.13.037-.009-.046 0-.11.018-.149h.085l-.012-.076c.04-.027.082-.076.103-.116.243.021.291.055.419.174a1.36 1.36 0 0 0-.155-.009l.058.052-.079.018c.067.158.452.515.495.555l-.088.012s.625 1.036.753 1.155l-.088-.076c-.024.12-.031.196-.021.229-.04.021-.088.067-.118.104l.128.146.079.024c.094-.015.137-.015.182-.009l.173.192a.71.71 0 0 0-.039.158l-.079.015c.03.131.021.146-.046.216.026.055.068.129.125.222l-.061.064-.2-.094a1.33 1.33 0 0 0-.167-.012l.118.162.164.14-.021.085-.082.027h-.039-.024-.003c-.044.051-.076.123-.094.216h-.079l-.018.079c.094.104.279.32-.012.317-.027.04-.052.104-.055.149.134.132.208.219.222.262l-.052.061c.079.192.261.283.376.445 0 .061-.03.058-.055.058l.021.076a3.67 3.67 0 0 0 .152.226l.213.012c.225-.046.301.198.307.198l-.042.073a2.43 2.43 0 0 0 .14.219l-.067.046c.061.144.226.233.495.265a3.08 3.08 0 0 1 .149.247l-.033.076 1.415.073-.052-.265.067-.037.076.028c.006-.113-.043-.183-.094-.253.313.043.638.536.644.542l2.265.165.012-.076.076-.015c-.021-.198-.2-.542-.2-.545l-.106-.125c-.14-.152-.17-.186-.452-.162-.21-.232-.528-.347-.707-.616l-.707-.807c0-.283-.295-.418-.346-.673l.085-.009c.015-.082.024-.131-.094-.305a.28.28 0 0 1 .146-.037 1.45 1.45 0 0 0-.179-.289l.006-.079.079-.009c-.052-.485-.568-.494-.799-.795l.024-.076c-.109-.146-.261-.286-.319-.344a.29.29 0 0 1 .161-.015l.046.006h.012.006a11.56 11.56 0 0 1 .425.274l-.027-.079c.109-.006.112-.006.495.259l.361.314-.152-.012c.516.457.571.503.589.676l-.164-.049-.061.055c.417.703.833 1.258 1.248 1.664l.14.149c.003.006 1.041.795 1.524.975h.033c.006-.052.012-.119.009-.174.115-.024.222.061.334.037l-.033-.146c.152-.034.297-.021.437-.006l-.015-.082.067-.009c.127.085.222.201.358.268l.252.027.121.107.043.07c-.026.004-.104.005-.234.003 0 .083.071.267.213.551-.21-.021-.343-.201-.531-.268l-.055.067c-.059-.002-.139-.018-.24-.049l-.052.058.012.076c-.049-.012-.115-.037-.155-.061l-.067.046a3.29 3.29 0 0 0 .173.302l.018.043m-4.74-.296l-1.415-.076.006.012c.008.049.016.079.024.091.03.046.079.067.109.11l.052.082.27.012.067.055c.014.014.087.07.219.168l.124-.049c.106.034.194.113.313.091 0 0 .127-.021.091-.122l.012-.052c.065.004.106-.001.124-.015l.03-.085c0-.046-.039-.079-.039-.125l.006-.095m2.906.18l-2.235-.146c.121.159.322.229.44.387l.039.055.009.119c.024.024.185.232.334.317.186.104.308.189.364.256l.076.11.076.11a1.64 1.64 0 0 0 .537.463c.03.012.106.052.179.171.058.088.058.192.109.28l.037.058c.055.079.127.152.182.229l.556.034c-.152-.264-.216-.43-.191-.497.012-.006.037-.007.076-.003l.082.009c.079.021.131.113.228.088.027-.055-.037-.11.006-.162.021-.021.043-.018.13-.012-.067-.113-.146-.222-.225-.335l.291.018-.197-.277c-.046 0-.091-.006-.14-.009-.137.043-.194-.091-.298-.125l-.061-.186c-.103-.293-.352-.5-.455-.792l.027-.03-.015-.101.046-.027m19.173 21.998a47.41 47.41 0 0 0-8.507-17.165l-3.352-3.849c-.079-.079-.279-.162-.61-.244-.871-.216-2.565-.424-4.891-.613l-.349-.027a.8.8 0 0 0 .085.03h.012.012l.109.079c-.076.009-.179.052-.237.116.173.28.349.311.574.347.027-.073.027-.195-.006-.268.41.055.966.704.969.71-.051.108-.026.233.073.375.027.098-.012.095-.052.091-.042-.014-.218-.149-.525-.405l-.064-.006-.17-.223-.13-.009c.428 1.048.607 1.481 1.093 1.944l.046.113-.659-.14c.045.283.322.387.462.597l-.055.024-.765-.539c-.038.018-.147.201-.325.548a3.04 3.04 0 0 0-.288-.006c-.316.363-.65-.21-.759-.399l-.164-.009a2.48 2.48 0 0 1-.024.131 2.68 2.68 0 0 0-.146-.015l-.225-.03-.14.015.137.259c-.012.088-.067.085-.128.082-.228-.049-.24-.061-.428-.326l-.097-.012-.17-.012-.121-.204-.088-.119c.082-.107.194-.101.3-.095.185.052.346.168.525.226l.088-.107c-.149-.32-.483-.902-.486-.905-.115-.091-.164-.095-.216-.095-.079.024-.179.064-.258.095a1.47 1.47 0 0 0 .037.125c-.027.095-.043.091-.055.091-.076-.043-.24-.125-.24-.442l-.13-.204c-.604.079-.459-.774-.932-.902-.004.018.018.153.067.405l-.231.125c.033.07.094.158.152.216.024.043.037.061.052.079l-.012.131-.112.091c.03.102.305.451.823 1.048l.064.116.109.259c.118.162.27.292.395.445l.149.268-.137-.009a2.33 2.33 0 0 1-.298.04l-.112-.006c-.164-.037-.207-.049-.54-.049l-.012.137c-.073.037-.167.107-.219.171.026.163 0 .284-.079.366l-.118-.088-.118-.009-.088-.006c-.04.006-.088.009-.13.012-.015.064.018.143.055.222l.246.128.185.393c-.255-.018-.3.064-.562.536h-.109c-.082 0-.185-.003-.267-.012.046.244.146.491.246.741-.258-.009-.304-.012-.537.067.036.128.085.253.137.381l-.386-.015c-.055-.028-.182-.056-.382-.082-.125-.073-.14-.116-.158-.155-.061-.061-.167-.113-.255-.122-.018.14.024.268.07.393l.127.055.109.299.1.128a3.4 3.4 0 0 1 .058.162c-.713.049-1.047-.277-1.05-.277-.36.138-.555.23-.583.274l.037.134c.118.094.155.098.191.098.252.29.492.28.595.277a1.56 1.56 0 0 1 .155.006l.795.613c.115.259.188.488.261.716.507.594 1.357 1.588.832 2.148 0 .04.006.095.009.134-.174.134-.306.208-.395.222-.037 0-.076-.003-.118-.006-.37-.168-.796-.204-1.13-.466a22.45 22.45 0 0 0-1.148-.061c-.32-.047-.509-.088-.568-.125-.131-.067-.149-.067-.17-.07l-.106.079.03.137c-.228.11-.431.101-.631.095l-.03.134c.367.439.228 1.091.632 1.514l.17.844.003.131c-.419.424-.203.774.006 1.112l.088.11c.048.119.055.168.064.216s.018.098.027.146c-.103.183-.109.238.012.67.134.055.258.058.382.061.364-.079.692.183 1.057.116.043.043.219.143.528.302.146.177.225.405.416.542l.052-.162-.127-.043c1.624-.993 2.939-1.463 2.945-1.466l-.106-.475c-.253-.394-.341-.805-.264-1.231a9.2 9.2 0 0 0 .046-.277l.279-.006c.049-.064.1-.168.121-.247.07-.037.173-.067.255-.073l.033-.128.662-.061c.043-.149.003-.29-.039-.427l-.036-.14c-.222-.548-.219-.82-.219-.823.144-.089.367-.101.671-.034h.024.009.012.006l.553.262.258.015.134-.018c.008-.27.027-.453.058-.549a.93.93 0 0 1 .222-.012c.091.009.31.03.428-.408.744.21.905 1.048 1.5 1.42.134.083.245.202.334.356.972.689 2.769 1.969 2.969 3.056-.269.051-.419.148-.449.293-.37.095-.726-.04-1.087-.058l.07.174c.364.21.571.619.984.771l.568.034-.149-.549c.146-.101.212-.283.376-.363l-.082-.573c.055-.058.146-.116.222-.137.024-.07.033-.177.012-.253l-.091-.247c-.17.003-.231 0-.291-.006-.112-.076-.134-.128-.146-.183l-.027-.128c.097-.076.216-.067.337-.061.285.134.346.216.446.341.021-.296-.176-.515-.264-.777-.65-.204-1.13-.893-1.136-.899-.376-.024-.583-.384-.923-.485-.137-.417-.543-.615-.768-.96-.046-.015-.079-.018-.106-.021-.18-.329-.375-.492-.586-.488-.073-.119-.118-.235-.164-.353l.04-.128c.045-.116.033-.137.03-.159l-.231-.475c.449-.073 2.189 1.716 2.207 1.734.194.219.21.223.489.268l.1.162c.307.384.838.478 1.132.887.446.643.568 1.441.972 2.106a1.34 1.34 0 0 1 .264.046c.158.238.219.427.276.622l-.21-.015-.033-.137-.131-.043c-.015.235.194.472.522.805l.091-.165c.398.198.376.655.604.957.128.058.188.064.249.067h.134c.032-.226.042-.357.03-.393a3.27 3.27 0 0 0-.049-.168c-.04-.07-.079-.18-.079-.262l.106-.076c.061.052.14.122.188.183l.152.009c.036-.124.01-.314-.079-.57.04 0 .094.012.134.015l.043-.125c-.212-.311-.228-.314-.392-.363.067.171.112.315.137.433-.1-.018-.328-.058-1.13-1.292l-.079-.232c.006-.04.009-.098.012-.137l.106.079c.136.136.247.214.334.235l.13.006.076.006c.008-.106-.044-.218-.155-.338.006-.046.006-.104.006-.146.349-.207.54.198.823.253.119.201.196.316.231.344a.73.73 0 0 1 .143.256l-.094.094c.115.402.519.64.598 1.063a1.41 1.41 0 0 1 .088.271 1.41 1.41 0 0 0 .042.143c.038.081.115.212.231.393l.052.079.049.04.049.076.073.079.049.055c.055.082.079.216.085.311v.073l.015.095c.051.171.101.313.152.427l.058.076.052.058c.015-.07.021-.162.009-.232l-.024-.183-.097-.296-.036-.134c0-.082.018-.082.039-.079l.039.018.058.061.043.073.055.061.179.232.061.095.049.076.049.043h.027c.067.015.152.046.194.095l.118.03.021-.034.021-.049-.03-.073-.012-.076a1.06 1.06 0 0 1-.094-.384v-.073l.021-.067a.39.39 0 0 1 .237.094c.04.067.1.149.149.21l.176.219.046.076.045.058.037.024.055.043.419.046-.082-.259-.024-.091-.088-.29.082.021.021-.012.046.006c.034.018.117.105.249.259l.097.027.021-.034-.012-.067.012-.055.033.024c.03.058.067.14.109.189l.03.07c.055.177.095.337.121.481.058.457.173.716.216.814l.03.076c.065.128.105.271.121.43l-.015.052.006.076a1.61 1.61 0 0 1 .055.262v.073c-.012.291-.027.453-.046.487l-.015.052-.012.073.012.076 2.745.524c.477.119.753.235.844.35m1.497 9.108l-.07-.923v-.009l-.009-.164v-.018l-.176-1.554-.012-.018.055.509.27 4.3.015.024v-.314l-.018-.756.009.198a42.8 42.8 0 0 0-.064-1.277m-.361-3.541l-.097-.667-.999-4.836-.03-.055a47.15 47.15 0 0 1 .99 4.739l.125.774.015.049M61.027 13.213l-.012-.027-.137.061c-.049.034-.046.101-.091.14l-.079.021-.009.009.009.098c-.015.061-.073.104-.073.174 0 .052.036.095.055.143l.124.058.073-.052s.006-.012.012-.07l.012-.061v-.061l.027-.018c.082.003.161.009.167-.021l-.018-.046-.03-.058.018-.104v-.027l-.048-.159zm6.075 4.973l-.127-.25c-.228-.134-.364-.375-.583-.515l-.079.043c.03.041.031.133.003.277-.063.033-.236-.188-.519-.661l-.288-.015c-.103-.289-.185-.439-.185-.439-.124-.152-.331-.195-.465-.329l-.112-.034c-.085-.168-.307-.204-.371-.384-.046-.113-.383-.457-.574-.466-.328-.012-.619-.119-.452-.378-.02-.055-.029-.091-.027-.11.075-.002.133-.007.173-.015l-.07-.14c-.073-.125.088-.225.033-.347l-.231-.442a11.74 11.74 0 0 1-.92-.061c-.004-.063.009-.107.04-.131.006-.104-.1-.165-.1-.265 0 0 .097-.183.103-.223-.1-.088-.109-.094-.182-.104l-.091.006h-.155c-.033.015-.088.043-.401-.009l-.024.021c.07.128.07.274.106.411.046.137.134.25.188.381-.182.015-.328-.104-.498-.125-.264-.03.033.36.042.381.094.122.276.058.377.174v.079c.018.034.037.076.064.14.012.113.158.177.112.311-.18.045-.222.151-.125.32h.222c.018-.021.042-.058.355.192l.2.006c-.036-.091-.054-.166-.052-.222 0 0 .437.405.398.582-.249.021-.121.149.021.299l.504.018v-.113c.334.174.413.61.762.768.034.158.068.257.1.295.143.162.161.219.097.296l-.307-.015c-.1-.024-.185-.101-.294-.101h-.067l-.082-.009c-.008.014-.019.054-.033.119l-.012.125c-.058-.009-.115-.009-.176-.015l.021.119c.2.116.598-.009.613.32-.033 0-.067 0-.115.006-.044.055-.064.116-.058.183-.033.03-.045.043-.137.034h-.012-.009-.018-.009-.024c.103.497.322.357.413.296.039-.024.832.11.835.113.043.015.152.174.058.25-.155.116-.346-.012-.498.095-.009.043 0 .082-.015.125a2.07 2.07 0 0 0-.288.046 1.5 1.5 0 0 1 .109.369c-.103.122-.133.131-.261.177.12.067.265.072.437.015l.094-.088-.012-.091c.1.006.179.07.267.098l.316.015c-.097-.268-.094-.28-.067-.329.811.143.801.027.786-.131l.024-.03c.194.021.316.201.504.235h.064c.131-.052.27.043.398-.021.061-.027.055-.098.046-.189.088-.04.197.024.279-.061-.036-.189-.216-.277-.307-.43l-.03-.082c-.018-.041-.022-.076-.012-.107.058-.018.115-.006.176-.015l-.061-.241.2.009m-4.39-1.773c-.039-.165-.203-.216-.288-.338-.046-.07-.058-.168-.124-.229a.45.45 0 0 0-.137-.091c-.039-.018-.082.009-.118-.012-.045-.024-.076-.067-.124-.082h-.052c-.076 0-.203.067-.216.076v.113l-.088.052c-.121-.073-.215-.186-.349-.238-.07-.024-.167.012-.237.018.085.189.118.393.216.576h-.043-.024l-.073.052c-.043.012-.082-.012-.125 0l-.042.024c-.039.027-.094.07-.152.034-.077-.049-.147-.067-.209-.055l.3.832c.111.014.233.018.364.012a13.42 13.42 0 0 1 .13.372l-.261.018c-.103.174.082.32.049.491-.094.049-.134.073-.04.241.067.122.288.192.288.192.097.03.158-.073.252-.073a.52.52 0 0 0 .258.085c.097-.006.185-.137.194-.155l-.024-.137c-.018-.058.055-.061.07-.101l.92.03c-.024-.055-.043-.116-.064-.171-.046-.098-.161-.149-.176-.268.073-.053.104-.106.094-.158-.021-.091-.085-.302-.279-.707l-.094-.235c.197.012.219-.095.2-.177m21.205 55.32l.079-.134c.972-1.703.956-1.789.923-2.017-.085.167-.462.749-1.132 1.746-.343.024-.255.427-.471.558-.202-.053-.586.327-1.151 1.14-.367.533-.483 1.228-1.023 1.655l-.03-.034-.993 1.234-.091.125-.404.622-.185.244-.513.698.027.037c.049.006.103 0 .152.006-.075.12-.112.191-.112.213l.036.024v.049c.802-.201 4.135-5.013 4.169-5.061l.164-.262.149-.265.076-.134.328-.445m6.309-18.774c.021-.207.045-.417-.134-.564l-.106.271a4.53 4.53 0 0 0-.291.082c-.024-.006-.049-.012-.31.021a5.32 5.32 0 0 1-.167-.207l-.076-1.161c0-2.036-1.321-3.809-1.169-5.875l-.015-.42c0-.055-.762-6.143-3.218-9.513-.024 0-.046-.003-.194.052l-.167.216-.07-.009c-1.263-.552-2.305-1.582-3.747-1.749.121.613.291 1.219.361 1.844-.079.015-.179.04-.258.055-.058 0-.115-.006-.322-.012-.261-.247-.416-.612-.786-.743-.31-.021-.632-.043-.966-.104-.085-.159-.109-.408-.228-.542-.568-.674-1.494-.674-2.168-1.158-.747-.539-.231-1.603-.886-2.179-.009-.085-.015-.204-.021-.29.137-.07.295-.235.352-.378-.257-.179-.507-.319-.75-.421-.403.104-.955.175-1.658.213-.097.122-.27.259-.413.317-.409-.36-.995-.472-1.758-.338a10.26 10.26 0 0 0-.137.256c-.383-.018-.771-.034-1.212.162-.003.162-.061.375-.127.518-.34.079-.71-.021-1.035.165-.043 0-.079 0-.267-.034l-.291-.061h-.2c-.644.009-.783-.11-1.035-.338l-.276-.159c-.237.421-.043.902-.173 1.335-.452.033-.459.033-.835-.012l.164 1.234c-.325-.012-.653-.021-.978.125-.003.679-.073 1.359-.036 2.042l.046.539c-.27-.009-.54-.018-.811.116-.046.923-.71 1.164-1.105 1.228-.258.04-1.43 2.935-1.436 2.962l-.258-.018-.258.052c-.076.049-.173.113-.255.159.103 1.591-.103 1.673-.723 1.911-.03.076-.067.183-.094.262.003.189.006.378.158.591.741.14 1.149.281 1.224.423-.198.402-.298 1.279-.3 2.63 0 .107-.003.216-.006.326.004.165-.188.443-.577.835.027.387.176.75.24 1.131 0 .107-.009.216-.009.585 0 .012 1.126 1.963 2.213 2.538-.052.466-.188 1.713 1.515 1.831 1.145 2.252 1.218 2.386 2.271 2.243a2.11 2.11 0 0 0 .24-.533c.346-.143.717.024 1.066-.067.058 0 .109.003.164.006a36.78 36.78 0 0 1 .82.015c.148.222.71.332 1.688.332.452-.914.832-.829 1.67-.643.036 0 .076.003.164-.015.009-.009.71-.738 1.309-.244.063.829.262 1.317.598 1.466l1.916.104-.164.996c-.164.422-.469 1.392-.914 2.907a.74.74 0 0 0-.389.302.88.88 0 0 0 .395.341c.17.424 0 .951.401 1.304-.137 1.31.577 2.645-.109 3.943-.033.095-.067.189-.167.512-.024.165.018.399.091.549l-1.98 3.285c-1.239.853-.981 3.678-.969 3.699-.422.798-.452 1.167-.471 1.326l-.777 1.329a316.69 316.69 0 0 0-1.639 4.284c-.033.037-.061.073-.152.171-.304.156-.493.349-.568.579.043 0 .088.006-.012.174l-.185.216c.012.082.027.192.046.274.2.015.398.03.771-.003a4.71 4.71 0 0 1 .543-.174c.237.021.474.04.868-.067 2.207-2.094 4.982-3.465 7.174-5.577l5.028-6.186.325-.615c.07-.146.155-.347.206-.503.27-.546.54-1.097.795-1.716.112-1.012.717-1.865.914-2.849l.079-.204c.82-1.901 2.219-3.468 3.03-5.369 1.091-2.549 1.749-4.656 1.974-6.32m-43.199 11.18s-.061-1.557-.823-1.892c-.243 0-.486-.006-.726-.009-.763-.231-1.179-.574-1.248-1.027-.482-.309-.892-.413-1.23-.314-.307 0-.613-.006-1.008-.012-.656-.264-1.078-.357-1.266-.277l-.003.268c-.206.125-.322.192-.814-.064-.009-.067-.012-.155-.018-.222.115-.07.258-.165.37-.241-.304-.25-.941-.692-1.785-.844-.052 0-.103 0-.343-.088-.38-.192-.434-.21-.887-.146l.024.722h-.641c0-.101-.006-.201.012-.418.082-.097.191-.238.273-.341l.188-.143c-.033-.061-.088-.146-.124-.207 0 0-.419-.128-.862-.305h-.17c-.045 0-.094 0-.34.04.033.515.045.75-.598.652-.003-.104-.009-.207 0-.384l-.012-.229c.267.009.343.012.653-.125.176-.878.024-1.228-.036-1.362-.133 0-.313 0-.449-.006-.015-.28-.024-.561-.103-.969-.073-.28-.243-.521-.34-.792-.798-.195-.871-.411-.941-.622l-1.233-.503c-.392-.192-.768.064-1.154.043h-.27c-1.861-.363-1.855-1.115-1.855-1.438-.488-.26-.812-.44-.972-.539-.003-.055-.003-.107-.21-.186-.364-.238-.364-.277-.352-.734-.049 0-.1 0-.264.027-.222.067-.431.168-.659.216-.121-.114-.195-.327-.222-.64.067-.021.161-.046.228-.067a5.28 5.28 0 0 0 .036-.213c-.227-.122-.431-.202-.613-.241l-.325.283c-.027 0-.052 0-.188-.058-.122-.046-.291-.082-.422-.088-.2.229-.237.549-.422.786-.073 0-.17-.003-.246-.003-.334-.545-.343-.549-.856-.649-.246.003-.489.006-.814-.027a3.41 3.41 0 0 0-.437-.122c-.003-.161-.009-.32-.2-.478-.346-.101-.619-.357-.972-.439l-.185.128c-.002.02-.278.325-.829.914.117.609.18.995.188 1.158l-.161.152c-.231-.387-.899-1.712.194-2.618l-.067-.164c-.106 0-.206.003-.377.024-.401.134-.401.177-.358.68l-.771.015c-.607.425-1.075.638-1.403.64.015.311.03.622.018.969-.113.122-.313.229-.598.32-.003.652-.914 1.018-.562 1.783l.21.033c.039.649.85 1.359.14 1.944-.055.79-.215 1.21-.483 1.258.036.165.088.381.134.545a5.73 5.73 0 0 0-.325.274c-.003.097-.012.228-.015.323-.443.161-.455.369-.373.926-.167.006-.337.009-.486.079.127.445.094.914.249 1.35.21.07.428-.009.638.021.018.097.04.198.052.317l-.1.198c-.124.033-.279.125-.367.219.07.457-.27.945.082 1.386a2.24 2.24 0 0 0 .043.195c.279 1.326 1.873 1.615 2.241 2.874.027.11.055.216.097.347.331.433.422 1.012.838 1.396.808.737.777 2.529 2.308 2.328 1.415-.189 1.503 1.773 2.821 1.749l.419 1.42c.012.131.058.305.112.427l-.006.064c.015.043.027.085.097.25.03.055.07.134.1.192.006.024.015.046.015.232.012.137.061.317.115.439l-.009.04c.012.052.033.104.131.253.024.064.058.149.085.213l.024.073c.015.04.03.082.027.323a1.84 1.84 0 0 0 .228.396l.046.125c.012.04.03.082.046.14.064.439-.04.893.134 1.319.093.264.196.854.31 1.77.012.024.027.049.109.186.899 1.484 1.202 1.984.996 2.697.033.07.073.14.182.308.027.061.067.14.094.201.081.104.112.426.094.966.534.518.61 1.323 1.157 1.831.383.332.276.984.802 1.222.076 0 .152 0 .231-.006l-.531-.823.291-.006a9.93 9.93 0 0 1 .185.29l-.03.219c.115.162.234.317.343.494.002.022.194.333.577.932a6.86 6.86 0 0 1-.404-.253l-.064-.082c-.046-.055-.109-.122-.155-.174.012.012.024.031-.067.046.067.085.134.171.267.268a2.93 2.93 0 0 1 .641.573c-.203-.07-.373-.213-.577-.283.07.085.143.168.149.262a2.6 2.6 0 0 1 .03.213c.431.271.956.378 1.299.786a.82.82 0 0 0-.355.204c.015.012.027.027.185.159a7.47 7.47 0 0 0 .355.25c.012.012.021.024.137.207.258.14.474.341.719.491l-.03.073.155.067a.57.57 0 0 1 .209.049.66.66 0 0 0 .343.238l.055.049 1.612.862a1.02 1.02 0 0 0 .128.094c.288.088.294.091.641.168.015 0 .033 0 .225.058a4.67 4.67 0 0 0 .449-.021l.103-.131c-.243-.125-.285-.146-.631-.18-.046-.046-.094-.091-.316-.146 0 0-.322-.232-.695-.542-.024-.021-.039-.043-.17-.149-.158-.158-.343-.286-.498-.442-.021-.024-.043-.049-.155-.14l-.207-.232c-.039-.052-.088-.119-.133-.171.103 0 .203 0 .27-.052a2.33 2.33 0 0 1-.261-.357c.055-.037.124-.091.173-.131l-.173-.466c.039-.052.082-.128.115-.183-.036-.052-.076-.107-.267-.174-.064-.015-.149-.031-.216-.043-.458-.309-.714-.499-.768-.57-.015-.027-.033-.055-.067-.232.043-.052.097-.122.137-.174l.443-.006c-.1-.158-.194-.317-.279-.619-.024-.213-.118-.414-.094-.634l.231.021.033-.216c-.018-.03-.033-.061-.182-.186h-.012-.009-.018l-.03.012-.194.11c-.093-.065-.234-.232-.422-.5l-.152-.29h.173c.137.052.31.137.434.21l.531-.006c-.033-.055-.076-.134-.109-.189-.012-.033-.027-.064-.088-.228.016-.165-.062-.361-.234-.588l-.097-.229c.14 0 .285 0 .516-.027.064 0 .127 0 .322-.018.058-.027.143-.058.207-.085.152 0 .307-.003.519.006.061.009.146.027.209.036.006-.384.297-.64.434-.969l.042-.201c-.033-.107-.067-.213-.094-.32-.033 0-.073 0-.212-.024-.018-.07-.043-.14-.088-.302-.237-.302-.656-.39-.865-.734h.446c1.479.341 1.825.427 1.94-.113.38-1.834.726-2.032.856-2.103a.85.85 0 0 1 .043.417c.067.012.152.034.216.046.206-.274.492-.999.492-1.002.046-.396.577-.402.635-.786.082-.561-.531-.999-.279-1.588.003-.006.835-.996 1.23-1.274.209 0 .419 0 .704-.012.126-.098.286-.249.483-.454.525 0 1.051.006 1.579-.043.012-.125.076-.293.149-.393.24-.113.528-.6.586-.856a2.75 2.75 0 0 0 .38-.253c.046-.524.052-.552.252-.932.095-.059.216-.469.361-1.231 0-.046 0-.091.085-.314.225-.442.237-.747.243-.875 0-.07 0-.137-.021-.338l-.04-.21c.006-.104.006-.207-.024-.442.006-.28.009-.564.182-.884.093-.028.427-.412 1.002-1.152.316-.03.367-.082.58-.317l1.032-1.432c.182-.345.279-.612.291-.801M24.49 44.597l.04-.021c-.079-.082-.231-.034-.288-.162-.073-.158.024-.317.009-.469-.553.14-.571.146-.874.155l-.288.003c-.152-.03-.27-.146-.425-.155h-.143c-.128.046-.167.204-.304.25l-.486.015c-.206 0-.267-.238-.446-.28-.222-.049-.34-.302-.583-.311l-.978-.04c-.105.004-.282.035-.531.091l-.021.984c.267.347.446.539.537.564.088 0 .179 0 .295-.006.164.008.314-.079.449-.262.094-.125.446-.171.446-.171.167 0 .313.088.471.085.164 0 .313-.088.477-.085a3.8 3.8 0 0 0 1.087-.143c.121-.058.17-.058.288-.003.118.049.622.113.72.116l.294-.003c.106-.015.173-.101.255-.149m-7.423.475l.027-.049c-.033-.104.043-.229-.055-.323-.067-.061-.155-.027-.228-.061-.088-.037-.143-.122-.228-.162l-.073-.015-.753.018c.049.094.079.201.131.296l.067.082c.052.049.067.046.206.012.125-.03.352.161.355.165.046.043.046.088.043.201-.003.07 0 .088.018.137.085-.021.173.046.258-.009.037-.022.113-.12.231-.292zm-.744-1.871l2.01-.046c-.118-.232-.601-.926-1.014-.993-.088 0-.176.006-.285.006-.285 0-.565.137-.847 0-.197-.091-.24-.317-.389-.454-.213-.201-.489-.299-.723-.466-.182-.122-.286-.225-.313-.311-.027-.097-.052-.183-.219-.189l-.562.043c-.079.004-.165.048-.258.131-.112.107-.222-.015-.331-.024l-.528.015c-.302-.008-.475.009-.519.052-.54.546.228 1.451.865 1.024.161-.107.246-.302.431-.378.03-.012.301-.015.452.018.006 0 .51.198.553.524.012.073.018.137.082.171.431.244.495.229.635.201.179-.03.222.04.295.186.039.076.249.463.659.488m39.06-34.465l-.194-.353c-.064-.058-.103-.134-.185-.174-.107-.047-.235-.079-.383-.098-.097-.238-.187-.421-.27-.549a16.12 16.12 0 0 0-.395-.012c-.095.004-.249.11-.462.317-.185-.018-.364-.091-.553-.098-.325-.009-.413.073-.468.125-.07.061-.1.064-.173.067-.112 0-.228-.006-.34-.009a2.08 2.08 0 0 0-.073-.171 6.39 6.39 0 0 1-.07-.165c-.052-.073-.14-.107-.2-.171l-.155.037c.024.058.045.11.073.165-.105-.035-.324-.054-.656-.058-.058 0-.492.094-.137.463.176-.003.328-.134.51-.067l.37.216c.061.061.049.146.082.216-.182-.037-.519-.107-.908-.021l.161.262a.52.52 0 0 1 .146-.037c.121 0 .243.006.364.009l.064.046.124.353.158.186a4 4 0 0 1 .188.003c.179-.009.358-.037.54-.03h.2c.258-.015.395.222.613.289.006.003.704.158.689-.201-.006-.095.029-.182.106-.259.073-.067.185.055.237-.046.061-.12.121-.192.182-.216s.33-.034.808-.027M34.952 20.49l.058-.067-.045-.253c-.196-.006-.327-.027-.392-.064 0 0-.358-.21-.443-.35-.046-.076-.07-.122-.14-.146-.167-.061-.349-.021-.519-.061-.091-.024-.158-.091-.243-.125.158-.305.329-.495.513-.57.046-.021.243-.259.137-.421-.024-.037-.043-.075-.058-.116-.061.012-.124-.012-.188-.015-.024 0-.276.067-.346.137-.1.101-.055.244-.103.36-.075.181-.157.307-.246.378l-1.4 1.289c-.04.052-.122.168-.167.363-.024.101.018.201.006.302l1.934-.006c.167.015.237.037.395.247.282.366.425.436.61.524.049-.046.058-.055.167-.091.067-.024.219-.079.209-.655-.006-.232.08-.452.258-.661m-5.155-.774l.018-.018c-.067-.03-.118-.088-.191-.116a.35.35 0 0 0-.133-.009c-.137.012-.152.012-.207-.015-.194-.088-.237-.192-.252-.229-.046-.11-.088-.128-.155-.128-.061 0-.121.024-.182.009-.085.04-.197.088-.279.125.07.043.155.058.213.122s.055.155.1.223l.046.049c.058.055.121.104.176.162.049.049.082.116.134.164.046.04.064.058.124.076.07.021.185.052.592-.414M46.554.241c-.14-.034-.285-.03-.425-.049-.04-.009-.091-.009-.137-.009h-.006l.009.018c.042.012.094.037.131.058-.085 0-.1 0-.21-.024l-.049.049h-.021s-.003 0-.039.055l.036.061a2.16 2.16 0 0 1-.158-.137c-.03-.012-.064-.024-.131-.073-.106-.034-.118-.034-.2-.049H45.3l-.067.015.067.049c-.045 0-.097 0-.14.009l-.055-.043h.024l.067-.009c-.083-.016-.163-.021-.24-.015-.049 0-.091 0-.17-.006-.039 0-.094.009-.134.024h-.012l-.033.006h-.009l-.012.006h-.07l.018-.061c.103 0 .206 0 .31-.012.085 0 .164.003.27-.015l.067-.009-.106-.018h-.052-.045c-.091-.006-.188-.018-.279-.027h.009c-.021.003-.042.003-.103 0l-.079-.006h-.143-.03-.115l-.018-.009.027-.009c.112 0 .231.006.319.006a1.04 1.04 0 0 0-.14-.009h-.036A1.96 1.96 0 0 0 44.255 0h-.03-.212-.033-.024s-.009 0-.076.021l-.067-.006c-.024 0-.046 0-.097-.009-.043 0-.097 0-.137.003h-.061-.082-.009l-.067.015.021.006v.006l-.03.024h-.003l.003-.006V.049h-.027-.003-.009l-.006-.003h-.003l-.045-.003-.012.006h-.018l-.021.015.024.018h.009l.003.006h.061v.009l.015.009.006.021V.14l-.012.009-.021.021-.033-.006h-.009l-.039-.012h-.009l-.006-.003-.021-.009-.061-.018h-.006l-.003-.009V.107l-.009-.006V.088h-.009-.003l-.003-.006h-.003-.043c-.045-.006-.106-.009-.152 0l-.021.024h.015l-.012.015-.006.012-.015.018-.009.006-.027.021-.015.012h-.027-.012-.009V.183l-.006-.006.006-.009-.006-.006v-.03V.11h-.024l.003-.006.015-.009.006-.006-.006-.006h-.024-.033c-.009 0-.021.006-.076.027l-.061.027-.024.009-.018.006-.018.006-.109.037-.027.009-.052-.012s.012-.003.064-.021l.082-.021.027-.009.024-.006h.015l.006-.009.018-.012.006-.006h.018l.049-.021.006-.006h.003L42.588.07l-.045.006-.067.006-.03.006h-.021l-.021.006h-.03l-.021.006h-.055-.003-.073L42.2.104l-.052.006h-.091l-.015.003-.036.009h-.024l-.018.009.015.003h.012l-.003.009-.012.006-.021.006-.012.006-.024.009.006.009h.021.012v.006l-.012.012-.009.018-.03.006h-.049V.219h-.003l-.015-.012.009-.006V.195l.009-.003-.021-.009h-.009-.009V.171l.006-.012.012-.006.015-.006.021-.009h.009s-.009-.003-.07 0l-.024.006h-.021l-.033.009h-.018l-.082.012c-.043.009-.088.018-.128.03l-.015.006-.024.009-.024.009-.222.067-.082-.006.006-.006.015-.009h-.121l-.109.018c-.085.018-.179.027-.261.046-.043.012-.097.021-.134.03l-.036.006h-.07l-.024.003h-.012l-.039.009-.04.009-.039.006h-.018l-.049.015-.039.006h-.03c-.046.015-.106.03-.152.043l-.036.012c-.039.009-.094.021-.134.037l.058.009-.012.009-.018.012h.024a.99.99 0 0 0 .13-.012h.024l.058-.006c-.042.015-.094.037-.137.052l-.021.012-.027.012-.024.012c-.045.021-.094.04-.188.079-.042.015-.103.034-.143.046l-.046.012-.097.012h-.015c-.046-.009-.082 0-.155.018l-.079.015c-.021 0-.049 0-.134-.009-.049-.009-.097 0-.173.015l-.055.021c-.015.006-.033.012-.073.03l-.073.021-.033.006c-.037 0-.067 0-.112.003l-.067.018c-.088.018-.176.009-.261.021l-.039.006h-.036l-.036.012-.046.015-.036.015-.04.015-.045.018-.036.009h-.097c-.243.076-.255.098-.294.177l.061.027-.055.04h.188l.006.034h.018l-.009.043h.067a.36.36 0 0 0 .067 0l.109-.024.043-.009c.036 0 .076 0 .167-.012l.067-.009s.015 0 .055.003h.018c-.045.021-.088.049-.152.085l-.067.027-.039.012c-.052.012-.122.034-.173.052h-.042l-.009-.009h-.027v-.012l-.012-.003h-.061l-.061.006c-.036.009-.088.018-.127.027h-.03l-.097-.024h-.033l-.121.055h-.121c-.065.016-.118.048-.161.094l-.009.018c.055.015.073.021.149.104l.006.012h-.07l-.052.021-.039.021-.015.021.03.021-.015.021-.012.018-.024.021v.009l.018.012.009.009.03.03.012.012v.021l.073.021h.042l.046-.018.024-.024.091-.088h.055a.51.51 0 0 1 .134.021l.009.009.015.006.009.012.03-.006.061-.046h.1v.018a.4.4 0 0 0 .137.012l.045-.021.04-.009.039-.012.033-.006h.024l.033-.006.046-.021.097-.03.052.046.012.009h.143l.027.003.049.043v.021l.018.012.021.006h.167l.021.006.055.043.009.018h.07.024.027v.067l.058.024a.38.38 0 0 0 .064.009l.012.058c-.046.055-.097.107-.155.213v.024l.009.024.018.006h.042l.018.018.03.012.018.018-.015.076-.015.024.018.073.015.024-.006.037v.027l-.003.125-.009.116.015.018.033.079-.03.037c-.067.058-.073.064-.061.189-.03.052-.061.101-.094.149-.077.051-.127.1-.149.146h.161a.26.26 0 0 1-.112.122c-.042.006-.1.021-.134.04-.052.073-.067.171-.134.238h-.131l-.073.128v.073a.58.58 0 0 0 .14.034c.021 0 .046 0 .134.015l.067.018c.125 0 .243 0 .377-.024.024-.047.151-.085.38-.116-.03.143-.076.326.197.332h.046c.082.046.137.122.206.18v.067l-.052.067h-.176l-.07-.012h-.173c-.152.009-.243.012-.31-.116-.537-.055-.595-.018-.598.149l.103.107c-.134.149-.401.098-.495.314l.039.061c.211.022.354.093.431.213l.079.015a.93.93 0 0 1 .559-.177c.027-.082.058-.168.079-.247-.097.003-.2-.012-.298-.021l-.015-.064c-.043 0-.097-.006-.14-.015l.07-.07a2.97 2.97 0 0 1 .203.006c.069.053.176.09.322.113h.222a.32.32 0 0 1 .127.046l.009.076-.021.046c-.091.04-.143.131-.222.186-.003.012-.009.021-.003.076.063.073.098.133.106.18a5.92 5.92 0 0 0-.067.219c-.076 0-.152 0-.288-.021-.109.034-.188.14-.316.131h-.009c-.03 0-.064 0-.125-.018a.28.28 0 0 0-.143.006c-.046.122-.088.247-.194.363-.043-.009-.094-.03-.137-.049-.304.154-.459.247-.467.277-.003.015-.009.034-.015.11.006.043.024.101.045.14.294.067.313.149.31.174-.003.216-.337.146-.334.369l.037.073a4.4 4.4 0 0 0 .079.299c.176.061.313-.091.477-.085.03 0 .061 0 .137.015l.033.061a1.81 1.81 0 0 1-.067.134c-.033 0-.061 0-.127.012l-.067.024c-.154.392-.212.619-.173.68.27 0 .443-.293.729-.244-.027.116-.058.235-.124.387-.103.098-.264.094-.37.183-.079.061.486 1.38.492 1.393.422.634.78.942 1.053.92.037 0 .076 0 .155-.012a.63.63 0 0 1 .237-.061h.07c.073.018.146.024.216.046.009.414.465.356.653.582.103.116.896.122.88-.244 0-.037.003-.067.009-.159.039-.46.801-.908.316-1.329-.006 0-.307-.289.176-.323.036 0 .07 0 .155-.009a1.2 1.2 0 0 1 .225-.012c.113-.193.258-.351.434-.475a1.63 1.63 0 0 1 .058-.491l.049-.049c-.012-.244-.088-.308-.182-.39l.015-.07c.149-.091.343-.021.486-.134.097-.079.021-.192.049-.283h.574c-.024-.186-.024-.204-.009-.311a.97.97 0 0 1 .319.037c-.009.229-.006.238.046.314.295-.03.504-.247.768-.357h.106c.085.004.198-.018.34-.067l-.012-.073c.088-.168.264-.253.367-.399.071-.028.138-.114.2-.256a.73.73 0 0 0 .155-.058c-.003-.024-.012-.052.012-.116.121-.106.165-.226.131-.36v-.012h.03l.076.012.021.009.024.012h.018l.052.037.024.006.052.046c.1.034.112.04.225.03.209-.015.383.134.589.131.267 0 .282-.381.556-.372.188.009.349-.149.541-.116.279.043.17-.381.392-.448.131 0 .258.006.413.006.053-.028.116-.101.191-.216l-.033-.061-.088-.037-.094.104-.024.088h-.073c-.018 0-.033 0-.073-.006-.152-.03-.234-.201-.401-.198h-.118c-.48-.021-.568-.174-.61-.247-.021-.046-.04-.094-.058-.137.364-.059.579-.119.644-.18.237.091.273.427.562.457l.052-.049.018-.122c.13-.061.282.021.416-.055-.179-.247-.468-.341-.689-.533-.188-.168-.483-.21-.595-.481l.067-.027c.2.116.308.174.322.174.024 0 .045 0 .124-.012l.073.012a3.72 3.72 0 0 0-.134-.238c-.012-.018-.03-.04-.061-.119a.3.3 0 0 0-.471-.098c-.073 0-.14 0-.216-.052l.106-.094c-.018-.016-.103-.055-.255-.116l.015-.04c.088 0 .173.003.258.006l.103.155c.082 0 .158.006.295-.012l.039-.061h.07a.64.64 0 0 1 .121.012c.093.039.167.047.222.024.061-.372-.492-.213-.704-.369l.012-.067c.288.064.377.024.413.009l.04-.076.067.024h.091c.039.006.094-.006.13-.021-.209-.198-.537-.225-.713-.472.014-.014.072-.022.173-.024-.046-.046-.091-.094-.188-.177a1.29 1.29 0 0 1-.209-.122s0-.003-.052-.043c-.191-.098-.437-.058-.607-.216l-.024-.027c.028-.032.089-.056.182-.07h.103c.067 0 .115 0 .261.088.009.006.015.012.049.061.045.082.055.091.279.232l.036-.021-.401-.36-.018-.064-.037-.027c-.077-.041-.19-.063-.34-.067-.021 0-.046 0-.091-.006h-.07c-.046-.046-.094-.085-.115-.134l.064.021h.052l.067-.024c-.094-.058-.422-.155-.531-.098l.027.067c-.058-.018-.121-.043-.225-.171l-.009-.055-.222-.171h.106l-.064-.04V.808s.021 0-.009-.037c-.173-.085-.179-.104-.203-.186l.07-.015-.064-.034-.009-.067-.079-.024-.237-.009-.061-.055c.042.006.1.018.137.024l.058-.018-.118-.07.045-.034-.143-.04M41.99.079c.045-.009.088-.015.137-.027l-.121.009h-.03l.131-.021.091-.018-.115.006h-.064l-.182.015.158-.018h-.097l.112-.006h-.009-.085c-.064.006-.134.009-.203.012l.121-.009-.106.006c-.064 0-.127.009-.188.009l.067-.006-.252.012c-.036 0-.088.006-.125.009h-.027l.082-.006c-.158.012-.364.021-.519.027l-.273.024h.076c-.158.018-.307.064-.465.061.058-.012.115-.018.164-.027l-.052-.006.301-.034-.103.006.088-.006-.14.006-.459.049h-.045l.082-.012h-.03l-.398.04h-.033-.036l-.243.03h-.039l-.267.034-.012.006-.03.009-.346.052c-.094.052-.197.043-.295.064h.046l-.036.03.367-.061.216-.034.14-.012-.294.043-.364.061-.307.064c.125 0 .343-.027.653-.082l.049.009c.045 0 .088-.006.131-.006l.319-.052.261-.04c.161-.024.319-.043.48-.064l.036.006-.079.006-.595.088.137-.006.006.006h.024l-.209.046h-.118l-.122.006-.155.024c-.115.009-.234.03-.349.043h-.07l-.112.015-.249.055.024.012-.094.034-.212.064.079.021-.121.012h-.076a3.07 3.07 0 0 0 .328-.155h-.046l-.088-.012-.304.064-.173.055-.222.076-.246.107-.055.046.109.018c-.115.03-.24.043-.355.079a7.97 7.97 0 0 0-.288.098l.234-.131-.042-.018-.194.021-.179.027-.288.058-.288.091-.2.067.03.021c.055-.003.112-.003.167-.006l.191-.021-.361.082-.237.098c.071.014.319-.035.744-.146l-.358.119-.398.107-.176.015.006-.082.061-.082c-.058.006-.115.009-.17.015-.413.163-.709.259-.887.289l-.355.113-.279.155-.021.07c.109-.024.261-.052.37-.091l.498-.018.015.043c.085.009.167-.027.252-.04.049 0 .097 0 .115.018-.132.059-.206.099-.222.119.061 0 .088.006.203-.024.039 0 .082 0 .121-.003.429-.112.709-.193.838-.244l.2-.11-.307.073.282-.146.219-.034.355-.134.228-.116h.106c.273.009.492-.162.747-.225h.164c.012 0 .143 0 .27-.122l-.012-.043h-.046l-.249.052-.21.049.194-.073c.197-.037.392-.085.583-.125h.106l-.118.052c.069.014.255-.011.559-.076l.134-.082.158-.009-.125.055.134-.009.252-.04.209-.085.012-.03h.152.094l.215-.052.2-.027.859-.152.115-.006.152-.024.091-.034c-.049.008-.196.017-.443.027l.179-.034.161-.015h.106c.036 0 .07 0 .131-.006.112-.012.225-.018.34-.034a3.26 3.26 0 0 0 .334-.043m-5.365.728l.389-.104c.022-.03.046-.051.07-.061l.237-.061.212-.049.115-.037c-.076.012-.155.03-.231.04.003 0 .389-.116.726-.177.164-.03.331-.046.495-.091-.158.015-.279.037-.34.043h.046c-.276.046-.282.046-.319.046h-.076c-.194.03-.386.073-.577.107L37.33.454l-.103.015-.383.073-.231.04-.37.076h.033c-.13.034-.258.061-.389.091l-.158.052.137-.018.197-.03.134-.012a3.62 3.62 0 0 1-.48.11h-.097l-.246.055-.164.064-.343.11.018.043.234-.03v.037l.267-.07h.061c.03-.006.052-.009.279-.082l.313-.088-.061.043.337-.076v.018c.033-.006.061-.006.319-.07m-2.903.747c.17 0 .513-.162.626-.213l-.279.046-.458.14.112.03m-.07.844h.009l.316-.192-.115-.073-.146-.061-.38.088-.48.091-.249.03-.143-.052-.246.021.225-.168.383-.168.316-.149c-.064 0-.137.006-.2.009-.146.021-.352.049-1.142.472l-.519.198-.216.146-.14.146.322-.037c.1-.034.237-.073.334-.104-.049.052-.094.104-.143.158v.015c.027.006.07.015.279-.012.118-.006.24-.009.358-.012l.261-.058.24-.094-.07.101c.417-.037.685-.09.805-.161.079-.049.134-.088.337-.134m-4.129.451c.039 0 .085-.006.127-.006l.206-.116-.334.122zm1.09-.186l.446-.192.094-.091.243-.131-.167.03-.398.104-.319.125-.249.162c.045 0 .091-.006.137-.006l-.04.07.252-.07zm1.533-.683l.392-.125.249-.098.204-.11c-.046.006-.094.006-.143.009l.064-.046-.216.037-.398.137-.155.101-.127.094h.127m1.649-.573l.282-.094c-.052 0-.1.006-.149.006s-.091.006-.134.006l-.337.088c-.079.024-.161.052-.237.079l.194-.018.179-.034.203-.034m.38-.183l.261-.07.246-.094-.082-.009.258-.091-.267.058-.291.088-.51.155.021.021.167-.024.194-.034h.003zm1.57-.503l.212-.037.416-.088.079-.021h-.055l-.386.079h.067l-.331.07m-2.532.655l.307-.085.355-.107.185-.064.349-.098.112-.043.158-.052-.125.018.207-.058.191-.055-.118.018-.331.058-.304.073.088-.012-.115.037-.383.101-.085.006-.328.094.091-.015-.185.061.222-.049.021.006.064.009-.364.131-.012.03m-.498.07l.2-.043.206-.079-.14.018-.331.101h.064v.003zm-1.214.594c.058-.021.37-.146.392-.201-.024 0-.07.012-.291.082l.231-.122-.109.006c-.726.335-.747.335-.783.335l-.009-.009v-.009l.446-.207-.103.006-.361.134-.37.149.209-.122.565-.219.128-.085-.547.186c-.228.091-.452.207-.677.311l-.055.076.213-.055.131-.027-.21.104-.483.222.231-.07.164-.015.155-.034.331-.134c.158-.067.313-.128.477-.192.109-.04.225-.07.331-.11m-1.91.445c.143-.055.14-.082.14-.082h-.003c-.082.009-.152.061-.237.07l-.313.134c.107-.016.245-.058.413-.125m2.107-.804l.225-.055.48-.165.207-.079a8.08 8.08 0 0 0-.911.299zm-2.222 5.104l.407-.28.121-.286c-.352.02-.541.036-.568.046s-.2.098-.55.323l-.079.25.273.03.398-.085m.255-3.48c.36-.154.54-.254.54-.299h-.015c-.058 0-.118 0-.182.003l-.015-.073c-.2.02-.323.04-.367.058-.324.158-.55.256-.677.293-.237.119-.465.241-.689.366l-.641.396.286-.058.38-.143.392-.213.112.052.364-.14.516-.238m-2.802.993l.531-.259.273-.195.206-.174.088-.113c.364-.116.659-.259.883-.43l.167-.107-.17.021-.34.155h-.061l.027-.061-.249.064-.295.155-.237.168c-.403.187-.624.279-.665.277.021-.018.046-.046.197-.155l-.131.018-.346.168-.131.131-.097.101.033.064c-.308.213-.452.349-.434.408.04-.012.082-.024.477-.204l.273-.03m.021-.692l.495-.222.146-.094-.082-.055c-.103.037-.246.079-.337.131l-.213.152c-.015.012-.07.049-.337.213l.328-.125zm-.024-.174l.349-.146-.121.021-.273.104.043.021h.003zm6.081-2.228c.166-.041.324-.085.474-.134l-.109.015-.204.04-.474.11.07-.006.1-.009c.042-.003.085-.009.127-.012h.015m-.795.201l.343-.085h-.055l-.115.015-.2.043-.334.082-.583.174-.021.015.188-.046.14-.018.294-.082.261-.082.079-.015m-.516.073h.027l.446-.119.155-.049-.076.012-.337.091-.215.064zm-2.396 1.015l.713-.259.2-.091-.07.006-.307.107.076-.055.328-.143c.109-.04.222-.076.331-.113l.361-.128-.082.009-.27.079-.158.04-.264.088c-.134.057-.372.145-.713.265l.015.021c-.252.101-.27.101-.361.11-.039.006-.082.009-.118.012l.194-.091.465-.183.121-.064-.073.009.17-.073.021-.018-.291.076-.534.171-.389.125-.434.143-.41.152h.079l-.04.04.155-.037.246-.07.018.037.097-.009c-.14.046-.216.07-.316.088l-.109.009-.27.088-.288.119-.103.061c.049-.006.097-.009.149-.015l.449-.134.492-.168.179-.034c.049-.006.103-.009.155-.012s.109-.009.164-.012l.407-.143m1.026-.606l.033.012.34-.11c-.115.024-.137.03-.146.027l.043-.015-.27.085zm-2.065.625l.738-.25-.258.07-.459.152-.024.027h.003zm2.465-.771l.486-.137.088-.043-.398.11-.088.012c-.046-.009-1.397.399-1.412.405l-.064.009-.307.088-.407.14-.176.073.392-.125-.237.088.252-.076.288-.098.088-.018.437-.14.328-.094-.419.14.182-.049.279-.076.689-.21m-6.576 3.76l.291-.165.112-.165-.021-.171.334-.277.528-.286.191-.171.668-.36.361-.222.1-.119c-.049 0-.097.006-.143.009l-.528.256-.343.183-.419.247-.264.116-.033-.012.149-.11.355-.186.273-.152.392-.235-.073-.006-.322.165-.24.134c-.043.006-.082.006-.124.012l-.261.125-.167.043.31-.146.38-.174-.052-.009.058-.067-.131.024-.367.171-.015-.024.252-.11.434-.207.055-.04-.109.012-.398.155-.237.085-.222.07-.38.152-.44.219-.425.174-.264.131.067-.009-.212.125.252-.094.182-.046-.212.14-.282.101-.237.082-.31.143-.149.137c.052-.003.097-.009.146-.015l.234-.049c.048-.006.097-.012.14 0a1.55 1.55 0 0 1-.401.271l-.234.009c-.076.009-.155.015-.231.021l-.468.198-.534.36h.149l.158-.018-.489.35-.131.143c.076-.009.149-.015.231-.021l.252-.04.419-.186.316-.107.465-.204.27-.116-.125.122.167-.043-.115.244.173.006.24-.049.437-.247.158-.192.143-.024.267-.067m-2.116.832l.383-.247-.468.152-.625.271.076.064.392-.168.246-.07-.003-.003zm3.519-2.682l.361-.119.416-.186.392-.21-.012-.018-.37.125.14-.085.179-.098-.033-.012-.237.067-.346.137-.619.256-.953.408-1.305.582-.203.137-.783.427.543-.253.106-.015.395-.177c.647-.311 1.658-.731 1.664-.731l.665-.235m8.058 14.115l.307-.241-.24-.235.243-.238.137-.497-.632-.085-.055-.29-.701.003-.625.296-.422.235-.276-.116.219-.35.686-.207.798-.174.407-.286-.48-.027-.413-.226-.574-.162-.279-.335-.322-.332-.073-.299.273-.055.158-.219-.222-.509-.255-.551-.255-.951-.021-.427-.701.561c-.073.162-.14.323-.209.488l-.574.189-.458.344-.455-.018.043-.314-.194-.232-.501.113.392-.546.364-.704.173-.369-.504-.015-.243-.262-.131-.378-.361-.393-.343.192-.504-.012-.115-.137-.565.012-.416.265-.055.381-.434.515-.158.347-.103.472c-.106 0-.209.006-.313.009l-.267.463-.358.262.152.204.216.332-.222.616-.377.713-.577.509-.641.402-.653.101.024.619-.398.817-.046.469-.276.387-.495.494-.653.104-.03-.683-.124-.582.252-.5.249-.692.386-.573-.65-.088-.498-.012-.149-.189-.507-.174-.024-.323-.276-.338-.258-.36-.817.244.103-.347.337-.792-.14-.198.055-.302.859-.951.893-.707.835-.616.562-.229.574-.317.188-.32-.316-.119-.258-.204.449.088.322.14.285-.076.377-.338.234.162.304-.079.27-.265.261-.119.425-.353-.243-.034-.316-.03.07-.189-.167-.201.246.009.273.134.164.119.425-.14.522-.323.046-.241.294-.009-.055.222-.398.256-.601.475-.556.597-.44.146-.161.268.319.012c-.073.085-.146.168.021.274l.261-.082.404-.323.428.006.204.04.137.128c.121 0 .243-.009.37-.012l.313-.341-.291-.079.194-.417-.383-.034-.021-.314-.219-.079.231-.235.209.055.285-.174.149-.189c.109 0 .216-.006.325-.012l.386-.271.565-.271.319-.222.073-.232.261-.384.334-.064.386-.283.106-.271-.112-.137-.082-.204.386-.012.21-.14.243.027.046.152.346-.027.373-.079.055-.253.225-.055-.073.289.264.027-.17.283.173.049-.079.216.146.107-.118.277.203.107.006.286-.237.353-.689.39-.641.399-.118.378-.662.098-.24-.079-.328.009-.668.335-.285.35.425.079.422-.034.252-.198.261-.116.212.061.38.143.149.485-.07.271.088.344c.146 0 .294-.006.446-.009l.209.463.71.012.367.207.188-.286-.449-.576-.173-.247.009-.271.343.244.61.427.322.25c.073-.14.137-.28.209-.417l.44-.369-.295-.219.216-.555-.434-.189-.2-.67.331-.189.316-.168.446.612.079.405.337.061.37-.472.552-.174.167-.186h.307l.237-.207.137-.302-.592.006c.033-.052.061-.107.094-.162l-.194-.253-.219-.037-.261-.149-.276.003.067-.21.039-.186c-.152 0-.304.006-.455.009l-.167-.015c.082-.11.158-.213.246-.317h.313l.279-.146-.334-.101.155-.125.228-.04-.058-.207-.237-.082.288-.192-.197-.125-.364.021.097-.149-.261-.012-.076-.03.377-.149-.197-.088-.477.101.049-.247.137-.14-.197-.012.188-.165-.182-.113a9.75 9.75 0 0 0-.425.012l-.237.137-.258.037-.143-.04-.297.168-.228.021.285-.213.401-.198.194-.253.276-.222-.337.009-.425.171-.252.021-.34.119-.413.235-.252.256-.352.171-.273.329-.222.037.182-.28.495-.369.358-.241.562-.247.55-.204c-.097 0-.197.006-.295.009l-.389.052-.774.293-.877.427-.88.552.188.058.179.009-.222.21-.164-.043-.364.091-.176.265.297-.009.24-.076-.024.168.2.143-.358.098-.328.253-.042.177-.881.515-.559.375-.547.305-.067-.116.364-.442.468-.271.155-.399-.683.329.37-.555-.033-.067.428-.28.401-.311-.106-.027.37-.25.203-.265h-.252l-.31.158-.152.021-.556.271-.279.219-.304.174-.203.289-.055.189-.462.277-.158-.061-.364.317.261-.03.562-.238a13.38 13.38 0 0 0-.449.341l-.917.369-.607.515.055-.268.537-.357c-.061 0-.118.006-.179.009l.422-.323.167-.009.601-.463.018-.253-.559.329-.416.158-.161.341-.462.219-.434.28-.701.076-.012-.198-.14-.046.143-.268-.492.225-.631.259-.413.332-.768.539.701-.622.082-.216-.443.143-.386-.064.264-.18.425-.177.267-.302-.188.037.149-.274.328-.229-.052-.034-.119.034-.392.21-.173.07.747-.451-.759.414.015-.04.893-.518.1-.073-.656.347-.446.235-.158.073-.37.192-.492.277.71-.405.258-.134.249-.128.349-.189.039-.027-.373.189-.507.271-.067.037-.021.009c-1.315.771-3.006 1.898-4.275 2.736-1.336.959-3.209 2.533-5.62 4.723l-.619.619.109-.107-.213.229-.349.372-.1.134-.349.366-.164.222-.322.344-.076.125v.04l-.343.402-.322.421-.398.494-.355.469.039.034-.416.564-.307.518-.258.393-.103.283-.018.192.006.134-.191.311-.118.378-.103.329-.413.759-.376.613.14-.375.21-.494.182-.32.076-.29v-.113l.325-.503-.094.021.097-.238.027-.113v-.076l-.112.079-.225.396-.088.232-.146.329-.179.533-.31.6-.392.771-.367.628-.498.869-.516.981-.194.25-.328.658-.237.677-.334.67-.206.527-.121.445-.291.682-.124.558-.03.442-.264.975v.384l-.143.509-.055.576.203-.027.03.39.146.308.033.509-.118.634-.064.634L.1 36.043l.073.445.103.518-.015.384-.237.369.039.421.152.405.216.445.103.5-.094.436.018.353.216.216.179.457.128.387-.033.478.155-.168.088-.527-.039-.591-.191-.223.03-.515-.188-.411v-.658l.006-.622-.128-.454.052-.616-.158-.177.039-.759-.073-.631.173-.841.179-.052.188.238.042.445-.146.728.088.938.167.75.194.524.118.536-.036.625.267.369.161.582.115.622.316.853.094.759.191.344-.234.302-.091.491.422.707.367.588.477.256.507.548.616.457.71.576.592.259.386-.061.118-.338.443-.101.504.387.574.673.325.564.474-.018c.061 0 .124-.006.185-.006l.273.152.316.6.613.262.012-.408.346.235c.729 1.288 1.072 2.062 1.029 2.322l.225.317.249-.168.364.225c.504.575.869.847 1.096.817l.953.573.516.268-.088-.637.212-.408.88.058.125.396.285-.043.122-.527-.352-.475-.911.021-.589-.024-.859-.055-.413-.35-.58-.75-.006-.613-.033-.814.146-1.03-.012-.695-.273-.527-.531-.356-.78.11-.543-.146-.589.35-.386-.354.358-.427v-.335l.006-.408.146-.46.215-.744.037-.82.349-.335.088-.612-.24-.232-.838.11-.519.137-.249.579-.249.862-.264.789-.425.101-.595.271-.607.152-.261-.564-.474-.384-.143-.646-.285-.838-.079-1.441.024-1.036.322-.81.231-.914-.097-.929.556-.917.364-.055.437-.478.461-.558.498.091.343.177.34-.204.179.488.468-.018.373-.055-.018-.381.237-.622.592-.058.425-.091.756.082.219.53c.085 0 .173-.006.258-.009l.219-.314.24-.085.304.451.27.564-.088.664.155.381.04.427.231.308.097.466.31.225-.021.512.297.113.219-.36.203-.561-.109-.658-.064-1.009-.276-.881a18.07 18.07 0 0 1 .234-1.341l.273-.612.474-.844.556-.271.723-.652.668-.494.607-.271.185-.478.492-.305-.216-.792-.194-.357.216-.433-.158-.39.486-.259.237.567.346-.579.355-.5.349-.326.531-1.057.832-.015.613-.353.647-.079-.061-.411.176-.853.595-.646c.164 0 .334-.006.498-.009l.252-.372.653.024.689-.372.501-.503c.753-.026 1.253.034 1.5.18-.07.052-.161.116-.228.171-.282 0-.565.006-.908.052-.384.256-.584.544-.598.862l.325.165.468-.341.331-.204.592-.174.662-.302.623-.14.583-.564.54-.393.155-.451-.659.162-.571.686-.729.04-.522-.287-.489-.481-.106-.832.638-.418.143-.658-.75-.055-.896.259-1.063.552-1.136.911-.838.53.413-.491.565-.524.349-.256-.619-.18.856-.015.343-.448.601-.414.577-.037.389-.503.534-.189.756-.009 1.394-.046.686.119.574-.037.662-.402.635-.545.944-.095.513-.183" fill="url(#A)"/><defs><linearGradient id="A" x1="113.75" y1="-8.118" x2="126.557" y2="65.675" gradientUnits="userSpaceOnUse"><stop stop-color="#2e6bc6"/><stop offset="1" stop-color="#29a4ea" stop-opacity=".14"/></linearGradient></defs></svg>