<svg width="15" height="14" viewBox="0 0 15 14" fill="none" xmlns="http://www.w3.org/2000/svg">
<g clip-path="url(#clip0_190_6598)">
<path d="M13 0H2C1.17157 0 0.5 0.671573 0.5 1.5V8.5C0.5 9.32843 1.17157 10 2 10H13C13.8284 10 14.5 9.32843 14.5 8.5V1.5C14.5 0.671573 13.8284 0 13 0Z" fill="#ED4343"/>
<path d="M14 12H1C0.867392 12 0.740215 12.0527 0.646447 12.1464C0.552678 12.2402 0.5 12.3674 0.5 12.5C0.5 12.6326 0.552678 12.7598 0.646447 12.8536C0.740215 12.9473 0.867392 13 1 13H14C14.1326 13 14.2598 12.9473 14.3536 12.8536C14.4473 12.7598 14.5 12.6326 14.5 12.5C14.5 12.3674 14.4473 12.2402 14.3536 12.1464C14.2598 12.0527 14.1326 12 14 12Z" fill="#2B46A8"/>
<path d="M3 14C3.82843 14 4.5 13.3284 4.5 12.5C4.5 11.6716 3.82843 11 3 11C2.17157 11 1.5 11.6716 1.5 12.5C1.5 13.3284 2.17157 14 3 14Z" fill="#2B46A8"/>
<path d="M9.495 4.14936L7.0255 2.62186C6.87403 2.52831 6.70034 2.47688 6.52235 2.47291C6.34436 2.46893 6.16854 2.51254 6.01304 2.59923C5.85755 2.68592 5.72801 2.81256 5.63782 2.96605C5.54763 3.11954 5.50005 3.29433 5.5 3.47236V6.52736C5.5004 6.79233 5.60583 7.04632 5.79318 7.23368C5.98054 7.42103 6.23454 7.52647 6.4995 7.52686C6.6825 7.52686 6.865 7.47686 7.0255 7.37786L9.495 5.84986C9.7915 5.66636 9.9685 5.34836 9.9685 4.99936C9.9685 4.65036 9.7915 4.33286 9.4945 4.14886L9.495 4.14936Z" fill="white"/>
</g>
<defs>
<clipPath id="clip0_190_6598">
<rect width="14" height="14" fill="white" transform="translate(0.5)"/>
</clipPath>
</defs>
</svg>
