<svg width="46" height="46" viewBox="0 0 46 46" fill="none" xmlns="http://www.w3.org/2000/svg">
<path fill-rule="evenodd" clip-rule="evenodd" d="M0.241088 4.27694C0.453203 6.73399 14.0761 43.079 15.2098 44.2127C16.5561 45.559 18.966 45.5066 20.372 44.1006C20.9516 43.521 22.7844 39.7402 24.4446 35.6992C26.1047 31.6582 27.6873 28.1276 27.9613 27.8536C28.2353 27.5796 31.7369 26.026 35.7424 24.4013C39.7479 22.7767 43.5382 20.9344 44.1655 20.3071C45.5412 18.9314 45.5282 16.5246 44.1378 15.1341C43.056 14.0523 6.6361 0.444608 4.27731 0.24072C3.48556 0.172756 2.2856 0.717325 1.50165 1.50128C0.717694 2.28524 0.173125 3.48519 0.241088 4.27694Z" fill="url(#paint0_linear_970_14268)"/>
<defs>
<linearGradient id="paint0_linear_970_14268" x1="1.50165" y1="1.50128" x2="32.2365" y2="32.2361" gradientUnits="userSpaceOnUse">
<stop stop-color="#9AAEF2"/>
<stop offset="1" stop-color="#1F81DB"/>
</linearGradient>
</defs>
</svg>
