<svg width="112" height="31" viewBox="0 0 112 31" fill="none" xmlns="http://www.w3.org/2000/svg">
<path d="M16.3098 15.6838C13.8629 13.8928 11.4617 12.1358 9.05975 10.3781C9.06938 10.3554 9.07901 10.3319 9.08864 10.3092C9.24433 10.3092 9.40082 10.3092 9.55651 10.3092C13.0018 10.3076 16.447 10.3031 19.8923 10.3092C20.1595 10.3099 20.2574 10.1758 20.3313 9.97959C20.7245 8.93405 21.1185 7.88851 21.5118 6.84297C22.3376 4.64507 23.1626 2.44717 23.99 0.25002C24.0133 0.187894 24.0542 0.131071 24.1272 0C24.246 0.278053 24.3407 0.488676 24.4266 0.702329C25.5228 3.44119 26.6183 6.18004 27.7121 8.91965C27.9392 9.48864 27.9352 9.48788 27.4072 9.8614C24.8519 11.6668 22.2975 13.4738 19.743 15.28C16.8395 17.3332 13.9367 19.3864 11.0324 21.4381C7.84873 23.6875 4.6643 25.9347 1.48147 28.1841C1.00637 28.5197 0.534484 28.8599 0.0617947 29.1986C0.040929 29.1743 0.0200632 29.1508 0 29.1266C5.42188 24.6565 10.8446 20.1872 16.3098 15.6838Z" fill="#132B7D"/>
<path d="M39.8278 16.6072C39.8278 14.6737 39.8326 12.7394 39.8221 10.806C39.8205 10.5393 39.9024 10.4446 40.1929 10.4453C42.9616 10.4521 45.7296 10.4423 48.4983 10.4514C49.7133 10.4552 50.2751 11.0067 50.2743 12.1492C50.2735 15.1427 50.2751 18.1361 50.2679 21.1287C50.2662 21.7674 50.1025 22.3592 49.3979 22.6183C49.0825 22.7342 48.7182 22.7751 48.3755 22.7766C45.6509 22.7895 42.9255 22.7834 40.2009 22.7857C39.9666 22.7857 39.8109 22.7592 39.8125 22.4705C39.8229 20.5166 39.8181 18.5619 39.8181 16.6079C39.8213 16.6072 39.8246 16.6072 39.8278 16.6072ZM47.6412 16.6178C47.642 16.6178 47.6428 16.6178 47.6444 16.6178C47.6444 15.4965 47.6388 14.3752 47.6492 13.2546C47.6516 13.0251 47.5738 12.9561 47.3298 12.9576C45.8042 12.966 44.2778 12.9629 42.7522 12.9546C42.5395 12.9531 42.4657 13.016 42.4665 13.2183C42.4713 15.4813 42.4705 17.7444 42.4673 20.0067C42.4673 20.215 42.5459 20.2923 42.7779 20.2908C44.2601 20.2825 45.7424 20.2878 47.2247 20.2893C47.634 20.29 47.6404 20.2863 47.6412 19.8893C47.642 18.7983 47.6412 17.708 47.6412 16.6178Z" fill="#BE3136"/>
<path d="M87.6895 17.1787C87.6895 18.9486 87.6863 20.7184 87.6943 22.4883C87.6951 22.6989 87.6381 22.7898 87.4046 22.7868C86.7393 22.7784 86.074 22.7784 85.4095 22.7868C85.1543 22.7898 85.0636 22.689 85.066 22.4527C85.0765 21.5677 85.0644 20.6828 85.0821 19.7979C85.0869 19.5532 85.0107 19.4736 84.7515 19.4751C83.2467 19.4842 81.742 19.4865 80.2372 19.4751C79.9547 19.4729 79.8809 19.582 79.8825 19.8199C79.8905 20.6942 79.8817 21.5693 79.8962 22.4436C79.9002 22.6746 79.844 22.7906 79.5751 22.7868C78.9098 22.7777 78.2445 22.7815 77.5801 22.7845C77.3618 22.7853 77.2422 22.7337 77.2422 22.4867C77.2518 19.0501 77.251 15.6127 77.2574 12.1761C77.2582 11.7094 77.3056 11.254 77.6772 10.8843C78.0407 10.5229 78.5118 10.4411 78.9925 10.4388C81.3038 10.4274 83.6159 10.4312 85.9271 10.4388C86.5491 10.4411 87.1502 10.5623 87.4592 11.1374C87.6052 11.4086 87.6718 11.7457 87.6751 12.0541C87.6951 13.7618 87.6847 15.4703 87.6847 17.1787C87.6863 17.1787 87.6879 17.1787 87.6895 17.1787ZM82.4634 12.9299C82.4634 12.9276 82.4634 12.9254 82.4634 12.9239C81.7123 12.9239 80.9611 12.9261 80.2091 12.9223C80.023 12.9216 79.8921 12.9458 79.8937 13.1678C79.9002 14.3596 79.8994 15.5521 79.8978 16.7439C79.8978 16.9219 79.9668 17.0037 80.1666 17.0037C81.7131 17.0007 83.2595 17.0015 84.8052 17.0068C85.0083 17.0075 85.0652 16.9302 85.0644 16.7484C85.0588 15.5771 85.0572 14.4058 85.0668 13.2345C85.0684 13.0087 84.9922 12.9239 84.7498 12.9269C83.9882 12.9352 83.2258 12.9299 82.4634 12.9299Z" fill="#BE3136"/>
<path d="M97.2266 18.0314C97.2266 17.7791 97.2266 17.5268 97.2266 17.2737C97.2274 15.113 97.2323 12.9522 97.225 10.7914C97.2242 10.5406 97.2997 10.4406 97.5765 10.4452C98.2306 10.4565 98.8847 10.4489 99.5387 10.4399C99.7723 10.4368 99.8613 10.5088 99.8613 10.7452C99.8533 14.6546 99.8533 18.5647 99.8581 22.4741C99.8581 22.6999 99.7803 22.7893 99.5379 22.7863C98.8405 22.778 98.1415 22.7961 97.4449 22.7711C97.2925 22.7658 97.0886 22.656 97.006 22.5355C95.8519 20.8407 94.7147 19.1352 93.5743 17.4328C93.1434 16.7896 92.7132 16.1464 92.2855 15.5024C92.2462 15.4425 92.2197 15.3751 92.1876 15.3107C92.1434 15.3312 92.0993 15.3524 92.0552 15.3728C92.0479 15.4963 92.0343 15.6198 92.0343 15.7433C92.0343 17.945 92.0351 20.1467 92.0391 22.3491C92.0399 22.7757 92.0375 22.7833 91.5913 22.7833C90.9701 22.7833 90.3482 22.7795 89.727 22.784C89.5007 22.7855 89.4004 22.7242 89.4004 22.4817C89.4092 18.5928 89.4108 14.7031 89.402 10.8141C89.4012 10.5323 89.475 10.4323 89.7808 10.4399C90.434 10.4565 91.0897 10.4308 91.743 10.4535C91.8874 10.4588 92.084 10.5573 92.1603 10.6709C93.7493 13.0302 95.3247 15.3978 96.904 17.7624C96.9755 17.8692 97.0621 17.9677 97.1416 18.07C97.1689 18.0564 97.1978 18.0442 97.2266 18.0314Z" fill="#BE3136"/>
<path d="M62.4395 16.0301C62.4395 17.6659 62.4403 19.3016 62.4387 20.9374C62.4387 21.1124 62.4403 21.2881 62.417 21.4609C62.3127 22.2284 61.9476 22.5958 61.1426 22.733C60.9187 22.7708 60.6876 22.7814 60.4597 22.7822C58.2583 22.7852 56.0562 22.7837 53.8549 22.7799C53.659 22.7799 53.4624 22.7595 53.269 22.7337C52.5997 22.6443 52.1623 22.2519 52.0387 21.6268C52.009 21.476 51.9986 21.32 51.9986 21.1662C51.9962 17.6894 51.9986 14.2118 51.9922 10.735C51.9914 10.5176 52.0628 10.4403 52.2875 10.4426C52.9633 10.4486 53.639 10.4494 54.3147 10.4395C54.5699 10.4358 54.6245 10.5509 54.6229 10.7631C54.6141 11.5858 54.6165 12.4086 54.6165 13.2322C54.6157 15.4543 54.6165 17.6765 54.6157 19.8986C54.6157 20.2956 54.6189 20.2994 55.0274 20.2994C56.5096 20.2994 57.9927 20.2934 59.475 20.3032C59.7559 20.3055 59.8265 20.2032 59.8257 19.9577C59.8209 16.9332 59.8241 13.9088 59.8241 10.8843C59.8241 10.4547 59.8217 10.4524 60.2687 10.4494C60.8898 10.4456 61.511 10.4486 62.1329 10.4418C62.3665 10.4395 62.454 10.5199 62.4524 10.7524C62.4427 12.5117 62.4475 14.2709 62.4475 16.0294C62.4443 16.0301 62.4419 16.0301 62.4395 16.0301Z" fill="#BE3136"/>
<path d="M101.577 16.592C101.577 14.6585 101.582 12.7242 101.572 10.7907C101.57 10.5134 101.675 10.4354 101.956 10.4422C102.588 10.4574 103.221 10.4566 103.853 10.4407C104.128 10.4339 104.209 10.5233 104.207 10.7801C104.196 12.1999 104.207 13.6197 104.196 15.0396C104.193 15.2956 104.277 15.3782 104.549 15.3767C106.064 15.3676 107.58 15.3699 109.095 15.379C109.348 15.3805 109.408 15.285 109.407 15.0661C109.398 13.6463 109.409 12.2265 109.391 10.8066C109.387 10.5097 109.494 10.4354 109.786 10.4422C110.407 10.4574 111.029 10.4574 111.651 10.4399C111.931 10.4316 111.998 10.5278 111.997 10.7794C111.991 14.6691 111.993 18.558 112 22.4477C112 22.697 111.926 22.797 111.647 22.7902C111.004 22.7743 110.36 22.7826 109.716 22.7849C109.5 22.7856 109.382 22.7402 109.385 22.4879C109.403 21.0378 109.399 19.5869 109.41 18.136C109.411 17.8974 109.292 17.8443 109.066 17.8451C107.55 17.8511 106.034 17.8511 104.518 17.8443C104.277 17.8436 104.195 17.9216 104.197 18.1512C104.205 19.571 104.192 20.9908 104.21 22.4106C104.214 22.7182 104.111 22.8 103.801 22.7909C103.169 22.772 102.536 22.7818 101.904 22.7872C101.678 22.7894 101.568 22.7273 101.568 22.4871C101.576 20.5226 101.572 18.558 101.572 16.5935C101.574 16.592 101.576 16.592 101.577 16.592Z" fill="#BE3136"/>
<path d="M38.9299 10.4426C38.8352 10.4714 38.7221 10.4782 38.649 10.5335C35.9662 12.536 33.289 14.5452 30.6061 16.5469C30.3982 16.7022 30.3348 16.8469 30.4135 17.0985C31.3043 19.9661 32.1831 22.8368 33.0667 25.7067C33.1252 25.8977 33.1975 26.0848 33.2833 26.331C33.1573 26.2947 33.1036 26.2901 33.0642 26.2659C31.0162 25.0158 28.9689 23.7634 26.9217 22.511C26.0534 21.9799 25.1898 21.4428 24.3127 20.926C24.2156 20.8692 24.0053 20.873 23.913 20.9351C21.8842 22.3034 19.8651 23.6854 17.8427 25.0627C16.3323 26.0916 14.8204 27.1167 13.31 28.1448C12.7362 28.535 12.1656 28.929 11.5934 29.3207C11.5733 29.3017 11.5533 29.2835 11.5332 29.2646C11.5998 29.201 11.6616 29.1312 11.7338 29.0737C14.6221 26.7886 17.5144 24.5089 20.4003 22.2208C23.2525 19.9585 26.0967 17.6879 28.9473 15.4233C31.0306 13.7679 33.1164 12.1147 35.2078 10.4684C35.3242 10.3767 35.4983 10.3078 35.6468 10.3047C36.6708 10.285 37.6956 10.285 38.7197 10.2812C38.7478 10.2812 38.7758 10.3025 38.8047 10.3138C38.8457 10.3563 38.8874 10.3994 38.9299 10.4426Z" fill="#132B7D"/>
<path d="M72.8485 10.4742C72.6142 11.1424 72.3959 11.7637 72.1776 12.385C72.1471 12.4728 72.1086 12.5592 72.0901 12.6494C72.0468 12.86 71.9128 12.9259 71.6937 12.9252C70.2002 12.9183 68.7075 12.9221 67.214 12.9161C66.7943 12.9145 66.7838 12.9115 66.783 13.2964C66.7774 15.5382 66.775 17.7808 66.7646 20.0227C66.763 20.2803 66.9138 20.2954 67.1217 20.2947C68.8985 20.2917 70.6745 20.2932 72.4513 20.2939C72.8678 20.2939 72.8646 20.2947 72.8614 20.6879C72.8574 21.2948 72.8517 21.9016 72.8622 22.5077C72.8654 22.7123 72.7803 22.7858 72.5757 22.7858C70.331 22.7828 68.0855 22.8017 65.8409 22.7714C64.6684 22.7555 64.1604 22.2342 64.1563 21.1243C64.1467 18.121 64.1507 15.117 64.1547 12.1137C64.1555 11.5008 64.284 10.9235 64.9533 10.6469C65.2341 10.5303 65.56 10.4575 65.8657 10.4553C68.0887 10.4393 70.3125 10.4469 72.5364 10.4484C72.6222 10.4477 72.7065 10.4613 72.8485 10.4742Z" fill="#BE3136"/>
<path d="M6.5625 28.6225C7.25829 28.0648 7.95248 27.5057 8.64988 26.9504C10.8809 25.1737 13.1135 23.3986 15.3454 21.6227C17.4937 19.9127 19.6437 18.2042 21.7905 16.4927C23.4461 15.1721 25.0977 13.847 26.7509 12.5242C27.6225 11.8264 28.4916 11.1241 29.3688 10.4324C29.4619 10.3589 29.6039 10.3066 29.7235 10.3051C30.7258 10.2922 31.729 10.2937 32.7314 10.293C32.7602 10.293 32.7899 10.3134 32.9087 10.3574C24.1186 16.4889 15.3735 22.5894 6.62831 28.6891C6.60744 28.6664 6.58497 28.6444 6.5625 28.6225Z" fill="#BE3136"/>
<path d="M39.985 28.4457C39.985 27.757 39.9978 27.0675 39.9786 26.3788C39.9705 26.0962 40.0829 26.0311 40.3606 26.0349C41.2321 26.047 42.1045 26.0485 42.976 26.0296C43.2786 26.0227 43.3043 26.1538 43.3139 26.3841C43.3235 26.6296 43.2216 26.6788 42.9881 26.6735C42.3452 26.6599 41.7016 26.6735 41.0596 26.6591C40.7931 26.6531 40.68 26.7357 40.6968 26.9963C40.7145 27.263 40.7105 27.5312 40.6984 27.7979C40.6888 28.0252 40.7875 28.1093 41.0267 28.104C41.6149 28.0918 42.204 28.1085 42.7914 28.0858C43.0876 28.0744 43.1317 28.2017 43.1397 28.435C43.1486 28.676 43.045 28.7313 42.8115 28.7267C42.212 28.7139 41.6125 28.729 41.013 28.7169C40.7723 28.7123 40.6808 28.7881 40.6928 29.0199C40.7089 29.3382 40.7009 29.6571 40.6904 29.9761C40.6832 30.1905 40.7811 30.2678 41.0026 30.2647C41.7 30.2564 42.3982 30.2685 43.0948 30.2519C43.3701 30.245 43.4527 30.3397 43.4575 30.5905C43.4616 30.8595 43.3235 30.8868 43.0908 30.8852C42.1647 30.8769 41.2377 30.8784 40.3116 30.8868C40.0917 30.8883 39.9609 30.8549 39.9649 30.6049C39.9762 29.8852 39.9689 29.1654 39.9689 28.4457C39.9762 28.4457 39.9802 28.4457 39.985 28.4457Z" fill="#132B7D"/>
<path d="M50.6413 28.0191C50.6413 27.3441 50.6413 26.7092 50.6413 26.0743C50.6413 25.7204 50.6879 25.6863 51.0538 25.7053C51.2416 25.7151 51.293 25.7954 51.293 25.9591C51.2914 27.513 51.2946 29.0662 51.2986 30.6201C51.2986 30.7693 51.2777 30.8837 51.0787 30.8921C50.8219 30.9027 50.5787 30.9103 50.6405 30.4723C50.0587 30.9489 49.4464 31.1065 48.8092 30.8557C48.4962 30.7322 48.1832 30.4973 47.9914 30.2344C47.4938 29.5533 47.6062 28.5926 48.1768 28.0388C48.8011 27.4327 49.574 27.4183 50.6413 28.0191ZM48.383 29.2298C48.3798 29.9011 48.8469 30.3852 49.4993 30.3867C50.1654 30.3882 50.651 29.9147 50.6558 29.2578C50.6598 28.6282 50.1759 28.1509 49.5266 28.1456C48.8525 28.1411 48.3862 28.5828 48.383 29.2298Z" fill="#132B7D"/>
<path d="M65.9533 30.9986C64.8298 30.9637 64.0104 30.4584 63.5786 29.4924C63.1428 28.5173 63.2753 27.5574 64.0144 26.7452C64.7511 25.9361 65.7294 25.7709 66.7855 26.0437C67.0889 26.1217 67.3625 26.3164 67.6354 26.4785C67.8208 26.5884 67.7879 26.7028 67.6193 26.8399C67.3794 27.0354 67.2101 27.071 66.9332 26.8543C66.3698 26.4126 65.6042 26.4194 64.9606 26.8452C64.2921 27.2869 64.0457 27.9377 64.1131 28.6772C64.1853 29.4697 64.6042 30.0622 65.4437 30.2993C66.064 30.4743 66.6507 30.4001 67.1346 29.9387C67.3288 29.753 67.7951 29.872 67.8513 30.1296C67.8673 30.2023 67.7871 30.3182 67.7164 30.3796C67.2205 30.8115 66.6282 31.0077 65.9533 30.9986Z" fill="#132B7D"/>
<path d="M97.2254 29.4796C96.8771 29.4796 96.5288 29.4789 96.1806 29.4796C95.8451 29.4804 95.7969 29.5592 95.9534 29.8471C96.2801 30.4494 97.134 30.5987 97.7054 30.1532C97.833 30.0532 97.9277 29.9032 98.1427 30.0547C98.4662 30.2827 98.4678 30.3532 98.1403 30.5911C97.6556 30.9441 97.1067 31.0138 96.5313 30.9267C95.5112 30.7722 94.9053 29.7054 95.2528 28.7084C95.6388 27.6022 97.1532 27.1681 98.0328 27.9159C98.4589 28.278 98.5954 28.7538 98.6058 29.2758C98.6098 29.4607 98.5015 29.4971 98.3353 29.4948C97.9654 29.4895 97.5954 29.4933 97.2254 29.4933C97.2254 29.4902 97.2254 29.4849 97.2254 29.4796ZM96.8868 28.9917C97.1155 28.9917 97.3434 28.9917 97.5721 28.9917C97.8956 28.9917 97.9582 28.9053 97.841 28.6235C97.6733 28.2182 97.3394 28.0325 96.8282 28.0591C96.4245 28.0803 95.9751 28.4136 95.8788 28.7561C95.8331 28.9205 95.9029 28.9902 96.0706 28.9917C96.3427 28.9932 96.6147 28.9917 96.8868 28.9917Z" fill="#132B7D"/>
<path d="M73.8463 30.958C72.8086 30.9481 72.0205 30.1973 72.0374 29.2344C72.0542 28.2881 72.868 27.5464 73.8728 27.5608C74.908 27.5751 75.6937 28.3275 75.6825 29.2912C75.6704 30.2345 74.8631 30.9671 73.8463 30.958ZM73.8527 28.1472C73.193 28.1472 72.7259 28.6214 72.7284 29.2882C72.7316 29.9314 73.2227 30.3845 73.9129 30.3799C74.5188 30.3761 74.9963 29.8746 74.9899 29.2488C74.9835 28.6124 74.5035 28.1472 73.8527 28.1472Z" fill="#132B7D"/>
<path d="M80.7876 27.9401C81.079 27.8151 81.3277 27.6605 81.6006 27.5991C82.4722 27.4044 83.123 27.8954 83.1358 28.7348C83.1455 29.3614 83.1334 29.9887 83.1479 30.6153C83.1535 30.8411 83.0572 30.9009 82.8381 30.8911C82.6383 30.882 82.4713 30.8842 82.4794 30.6198C82.4946 30.0963 82.4946 29.572 82.4882 29.0477C82.481 28.4628 82.2234 28.1621 81.7386 28.1507C81.1865 28.1378 80.8077 28.4674 80.7812 29.0311C80.7571 29.544 80.7596 30.0592 80.7836 30.5721C80.7965 30.8547 80.6624 30.8926 80.4137 30.8933C80.1552 30.8933 80.0798 30.807 80.0846 30.563C80.1007 29.7311 80.0878 28.8985 80.0951 28.0666C80.0967 27.9022 79.9875 27.6544 80.3037 27.6393C80.5364 27.6287 80.8647 27.5309 80.7876 27.9401Z" fill="#132B7D"/>
<path d="M58.234 30.5097C57.8504 30.8658 57.4523 30.9847 56.9933 30.9559C56.4339 30.9203 55.9781 30.6006 55.934 30.0809C55.8698 29.3346 55.8858 28.5823 55.877 27.8322C55.8746 27.5951 56.0736 27.6367 56.2341 27.6314C56.4283 27.6246 56.5415 27.6792 56.5383 27.8913C56.5302 28.4777 56.523 29.0641 56.5423 29.6498C56.5543 30.0263 56.7886 30.2907 57.1081 30.3574C57.5173 30.443 57.9403 30.2847 58.1032 29.9392C58.1931 29.7483 58.2348 29.5255 58.2452 29.3149C58.2661 28.8944 58.2541 28.4716 58.2476 28.0504C58.2436 27.8254 58.2107 27.6254 58.5759 27.6231C58.925 27.6201 58.925 27.7883 58.9226 28.0315C58.9121 28.8542 58.9202 29.677 58.9178 30.4998C58.917 30.6612 59.0044 30.8847 58.7011 30.8862C58.4732 30.8862 58.1586 30.9756 58.234 30.5097Z" fill="#132B7D"/>
<path d="M88.3707 28.0534C88.5272 27.9345 88.5986 27.8799 88.6708 27.8261C89.1106 27.4988 89.6017 27.4996 90.0937 27.6693C90.5303 27.82 90.7285 28.1777 90.7502 28.586C90.7863 29.283 90.775 29.9831 90.7782 30.6816C90.7791 30.9188 90.5905 30.8847 90.4267 30.887C90.2285 30.8892 90.0921 30.8551 90.0977 30.6172C90.1105 30.0422 90.1146 29.4664 90.1001 28.8906C90.0913 28.5095 89.8666 28.233 89.5592 28.164C89.1459 28.0716 88.7687 28.1913 88.5793 28.5406C88.4654 28.7519 88.4068 29.0058 88.3915 29.2452C88.3642 29.6747 88.3803 30.1081 88.3939 30.5392C88.4004 30.7476 88.3988 30.8961 88.0994 30.8923C87.8265 30.8892 87.7198 30.8324 87.7278 30.5445C87.7503 29.7225 87.727 28.9004 87.7343 28.0776C87.7359 27.9163 87.6099 27.6678 87.9277 27.6405C88.1676 27.62 88.4798 27.5556 88.3707 28.0534Z" fill="#132B7D"/>
<path d="M104.669 30.9565C103.773 30.9459 103.205 30.5876 102.923 29.8996C102.665 29.27 102.873 28.426 103.4 27.9646C103.973 27.4631 105.189 27.435 105.765 27.9229C105.821 27.9707 105.841 28.1563 105.8 28.1874C105.654 28.298 105.583 28.5722 105.276 28.3972C105.063 28.276 104.807 28.1828 104.562 28.1631C104.11 28.1267 103.743 28.4237 103.584 28.8776C103.418 29.3556 103.571 29.8784 103.958 30.1625C104.335 30.4375 104.82 30.4565 105.206 30.2102C105.456 30.0504 105.733 30.1186 105.836 30.3883C105.859 30.4489 105.789 30.5769 105.722 30.6269C105.395 30.8717 105.015 30.98 104.669 30.9565Z" fill="#132B7D"/>
<path d="M110.331 29.2583C110.331 29.0113 110.31 28.7628 110.336 28.5188C110.367 28.2385 110.253 28.1544 109.969 28.1628C109.842 28.1665 109.648 28.112 109.596 28.0249C109.476 27.8218 109.617 27.6529 109.872 27.6392C110.319 27.615 110.319 27.615 110.319 27.1627C110.319 26.7498 110.382 26.6808 110.77 26.746C110.859 26.7611 110.984 26.8861 110.991 26.9695C111.05 27.5983 111.042 27.6051 111.668 27.6332C111.87 27.6423 111.932 27.7264 111.937 27.8999C111.942 28.0726 111.889 28.1817 111.684 28.1741C111.672 28.1734 111.662 28.1741 111.651 28.1749C110.993 28.2052 110.992 28.2052 110.992 28.828C110.992 29.1674 110.984 29.5068 110.996 29.8455C111.011 30.2584 111.215 30.4061 111.651 30.3697C111.753 30.3614 111.944 30.4122 111.953 30.4569C111.982 30.6311 112.019 30.888 111.761 30.9084C111.424 30.9349 111.063 30.9206 110.743 30.8289C110.585 30.7834 110.458 30.5395 110.385 30.3599C110.318 30.1947 110.336 29.9962 110.328 29.8121C110.32 29.6273 110.327 29.4424 110.327 29.2575C110.328 29.2583 110.329 29.2583 110.331 29.2583Z" fill="#132B7D"/>
</svg>
